<?xml version="1.0" encoding="UTF-8" ?>
<!DOCTYPE svg PUBLIC "-//W3C//DTD SVG 1.1//EN" "http://www.w3.org/Graphics/SVG/1.1/DTD/svg11.dtd">
<svg width="2362pt" height="94pt" viewBox="0 0 2362 94" version="1.1" xmlns="http://www.w3.org/2000/svg" fill="currentColor">
<g id="#ffffffff">
</g>
<g id="#010101ff">
<path opacity="1.00" d=" M 1128.08 13.84 C 1131.40 14.44 1134.89 14.57 1138.01 15.98 C 1140.75 17.53 1141.83 20.76 1141.42 23.77 C 1140.41 23.84 1138.39 23.97 1137.38 24.04 C 1137.21 22.28 1137.07 20.52 1136.81 18.78 C 1136.75 22.08 1136.88 25.39 1137.20 28.68 C 1139.49 29.62 1141.82 30.44 1144.15 31.30 C 1144.41 36.27 1144.29 41.24 1144.03 46.20 C 1146.25 46.23 1148.49 46.23 1150.74 46.23 C 1150.07 41.67 1149.95 37.00 1150.52 32.42 C 1151.39 30.94 1152.79 29.83 1154.21 28.89 C 1158.18 27.95 1161.42 31.10 1164.91 32.41 C 1165.21 36.99 1165.02 41.59 1164.70 46.16 C 1166.94 46.15 1169.19 46.14 1171.45 46.13 C 1171.27 41.02 1171.35 35.86 1170.22 30.84 C 1173.24 30.62 1176.32 30.54 1179.21 29.45 C 1178.30 27.50 1177.08 25.72 1176.26 23.75 C 1175.59 20.67 1175.69 17.50 1175.67 14.37 C 1180.71 14.70 1188.14 14.69 1189.24 21.06 C 1190.03 24.02 1186.68 24.63 1184.73 25.65 C 1184.52 26.90 1184.32 28.15 1184.15 29.41 C 1185.73 29.90 1187.32 30.38 1188.94 30.88 C 1187.54 32.77 1185.80 34.43 1184.77 36.56 C 1183.89 39.67 1183.82 42.93 1183.27 46.10 C 1186.70 46.09 1190.15 46.12 1193.60 46.12 C 1192.29 41.66 1192.31 36.98 1192.29 32.37 C 1193.99 31.02 1195.57 29.47 1197.45 28.33 C 1201.48 27.09 1204.61 30.66 1207.76 32.54 C 1207.40 37.09 1207.10 41.66 1206.52 46.20 C 1208.90 46.17 1211.31 46.14 1213.72 46.13 C 1213.10 42.12 1213.05 38.05 1213.32 34.01 C 1213.11 31.57 1215.51 30.20 1217.17 28.88 C 1221.10 28.73 1225.04 29.71 1228.77 30.96 C 1228.36 35.98 1228.27 41.02 1228.14 46.06 C 1230.38 46.07 1232.63 46.06 1234.90 46.04 C 1234.11 41.54 1232.97 37.00 1233.23 32.41 C 1234.95 27.27 1241.46 29.40 1245.24 30.72 C 1246.78 35.52 1245.32 40.96 1245.14 45.99 C 1247.55 45.98 1249.97 45.99 1252.40 46.02 C 1251.62 40.72 1251.17 35.38 1251.15 30.03 C 1252.42 29.90 1253.71 29.79 1255.01 29.68 C 1254.98 28.64 1254.97 27.60 1254.98 26.56 C 1253.29 26.00 1251.57 25.54 1250.05 24.65 C 1249.27 21.43 1249.46 18.09 1249.38 14.81 C 1253.17 15.07 1257.66 14.54 1260.70 17.31 C 1262.55 18.89 1262.66 21.44 1262.87 23.68 C 1261.18 24.47 1259.47 25.17 1257.74 25.82 C 1257.80 26.65 1257.92 28.30 1257.99 29.12 C 1260.18 29.65 1262.38 30.16 1264.59 30.72 C 1265.81 35.73 1265.09 40.90 1264.76 45.98 C 1266.68 45.98 1268.60 45.99 1270.54 46.00 C 1270.20 40.14 1269.41 34.07 1271.25 28.37 C 1274.88 28.19 1278.79 28.94 1281.62 31.33 C 1281.90 36.22 1281.84 41.14 1281.81 46.04 C 1283.47 46.01 1285.16 45.98 1286.87 45.94 C 1286.41 41.25 1286.45 36.53 1285.69 31.87 C 1287.89 30.43 1289.08 28.26 1288.43 25.60 C 1287.09 25.50 1285.77 25.41 1284.46 25.31 C 1284.18 21.57 1284.15 17.82 1284.06 14.07 C 1288.21 14.10 1292.44 14.80 1296.13 16.78 C 1297.81 17.88 1298.48 20.02 1298.46 21.95 C 1298.25 24.66 1295.08 25.35 1293.28 26.75 C 1293.04 24.05 1293.31 21.35 1293.43 18.65 C 1292.56 21.84 1292.16 25.14 1291.80 28.42 C 1293.37 28.69 1294.98 28.91 1296.48 29.52 C 1298.49 30.15 1298.51 32.61 1299.28 34.25 C 1298.40 34.46 1296.64 34.89 1295.75 35.10 C 1295.87 38.72 1295.85 42.35 1295.73 45.97 C 1297.90 45.99 1300.08 46.02 1302.27 46.04 C 1301.98 41.78 1301.32 37.44 1302.11 33.21 C 1302.56 32.07 1302.71 30.20 1304.20 29.93 C 1307.93 28.51 1311.59 30.52 1314.91 32.08 C 1315.24 36.72 1315.29 41.39 1314.65 46.02 C 1316.71 46.01 1318.80 46.01 1320.89 46.01 C 1320.51 40.68 1320.28 35.30 1320.88 29.97 C 1322.46 29.78 1324.06 29.62 1325.68 29.49 C 1324.51 25.25 1324.94 20.84 1324.51 16.52 C 1323.64 19.63 1324.21 22.86 1324.24 26.03 C 1319.25 24.57 1321.48 18.14 1320.79 14.31 C 1324.43 14.69 1328.35 14.52 1331.65 16.38 C 1334.15 18.00 1334.07 21.17 1334.22 23.81 C 1332.49 24.31 1330.78 24.80 1329.09 25.30 C 1329.13 26.68 1329.21 28.06 1329.31 29.43 C 1330.90 29.92 1332.51 30.40 1334.13 30.90 C 1333.38 35.90 1333.55 40.97 1333.15 46.00 C 1676.10 45.98 2019.05 46.01 2362.00 45.99 L 2362.00 55.99 C 2001.00 55.98 1640.00 55.94 1279.00 56.00 C 1275.44 56.13 1271.81 55.60 1268.33 56.35 C 1265.42 57.72 1262.88 59.80 1260.73 62.15 C 1260.70 68.80 1265.19 74.50 1268.26 80.14 C 1266.71 78.86 1265.26 77.47 1263.84 76.08 C 1262.28 77.12 1260.79 78.32 1259.01 78.92 C 1257.60 78.52 1256.33 77.84 1255.04 77.23 C 1253.22 78.40 1251.37 79.52 1249.39 80.34 C 1251.01 78.52 1252.89 76.94 1254.74 75.34 C 1256.74 76.27 1258.75 78.30 1261.09 77.07 C 1261.90 75.18 1261.04 73.24 1260.59 71.39 C 1259.65 68.12 1258.92 64.81 1257.96 61.56 C 1254.06 66.65 1254.39 73.97 1249.41 78.40 C 1247.85 80.84 1244.96 80.80 1242.39 80.86 C 1242.41 76.84 1243.45 72.66 1242.24 68.72 C 1240.39 64.54 1236.17 62.19 1232.46 59.88 C 1232.22 60.49 1231.74 61.73 1231.50 62.34 C 1231.03 62.29 1230.07 62.20 1229.60 62.15 C 1230.65 68.28 1233.80 73.85 1238.83 77.57 C 1236.74 73.61 1234.34 69.74 1233.54 65.26 C 1239.06 68.52 1239.78 75.47 1242.36 80.77 C 1238.88 80.98 1235.51 80.32 1232.71 78.19 C 1230.84 76.58 1228.70 77.73 1226.94 78.79 C 1225.98 78.20 1225.05 77.62 1224.12 77.04 C 1222.16 77.79 1220.20 78.54 1218.18 79.07 C 1219.62 77.97 1220.99 76.06 1223.03 76.23 C 1227.21 76.85 1231.44 75.87 1235.59 76.95 C 1233.72 74.63 1231.43 72.55 1230.32 69.73 C 1229.25 66.98 1228.42 64.14 1227.23 61.44 C 1224.12 66.42 1221.89 71.87 1219.07 77.01 C 1218.45 78.38 1217.21 79.26 1216.09 80.16 C 1217.20 72.91 1222.52 67.44 1224.89 60.69 C 1223.27 61.46 1221.71 62.28 1220.17 63.14 C 1220.54 61.86 1220.91 60.58 1221.28 59.29 C 1218.51 61.07 1215.45 63.46 1215.25 67.03 C 1214.18 71.44 1215.65 75.88 1215.48 80.33 C 1212.33 78.68 1212.18 75.13 1212.36 72.00 C 1213.59 66.99 1215.79 62.18 1219.13 58.20 C 1214.58 58.09 1210.17 59.16 1205.94 60.69 C 1207.96 63.95 1210.29 67.30 1210.03 71.34 C 1206.98 68.33 1205.94 64.04 1203.47 60.65 C 1201.62 65.30 1201.13 70.32 1201.13 75.29 C 1202.99 75.86 1204.82 76.65 1206.78 76.93 C 1208.16 76.05 1209.17 74.74 1210.32 73.59 C 1211.07 75.15 1211.81 76.71 1212.53 78.30 C 1211.87 77.82 1210.56 76.85 1209.91 76.36 C 1208.61 77.13 1207.34 77.95 1205.96 78.51 C 1204.10 77.68 1202.51 76.40 1200.88 75.23 C 1198.97 76.65 1196.99 77.95 1194.94 79.14 C 1193.89 77.89 1191.86 76.96 1192.24 75.04 C 1192.24 69.62 1194.80 64.78 1197.84 60.46 C 1192.28 59.01 1186.58 58.09 1180.83 58.42 C 1184.72 61.88 1188.82 65.40 1191.15 70.16 C 1192.14 73.42 1190.87 77.13 1188.04 79.03 C 1186.57 80.08 1184.37 82.18 1182.72 80.36 C 1177.90 74.87 1176.32 67.42 1172.41 61.38 C 1171.27 65.04 1171.06 68.95 1169.51 72.48 C 1169.10 68.62 1169.46 64.75 1169.33 60.88 C 1165.45 65.79 1163.31 71.72 1160.68 77.32 C 1162.15 76.61 1163.60 75.80 1165.15 75.20 C 1166.58 75.50 1167.73 76.49 1169.02 77.16 C 1171.80 76.11 1174.83 74.81 1177.76 76.25 C 1180.22 76.52 1180.41 79.40 1181.03 81.27 C 1178.54 80.02 1176.49 78.05 1174.00 76.84 C 1172.19 77.33 1170.50 78.14 1168.81 78.89 C 1167.81 77.96 1166.82 77.04 1165.85 76.12 C 1162.32 78.18 1158.86 80.60 1154.74 81.24 C 1154.71 76.57 1153.53 71.57 1156.41 67.45 C 1156.97 70.93 1157.47 74.42 1158.17 77.88 C 1160.73 71.82 1163.91 66.10 1167.04 60.34 C 1164.84 61.29 1162.74 62.40 1160.58 63.39 C 1161.73 61.87 1162.96 60.40 1164.18 58.91 C 1158.77 57.19 1153.41 59.35 1148.21 60.65 C 1150.15 63.71 1152.38 66.85 1152.43 70.64 C 1150.03 68.98 1149.08 66.20 1147.58 63.85 C 1146.25 62.91 1144.76 62.22 1143.36 61.42 C 1142.00 62.19 1140.64 62.92 1139.24 63.59 C 1138.12 66.21 1136.93 68.93 1134.56 70.67 C 1134.49 66.89 1136.80 63.78 1138.70 60.72 C 1133.52 59.28 1128.14 57.18 1122.76 58.94 C 1124.30 60.73 1125.91 62.48 1127.39 64.34 C 1124.81 62.90 1122.33 61.29 1119.70 59.96 C 1122.86 65.88 1126.22 71.68 1128.81 77.89 C 1130.05 73.41 1130.56 68.71 1128.21 64.49 C 1131.07 68.09 1133.43 72.25 1132.56 77.04 C 1133.34 76.09 1134.13 75.13 1134.92 74.17 C 1136.17 75.15 1137.34 76.46 1139.01 76.74 C 1140.58 76.24 1142.01 75.37 1143.46 74.57 C 1144.91 75.38 1146.36 76.27 1147.99 76.72 C 1149.70 76.26 1151.09 75.10 1152.58 74.18 C 1152.85 74.84 1153.38 76.16 1153.65 76.82 C 1150.78 77.31 1147.78 78.59 1145.02 77.05 C 1142.90 75.74 1140.91 77.68 1138.97 78.40 C 1137.63 77.78 1136.30 77.15 1135.00 76.52 C 1133.81 77.90 1132.71 79.36 1131.42 80.65 C 1127.50 80.90 1124.46 77.74 1121.13 76.13 C 1120.12 77.05 1119.14 77.97 1118.16 78.90 C 1116.46 78.15 1114.78 77.34 1113.00 76.85 C 1110.53 77.93 1108.58 79.92 1106.23 81.21 C 1106.36 79.21 1106.83 76.44 1109.32 76.21 C 1112.24 74.79 1115.22 76.20 1118.02 77.17 C 1119.28 76.55 1120.39 75.33 1121.87 75.25 C 1123.39 75.81 1124.80 76.62 1126.28 77.31 C 1123.65 71.71 1121.51 65.77 1117.64 60.87 C 1117.49 64.74 1117.85 68.62 1117.47 72.49 C 1115.90 68.96 1115.69 65.05 1114.55 61.39 C 1110.50 67.61 1108.98 75.45 1103.70 80.87 C 1099.73 81.22 1097.18 77.35 1095.24 74.46 C 1094.89 75.09 1094.18 76.34 1093.83 76.96 C 1094.87 73.48 1095.56 69.72 1097.90 66.81 C 1100.19 63.64 1103.13 61.04 1106.12 58.54 C 1100.15 59.39 1094.97 55.45 1089.06 55.97 C 726.04 56.02 363.02 55.82 0.00 55.99 L 0.00 46.00 C 338.43 45.99 676.87 46.00 1015.30 45.99 C 1015.28 40.48 1014.80 34.99 1013.94 29.55 C 1016.69 29.53 1019.42 29.98 1022.05 30.79 C 1021.94 35.91 1021.89 41.02 1021.87 46.14 C 1023.65 46.10 1025.46 46.06 1027.27 46.03 C 1027.15 40.77 1026.80 35.53 1026.37 30.29 C 1027.85 30.24 1029.35 30.24 1030.86 30.24 C 1030.77 25.80 1030.62 21.36 1030.57 16.92 C 1030.38 20.29 1030.46 23.68 1029.83 27.01 C 1028.63 25.94 1027.23 25.03 1026.38 23.64 C 1025.71 20.65 1025.92 17.55 1025.90 14.51 C 1029.26 14.54 1032.81 14.34 1035.93 15.85 C 1038.11 17.80 1038.39 20.85 1038.34 23.59 C 1036.87 23.93 1035.42 24.27 1033.98 24.62 C 1034.30 26.32 1034.65 28.01 1035.03 29.70 C 1036.72 30.00 1038.41 30.31 1040.13 30.62 C 1040.72 35.77 1040.48 40.98 1039.82 46.11 C 1041.95 46.09 1044.09 46.06 1046.25 46.03 C 1045.72 41.41 1045.32 36.75 1045.52 32.11 C 1046.26 31.29 1047.04 30.49 1047.85 29.71 C 1047.19 26.68 1046.45 23.64 1046.45 20.51 C 1048.85 21.11 1051.95 21.10 1053.41 23.50 C 1055.10 25.44 1054.91 28.13 1055.32 30.52 C 1056.60 30.79 1057.90 31.05 1059.21 31.31 C 1059.10 36.23 1059.23 41.17 1058.71 46.08 C 1060.72 46.08 1062.75 46.09 1064.79 46.09 C 1064.10 40.96 1064.51 35.79 1064.49 30.64 C 1066.24 30.38 1068.00 30.16 1069.78 29.93 C 1069.48 27.59 1067.93 25.95 1066.22 24.51 C 1065.39 21.33 1065.70 17.97 1065.61 14.71 C 1068.95 14.81 1072.53 14.71 1075.53 16.45 C 1077.82 18.08 1079.00 21.05 1078.45 23.82 C 1076.71 24.79 1074.70 25.06 1072.83 25.59 C 1073.30 26.92 1073.73 28.29 1074.42 29.55 C 1076.09 30.06 1077.82 30.35 1079.55 30.74 C 1081.50 35.66 1080.31 41.02 1080.07 46.13 C 1082.03 46.12 1083.99 46.10 1085.97 46.08 C 1085.26 40.44 1085.06 34.67 1086.72 29.17 C 1090.17 29.23 1093.55 29.98 1096.85 30.96 C 1097.12 36.00 1097.12 41.06 1096.67 46.09 C 1099.12 46.05 1101.58 46.02 1104.05 45.97 C 1103.35 41.28 1103.22 36.53 1102.49 31.85 C 1103.45 30.93 1104.57 30.12 1105.29 28.97 C 1104.80 24.90 1104.84 20.79 1104.44 16.72 C 1104.10 19.54 1104.21 22.38 1104.00 25.20 C 1101.98 21.91 1102.60 17.92 1102.27 14.25 C 1106.24 14.87 1111.06 15.09 1113.84 18.39 C 1115.20 22.10 1111.74 25.03 1110.81 28.38 C 1115.22 29.79 1119.82 30.42 1124.43 30.83 C 1124.11 35.91 1124.22 40.99 1124.10 46.07 C 1126.36 46.08 1128.63 46.07 1130.91 46.05 C 1129.97 40.73 1129.70 35.31 1129.40 29.93 C 1130.95 29.78 1132.51 29.71 1134.09 29.66 C 1133.89 28.06 1133.74 26.47 1133.46 24.89 C 1132.52 25.19 1131.60 25.57 1130.71 25.92 C 1127.68 22.64 1128.14 17.96 1128.08 13.84 M 1286.80 15.99 C 1286.83 18.97 1286.53 22.09 1287.75 24.90 C 1288.19 21.90 1288.16 18.76 1286.80 15.99 M 1028.31 17.50 C 1027.66 18.84 1027.14 21.95 1028.70 22.59 C 1029.34 21.24 1029.77 18.21 1028.31 17.50 M 1131.30 17.35 C 1130.72 18.77 1130.19 21.89 1131.71 22.64 C 1132.28 21.22 1132.78 18.09 1131.30 17.35 M 1068.31 18.48 C 1067.52 19.96 1067.52 22.08 1068.30 23.55 C 1069.71 23.03 1069.68 19.03 1068.31 18.48 M 1178.28 18.50 C 1177.46 19.57 1177.46 21.36 1178.28 22.43 C 1179.75 22.34 1179.76 18.56 1178.28 18.50 M 1252.30 18.29 C 1251.72 19.73 1251.20 22.85 1252.70 23.62 C 1253.25 22.19 1253.80 19.03 1252.30 18.29 M 1185.30 19.58 C 1184.47 20.61 1184.47 22.39 1185.30 23.43 C 1186.81 23.39 1186.79 19.62 1185.30 19.58 M 1090.09 32.38 C 1089.47 36.91 1090.49 41.56 1089.28 46.04 C 1090.07 46.03 1091.66 46.02 1092.45 46.01 C 1091.30 42.24 1090.65 38.34 1091.60 34.45 C 1091.22 33.94 1090.47 32.90 1090.09 32.38 M 1275.59 32.91 C 1274.67 37.24 1273.86 41.58 1273.60 46.01 C 1275.19 46.00 1276.80 45.99 1278.42 45.99 C 1276.89 41.77 1276.72 37.24 1275.59 32.91 M 1114.68 33.87 C 1114.73 37.92 1114.85 41.97 1114.51 46.00 C 1115.85 46.01 1117.21 46.01 1118.58 46.02 C 1117.60 42.47 1117.24 38.81 1116.92 35.16 C 1116.36 34.84 1115.24 34.19 1114.68 33.87 M 1156.93 33.75 C 1155.54 37.70 1155.84 41.92 1155.24 46.01 C 1156.75 46.04 1158.27 46.07 1159.81 46.09 C 1158.51 42.04 1159.29 37.46 1156.93 33.75 M 1219.62 34.57 C 1218.73 38.31 1218.41 42.15 1218.15 45.98 C 1219.88 46.04 1221.62 46.08 1223.38 46.11 C 1223.01 42.93 1223.19 39.66 1222.43 36.54 C 1221.50 35.84 1220.54 35.24 1219.62 34.57 M 1306.78 45.96 C 1308.05 45.98 1309.33 46.01 1310.62 46.03 C 1309.35 41.64 1310.01 36.78 1307.85 32.66 C 1306.14 36.88 1307.28 41.54 1306.78 45.96 M 1107.56 36.37 C 1107.28 39.55 1107.27 42.75 1106.70 45.90 C 1108.38 45.94 1110.09 45.99 1111.80 46.02 C 1111.17 42.56 1111.14 39.01 1110.32 35.59 C 1109.29 35.22 1107.39 34.49 1107.56 36.37 M 1199.17 34.88 C 1198.76 38.63 1199.11 42.47 1198.07 46.15 C 1199.45 46.15 1200.83 46.16 1202.24 46.16 C 1201.36 42.26 1201.85 37.91 1200.07 34.31 L 1199.17 34.88 M 1050.25 37.28 C 1049.89 40.19 1049.62 43.11 1048.87 45.95 C 1050.89 45.98 1052.92 46.00 1054.97 45.99 C 1054.38 42.53 1054.10 38.99 1053.02 35.64 C 1052.05 36.13 1051.12 36.68 1050.25 37.28 M 1070.17 36.34 C 1069.88 39.58 1069.83 42.84 1069.09 46.02 C 1071.20 46.02 1073.31 46.03 1075.45 46.03 C 1074.76 42.84 1074.28 39.62 1073.74 36.40 C 1072.54 36.38 1071.35 36.36 1070.17 36.34 M 1134.34 36.47 C 1134.10 39.65 1134.00 42.84 1133.82 46.02 C 1135.54 46.02 1137.28 46.02 1139.03 46.01 C 1138.20 42.72 1137.91 39.33 1137.11 36.04 C 1136.42 36.15 1135.03 36.36 1134.34 36.47 M 1174.87 46.11 C 1176.18 46.09 1177.51 46.06 1178.85 46.03 C 1178.31 42.57 1178.09 39.08 1177.54 35.63 C 1173.60 37.37 1175.58 42.71 1174.87 46.11 M 1239.17 35.61 C 1238.84 39.08 1238.89 42.58 1238.39 46.04 C 1239.66 46.03 1240.95 46.02 1242.25 46.01 C 1241.65 42.82 1241.42 39.58 1240.87 36.39 C 1240.45 36.19 1239.60 35.80 1239.17 35.61 M 1324.24 35.46 C 1324.62 38.96 1324.61 42.49 1324.27 46.00 C 1325.67 46.01 1327.10 46.02 1328.54 46.04 C 1327.80 42.70 1327.51 39.30 1326.91 35.94 C 1326.24 35.82 1324.90 35.58 1324.24 35.46 M 1030.89 36.95 C 1030.73 39.97 1030.76 43.00 1030.61 46.03 C 1032.16 46.02 1033.72 46.01 1035.30 46.01 C 1034.98 43.00 1034.44 40.03 1033.89 37.06 C 1033.14 37.03 1031.64 36.98 1030.89 36.95 M 1255.84 36.99 C 1255.85 40.00 1255.91 43.01 1255.85 46.02 C 1257.26 46.02 1258.69 46.02 1260.13 46.02 C 1259.93 42.98 1259.70 39.94 1259.68 36.89 C 1258.39 36.91 1257.11 36.95 1255.84 36.99 M 1289.90 45.84 C 1290.55 45.89 1291.86 45.99 1292.51 46.04 C 1292.05 42.74 1291.95 39.41 1291.50 36.12 C 1289.90 39.10 1290.17 42.58 1289.90 45.84 M 1235.59 59.81 C 1238.58 62.65 1241.99 65.22 1244.03 68.90 C 1245.70 71.46 1245.07 74.63 1245.44 77.51 C 1246.66 73.05 1246.48 67.42 1250.98 64.74 C 1250.56 69.51 1248.33 73.81 1246.87 78.29 C 1251.37 73.82 1253.97 67.77 1255.29 61.63 C 1251.58 59.41 1247.23 58.72 1242.97 58.68 C 1240.51 59.17 1238.11 59.91 1235.59 59.81 M 1098.52 66.64 C 1096.87 70.48 1098.66 74.66 1099.60 78.46 C 1101.58 73.66 1102.71 67.87 1107.63 65.09 C 1106.21 70.27 1103.16 74.83 1101.78 80.02 C 1106.23 74.23 1110.44 68.04 1112.03 60.77 C 1106.75 59.29 1101.48 62.36 1098.52 66.64 M 1174.94 60.77 C 1176.53 68.03 1180.74 74.23 1185.20 80.02 C 1183.80 74.83 1180.73 70.28 1179.35 65.07 C 1184.22 67.90 1185.45 73.64 1187.31 78.49 C 1188.31 74.70 1190.01 70.53 1188.48 66.65 C 1185.48 62.40 1180.24 59.29 1174.94 60.77 M 1193.87 77.64 C 1196.40 77.16 1199.32 75.65 1199.76 72.83 C 1200.53 69.01 1200.72 65.07 1200.35 61.19 C 1197.01 65.97 1192.58 71.43 1193.87 77.64 Z" />
</g>
</svg>
