<?xml version="1.0" encoding="UTF-8" ?>
<!DOCTYPE svg PUBLIC "-//W3C//DTD SVG 1.1//EN" "http://www.w3.org/Graphics/SVG/1.1/DTD/svg11.dtd">
<svg width="2362pt" height="94pt" viewBox="0 0 2362 94" version="1.1" xmlns="http://www.w3.org/2000/svg">
<g id="#fefefeff">
</g>
<g id="#010101ff">
<path fill="#010101" opacity="1.00" d=" M 1339.41 11.38 C 1340.28 10.68 1341.48 9.83 1342.66 10.44 C 1345.11 11.39 1347.11 13.17 1349.17 14.78 C 1351.52 16.77 1354.33 18.64 1355.25 21.77 C 1356.69 26.20 1357.35 31.56 1354.59 35.63 C 1349.54 42.91 1343.65 49.63 1336.71 55.17 C 1340.94 58.25 1345.49 61.24 1350.72 62.27 C 1358.37 63.87 1366.15 65.10 1374.00 65.00 C 1660.33 65.00 1946.66 65.00 2233.00 65.00 C 2248.00 65.25 2263.01 64.76 2278.02 65.11 C 2291.00 64.94 2303.99 64.96 2316.98 65.11 C 2331.98 64.74 2346.99 65.30 2362.00 64.96 L 2362.00 74.99 C 1631.67 74.95 901.34 75.02 171.01 74.90 C 147.68 75.14 124.34 74.88 101.00 74.89 C 67.33 75.18 33.67 74.75 0.00 74.99 L 0.00 65.00 C 323.67 65.00 647.33 65.00 971.00 65.00 C 977.35 65.03 983.75 65.26 990.03 64.08 C 997.45 63.23 1005.43 62.20 1011.33 57.19 C 1007.36 53.65 1003.19 50.28 999.91 46.06 C 997.11 42.47 993.75 39.14 992.04 34.86 C 990.93 30.09 991.57 24.52 994.57 20.53 C 998.08 17.38 1001.60 13.92 1006.02 12.09 C 1010.39 13.65 1013.07 18.04 1014.97 22.06 C 1017.06 27.08 1020.47 31.41 1022.56 36.43 C 1024.50 40.95 1025.80 45.74 1028.01 50.15 C 1028.54 51.32 1029.57 52.15 1030.48 53.04 C 1033.12 47.22 1033.23 40.74 1034.67 34.61 C 1034.81 33.18 1036.06 32.39 1037.10 31.57 C 1037.32 39.11 1036.59 46.64 1036.45 54.17 C 1037.80 52.97 1039.21 51.77 1040.16 50.20 C 1046.26 40.13 1050.34 29.03 1055.86 18.66 C 1052.44 20.60 1049.41 23.25 1045.77 24.79 C 1042.71 25.12 1040.80 21.89 1038.59 20.25 C 1035.72 21.07 1032.93 22.08 1030.17 23.16 C 1025.57 25.20 1020.82 22.41 1016.27 21.62 C 1014.95 19.03 1013.74 16.37 1012.92 13.58 C 1014.22 13.63 1015.52 13.75 1016.83 13.92 C 1020.55 15.55 1022.54 19.49 1026.04 21.43 C 1030.36 21.41 1034.10 18.79 1037.97 17.15 C 1040.05 19.06 1042.16 20.94 1044.26 22.85 C 1047.50 20.78 1050.93 19.04 1054.27 17.12 C 1056.32 15.96 1058.14 14.37 1060.36 13.49 C 1062.38 13.06 1064.47 13.23 1066.54 13.18 C 1068.14 16.38 1069.46 20.42 1073.05 21.86 C 1075.73 20.90 1078.04 18.78 1080.97 18.61 C 1084.28 19.20 1087.07 21.34 1090.00 22.89 C 1092.92 21.33 1095.70 19.22 1099.03 18.61 C 1102.00 18.86 1104.50 20.77 1107.10 22.11 C 1110.24 19.97 1112.02 16.59 1113.46 13.18 C 1115.51 13.23 1117.60 13.07 1119.64 13.49 C 1121.84 14.37 1123.67 15.96 1125.73 17.12 C 1129.05 19.04 1132.48 20.78 1135.73 22.85 C 1137.83 20.96 1139.94 19.06 1142.02 17.14 C 1145.88 18.78 1149.63 21.42 1153.96 21.42 C 1158.38 18.86 1161.08 12.62 1167.09 13.58 C 1166.24 16.37 1165.04 19.03 1163.73 21.62 C 1159.17 22.41 1154.42 25.20 1149.83 23.16 C 1147.06 22.08 1144.26 21.06 1141.41 20.26 C 1139.19 21.90 1137.28 25.10 1134.23 24.79 C 1130.59 23.26 1127.56 20.62 1124.16 18.66 C 1129.68 29.03 1133.72 40.14 1139.84 50.20 C 1140.78 51.77 1142.18 52.97 1143.54 54.17 C 1143.41 46.63 1142.66 39.11 1142.91 31.56 C 1143.89 32.40 1145.16 33.18 1145.33 34.61 C 1146.77 40.74 1146.88 47.22 1149.52 53.04 C 1150.42 52.16 1151.44 51.33 1151.99 50.16 C 1154.17 45.74 1155.47 40.95 1157.43 36.44 C 1159.53 31.42 1162.93 27.08 1165.03 22.06 C 1166.82 17.77 1169.90 14.08 1173.87 11.63 C 1178.01 14.19 1181.93 17.14 1185.44 20.53 C 1187.77 23.44 1188.45 27.37 1188.53 31.02 C 1188.68 36.45 1184.52 40.47 1181.42 44.44 C 1177.12 49.81 1171.78 54.16 1166.89 58.95 C 1174.18 59.56 1181.61 59.41 1188.76 57.71 C 1192.80 56.74 1196.91 56.21 1201.04 55.78 C 1200.26 52.11 1198.21 48.97 1196.02 46.00 C 1192.29 40.98 1191.33 34.63 1190.39 28.61 C 1190.15 26.27 1189.64 23.77 1190.54 21.52 C 1191.85 19.57 1194.11 18.64 1196.00 17.36 C 1200.78 18.91 1204.72 22.07 1208.18 25.63 C 1210.92 22.89 1213.55 19.62 1217.39 18.42 C 1221.02 17.77 1223.67 20.95 1226.20 23.03 C 1229.30 20.53 1231.12 16.91 1232.67 13.33 C 1234.97 13.32 1237.33 13.03 1239.60 13.63 C 1245.05 15.31 1249.35 19.69 1255.00 20.80 C 1257.57 20.38 1259.59 18.41 1261.82 17.15 C 1263.58 18.38 1265.26 19.80 1267.30 20.59 C 1272.42 20.58 1276.16 16.71 1280.14 14.09 C 1283.64 13.53 1287.24 13.61 1290.70 12.71 C 1294.26 11.76 1297.94 12.77 1301.41 13.71 C 1303.52 14.27 1304.98 16.00 1306.48 17.48 C 1309.42 20.59 1312.63 23.63 1314.35 27.65 C 1316.92 33.67 1318.50 40.06 1320.60 46.26 C 1323.28 41.42 1324.37 35.88 1327.07 31.04 C 1328.94 27.60 1331.14 24.35 1332.72 20.76 C 1334.25 17.21 1336.37 13.83 1339.41 11.38 M 1292.70 13.96 C 1291.85 16.32 1291.04 18.70 1289.95 20.97 C 1286.89 27.05 1285.55 33.97 1281.49 39.54 C 1279.05 42.44 1275.86 44.57 1272.78 46.71 C 1273.50 45.75 1274.25 44.80 1275.02 43.85 C 1276.54 38.70 1277.99 33.43 1280.79 28.80 C 1282.42 26.10 1284.22 23.48 1285.40 20.53 C 1280.61 23.95 1276.65 28.44 1273.08 33.10 C 1269.74 39.59 1266.91 46.74 1267.25 54.17 C 1268.62 53.15 1269.97 52.09 1271.33 51.04 C 1271.28 52.16 1271.18 54.40 1271.12 55.52 C 1272.87 55.42 1274.70 55.30 1276.18 54.20 C 1280.95 51.10 1285.69 47.78 1289.48 43.49 C 1294.16 38.22 1294.70 30.61 1293.75 23.95 C 1293.26 20.63 1293.61 17.21 1292.70 13.96 M 1340.38 17.36 C 1339.33 19.25 1338.02 20.97 1336.64 22.62 C 1333.35 26.53 1330.67 30.94 1328.59 35.60 C 1326.12 41.12 1323.21 46.70 1323.05 52.88 C 1324.92 52.32 1326.13 50.65 1327.72 49.57 C 1327.49 50.82 1327.27 52.07 1327.07 53.32 C 1328.35 53.37 1329.65 53.42 1330.97 53.47 C 1332.59 52.17 1334.95 52.95 1336.59 51.60 C 1338.12 50.53 1340.48 50.14 1341.38 48.43 L 1342.13 48.49 C 1345.48 45.65 1348.80 42.69 1351.24 38.98 C 1352.45 30.73 1350.24 22.48 1347.45 14.77 C 1346.06 18.80 1345.90 23.17 1344.03 27.02 C 1342.08 32.52 1338.84 37.59 1334.47 41.47 C 1331.88 43.60 1330.11 46.48 1327.97 49.00 C 1328.89 46.96 1330.00 45.00 1331.22 43.11 C 1333.88 37.36 1335.94 31.36 1338.67 25.65 C 1340.42 21.88 1342.19 18.11 1343.53 14.17 C 1341.75 14.30 1341.18 16.09 1340.38 17.36 M 1005.22 14.88 C 1005.18 15.65 1005.11 17.18 1005.07 17.95 C 1006.79 22.39 1008.92 26.66 1010.86 31.01 C 1014.28 38.98 1016.87 47.64 1022.98 54.08 C 1023.48 54.31 1024.47 54.78 1024.96 55.01 C 1024.78 47.99 1021.16 41.78 1018.47 35.48 C 1016.24 31.21 1013.62 27.14 1010.47 23.50 C 1008.23 20.95 1006.72 17.89 1005.22 14.88 M 1169.53 23.50 C 1165.57 28.13 1162.30 33.36 1159.94 38.98 C 1157.68 44.09 1155.14 49.30 1155.03 55.01 C 1155.53 54.78 1156.52 54.31 1157.02 54.08 C 1160.21 50.71 1162.46 46.57 1164.47 42.42 C 1167.58 34.10 1171.51 26.13 1174.93 17.94 C 1174.89 17.18 1174.82 15.65 1174.79 14.89 C 1173.26 17.89 1171.75 20.95 1169.53 23.50 M 1067.23 24.03 C 1067.48 27.46 1068.42 31.27 1066.44 34.38 C 1064.60 37.54 1062.59 40.60 1060.79 43.79 C 1057.69 47.25 1054.49 50.86 1050.74 53.72 C 1049.62 55.27 1047.85 56.07 1047.04 57.90 C 1048.36 57.67 1049.71 57.44 1051.06 57.21 C 1051.19 57.79 1051.44 58.96 1051.57 59.54 C 1059.14 60.16 1066.87 58.99 1073.78 55.78 C 1075.90 55.50 1078.04 55.31 1080.19 55.11 C 1077.85 49.15 1072.97 44.39 1071.69 38.00 C 1071.79 37.25 1072.00 35.76 1072.10 35.01 C 1073.33 35.19 1074.66 35.51 1075.30 36.72 C 1078.70 41.34 1079.92 47.12 1083.07 51.89 C 1083.28 51.03 1083.72 49.31 1083.93 48.44 C 1084.73 48.45 1085.53 48.46 1086.36 48.47 C 1086.41 49.83 1086.49 51.19 1086.58 52.55 C 1088.83 52.67 1091.09 52.67 1093.36 52.55 C 1093.68 51.01 1093.31 49.26 1094.28 47.91 C 1094.72 48.11 1095.60 48.50 1096.04 48.70 C 1096.27 49.49 1096.73 51.08 1096.95 51.88 C 1100.07 47.10 1101.31 41.33 1104.70 36.72 C 1105.33 35.53 1106.63 35.18 1107.89 35.01 C 1108.00 35.76 1108.21 37.26 1108.31 38.01 C 1107.02 44.39 1102.15 49.15 1099.82 55.10 C 1102.95 55.23 1106.09 55.69 1109.01 56.90 C 1115.03 59.28 1121.55 60.02 1127.99 59.56 C 1128.28 59.19 1128.88 58.44 1129.17 58.07 C 1130.82 58.19 1132.57 58.48 1134.19 57.90 L 1132.65 57.39 L 1132.57 56.40 L 1131.99 56.48 C 1129.73 54.25 1127.36 52.16 1124.96 49.99 C 1122.90 48.39 1121.66 45.94 1119.57 44.40 C 1117.63 41.02 1115.53 37.74 1113.55 34.38 C 1111.57 31.27 1112.50 27.46 1112.78 24.03 C 1113.76 21.17 1114.57 18.20 1114.41 15.15 C 1111.75 19.25 1110.04 23.90 1107.10 27.84 C 1106.38 26.54 1105.96 25.07 1104.98 23.95 C 1103.37 22.87 1101.60 22.02 1099.83 21.29 C 1096.19 22.48 1092.06 23.65 1090.00 27.15 C 1088.26 24.21 1084.98 22.92 1081.95 21.73 C 1077.95 21.14 1073.88 23.87 1072.90 27.83 C 1069.95 23.90 1068.25 19.24 1065.58 15.15 C 1065.42 18.20 1066.23 21.17 1067.23 24.03 M 1280.20 19.03 C 1282.16 18.08 1284.13 17.13 1286.09 16.13 C 1284.05 16.88 1279.73 15.64 1280.20 19.03 M 1000.56 16.73 C 997.83 24.19 995.81 32.12 996.54 40.13 C 998.61 44.43 1002.37 47.44 1005.89 50.50 L 1006.61 50.41 C 1010.20 54.11 1015.99 55.65 1021.20 55.41 C 1020.58 53.62 1020.04 51.79 1019.10 50.14 C 1016.21 44.79 1010.51 41.74 1007.57 36.42 C 1003.70 30.48 1002.17 23.52 1000.56 16.73 M 1172.44 36.42 C 1169.49 41.74 1163.79 44.79 1160.90 50.14 C 1159.96 51.79 1159.39 53.61 1158.80 55.40 C 1164.01 55.68 1169.77 54.11 1173.38 50.42 L 1174.11 50.51 C 1177.63 47.44 1181.38 44.43 1183.46 40.13 C 1184.18 32.12 1182.17 24.19 1179.44 16.72 C 1177.82 23.51 1176.30 30.47 1172.44 36.42 M 1225.94 29.12 C 1225.39 26.00 1223.75 23.37 1221.31 21.41 C 1216.47 20.40 1212.21 23.30 1208.47 25.93 C 1207.92 35.46 1209.42 45.14 1212.89 54.04 C 1219.54 48.73 1219.04 38.49 1226.00 33.34 C 1226.38 35.82 1226.71 38.43 1225.78 40.84 C 1224.30 46.07 1219.54 49.77 1218.48 55.10 C 1223.01 55.26 1226.98 57.70 1231.38 58.52 C 1235.96 59.68 1240.71 59.43 1245.39 59.25 C 1242.78 55.69 1239.47 52.60 1237.49 48.62 C 1235.99 46.15 1235.63 43.19 1234.50 40.56 C 1233.10 37.16 1231.21 33.77 1231.21 29.99 C 1231.08 25.43 1232.68 21.07 1233.22 16.58 C 1230.72 20.72 1228.86 25.24 1225.94 29.12 M 1238.36 16.52 C 1237.78 20.63 1237.36 24.76 1236.69 28.85 C 1236.22 32.13 1235.61 35.67 1237.10 38.78 C 1237.80 40.38 1239.49 41.46 1239.60 43.30 C 1238.88 42.77 1237.43 41.71 1236.70 41.19 C 1236.68 41.95 1236.63 43.48 1236.61 44.25 L 1237.31 44.66 C 1240.32 50.02 1244.42 56.00 1251.02 56.88 C 1249.37 53.71 1247.66 50.46 1244.92 48.09 C 1243.73 46.71 1241.96 45.81 1241.20 44.13 C 1241.51 44.19 1242.14 44.31 1242.45 44.37 C 1246.49 48.28 1250.56 53.40 1256.63 53.66 C 1256.07 51.29 1255.49 48.88 1254.13 46.83 C 1249.32 39.09 1244.52 31.26 1241.22 22.74 C 1240.38 20.61 1239.43 18.54 1238.36 16.52 M 1056.31 26.31 C 1053.97 32.88 1050.89 39.20 1046.98 44.98 C 1044.70 48.31 1042.71 51.89 1041.84 55.87 C 1048.68 52.44 1055.49 48.30 1060.22 42.12 C 1061.86 39.26 1063.22 36.00 1062.47 32.64 C 1061.42 27.75 1060.31 22.84 1060.50 17.80 C 1058.66 20.40 1057.34 23.31 1056.31 26.31 M 1119.50 17.79 C 1119.68 22.84 1118.57 27.75 1117.53 32.65 C 1116.77 36.00 1118.13 39.26 1119.77 42.12 C 1124.51 48.29 1131.28 52.48 1138.17 55.88 C 1137.41 52.89 1136.28 49.98 1134.57 47.40 C 1131.50 42.68 1128.45 37.91 1126.24 32.72 C 1123.92 27.77 1122.77 22.26 1119.50 17.79 M 1243.89 18.08 C 1243.97 18.47 1244.12 19.25 1244.20 19.64 C 1250.32 29.92 1254.82 41.06 1260.78 51.43 C 1261.26 51.52 1262.22 51.71 1262.70 51.80 C 1265.13 46.24 1266.45 40.30 1268.68 34.67 C 1270.98 29.01 1276.45 25.61 1279.32 20.31 C 1277.17 20.79 1275.04 21.31 1272.91 21.80 C 1271.43 22.78 1269.81 23.50 1268.09 23.87 C 1265.74 23.24 1263.95 21.47 1261.80 20.43 C 1258.56 21.02 1255.65 24.24 1252.12 22.96 C 1248.86 22.20 1246.94 19.05 1243.89 18.08 M 1298.27 18.56 C 1298.07 24.44 1299.90 30.61 1297.31 36.21 C 1294.69 39.93 1292.25 43.81 1289.04 47.05 C 1286.18 49.93 1283.00 52.46 1279.87 55.02 C 1279.65 55.49 1279.22 56.43 1279.00 56.90 C 1281.89 56.72 1284.77 56.29 1287.62 55.73 C 1288.58 56.63 1289.48 57.84 1290.97 57.84 C 1298.85 58.88 1306.89 57.71 1314.54 55.73 C 1314.78 54.47 1315.05 53.20 1315.32 51.94 C 1316.66 52.97 1318.00 54.00 1319.40 54.96 C 1318.87 46.33 1315.77 38.02 1311.34 30.65 C 1308.65 26.29 1306.25 21.42 1301.79 18.57 C 1303.77 23.77 1306.34 28.74 1307.92 34.10 C 1309.40 38.31 1310.04 42.81 1311.99 46.85 C 1309.82 45.06 1307.00 43.97 1305.50 41.46 C 1300.51 34.78 1301.90 25.77 1298.27 18.56 M 1192.55 22.79 C 1192.57 24.56 1192.59 26.33 1192.62 28.10 C 1195.98 37.37 1200.98 45.99 1206.59 54.08 C 1207.92 46.75 1206.95 39.31 1206.02 32.00 C 1205.70 29.89 1205.44 27.63 1204.13 25.86 C 1201.98 22.99 1198.75 21.24 1195.82 19.30 C 1194.70 20.45 1193.62 21.62 1192.55 22.79 Z" />
<path fill="#010101" opacity="1.00" d=" M 1329.96 12.94 C 1331.46 12.36 1332.96 11.79 1334.51 11.23 C 1334.53 13.20 1334.83 16.30 1332.36 16.50 C 1332.43 17.26 1332.57 18.77 1332.63 19.53 C 1330.02 20.15 1327.37 20.57 1324.70 20.64 C 1322.68 22.00 1320.59 23.24 1318.40 24.27 C 1315.44 21.64 1312.37 19.13 1309.12 16.87 C 1308.04 16.26 1307.32 15.29 1307.14 14.06 C 1311.25 15.21 1314.81 17.68 1317.88 20.60 C 1318.89 20.52 1320.02 20.65 1320.93 20.02 C 1323.68 18.43 1326.47 16.88 1329.14 15.14 C 1329.34 14.59 1329.75 13.49 1329.96 12.94 Z" />
<path fill="#010101" opacity="1.00" d=" M 1052.98 56.20 C 1054.70 53.81 1056.79 51.76 1059.18 50.05 C 1057.70 52.61 1055.67 54.88 1052.98 56.20 Z" />
<path fill="#010101" opacity="1.00" d=" M 1120.82 50.04 C 1123.12 51.76 1125.15 53.78 1127.05 55.93 C 1126.50 55.76 1125.40 55.42 1124.85 55.25 C 1123.40 53.59 1122.02 51.88 1120.82 50.04 Z" />
</g>
</svg>
