<?xml version="1.0" encoding="UTF-8" ?>
<!DOCTYPE svg PUBLIC "-//W3C//DTD SVG 1.1//EN" "http://www.w3.org/Graphics/SVG/1.1/DTD/svg11.dtd">
<svg width="4724pt" height="72pt" viewBox="0 0 4724 72" version="1.1" xmlns="http://www.w3.org/2000/svg">
<g id="#020202ff">
<path fill="#020202" opacity="1.00" d=" M 0.00 0.00 L 0.10 0.00 C 0.08 0.03 0.03 0.08 0.00 0.10 L 0.00 0.00 Z" />
<path fill="black" opacity="1.00" d=" M 2511.36 17.39 C 2514.51 11.48 2516.92 3.95 2523.97 1.61 C 2524.03 6.45 2520.96 10.48 2518.08 14.07 C 2513.95 18.90 2510.83 24.49 2508.34 30.31 C 2506.31 35.15 2503.69 40.11 2504.35 45.53 C 2511.51 39.44 2514.23 30.14 2517.82 21.82 C 2520.30 15.59 2524.15 9.79 2524.81 2.96 C 2528.27 5.17 2531.53 7.73 2534.55 10.53 C 2537.32 14.65 2538.09 20.07 2536.98 24.87 C 2535.07 29.33 2531.59 32.87 2528.59 36.59 C 2525.27 40.69 2521.32 44.19 2517.13 47.35 C 2520.77 49.15 2524.14 51.48 2527.84 53.21 C 2536.66 55.64 2545.82 57.06 2555.00 57.00 C 3278.00 57.00 4001.00 57.00 4724.00 57.00 L 4724.00 66.95 C 4617.00 66.85 4510.00 66.91 4403.00 66.87 C 4295.34 67.15 4187.67 66.93 4080.00 66.99 C 3328.34 66.98 2576.67 67.01 1825.01 66.96 C 1608.67 66.97 1392.33 67.03 1176.00 66.92 C 999.00 66.76 822.00 67.02 645.00 67.00 C 430.00 67.00 215.00 66.99 0.00 67.00 L 0.00 56.99 C 721.01 57.01 1442.01 57.00 2163.02 56.99 C 2173.22 55.90 2184.04 55.31 2192.86 49.40 C 2185.69 43.85 2179.53 37.06 2174.40 29.61 C 2171.84 26.05 2172.26 21.31 2173.26 17.29 C 2174.56 11.22 2180.72 8.40 2185.21 4.91 C 2185.73 11.52 2189.46 17.13 2191.88 23.12 C 2195.61 31.69 2198.36 41.30 2205.72 47.60 C 2206.14 39.89 2201.82 33.03 2198.77 26.25 C 2195.22 18.18 2186.70 12.75 2185.72 3.53 C 2190.91 5.12 2194.26 9.96 2196.26 14.75 C 2197.94 18.86 2200.74 22.38 2202.64 26.38 C 2205.69 32.48 2206.79 39.51 2211.07 44.99 C 2214.42 39.43 2214.13 32.73 2215.65 26.60 C 2215.86 25.17 2217.14 24.34 2218.10 23.37 C 2218.35 31.14 2217.46 38.89 2217.58 46.66 C 2226.68 36.00 2230.20 22.00 2237.32 10.12 C 2233.55 12.46 2230.19 15.59 2226.00 17.12 C 2223.30 16.16 2221.45 13.84 2219.29 12.10 C 2216.57 13.14 2213.85 14.17 2211.15 15.20 C 2206.61 17.27 2201.90 14.39 2197.40 13.61 C 2195.89 11.04 2194.74 8.28 2193.80 5.47 C 2199.85 4.64 2202.60 10.82 2207.05 13.42 C 2211.36 13.47 2215.17 10.85 2218.93 8.99 C 2221.07 11.13 2223.29 13.22 2225.72 15.05 C 2229.52 11.44 2234.72 10.02 2238.85 6.86 C 2241.24 4.98 2244.44 5.35 2247.29 4.83 C 2248.80 8.56 2250.89 12.13 2254.34 14.40 C 2256.59 12.68 2258.95 10.50 2262.01 10.60 C 2265.50 11.17 2268.51 13.31 2271.00 15.75 C 2273.47 13.30 2276.49 11.16 2280.01 10.60 C 2283.01 10.64 2285.28 12.99 2288.01 13.98 C 2291.56 12.14 2293.08 8.25 2294.71 4.84 C 2297.53 5.35 2300.73 4.98 2303.14 6.86 C 2307.26 10.03 2312.46 11.44 2316.28 15.05 C 2318.69 13.22 2320.90 11.13 2323.05 8.98 C 2326.81 10.84 2330.61 13.46 2334.95 13.42 C 2338.40 11.56 2340.36 7.65 2344.00 5.95 C 2345.15 5.75 2347.01 4.86 2347.87 6.03 C 2347.33 8.79 2345.75 11.17 2344.74 13.75 C 2341.97 14.26 2339.25 14.93 2336.56 15.65 C 2331.31 17.28 2326.71 11.68 2321.48 13.33 C 2319.58 14.61 2317.88 16.13 2316.05 17.47 C 2312.08 15.30 2308.41 12.66 2304.70 10.12 C 2311.77 22.03 2315.36 35.99 2324.42 46.69 C 2324.53 38.91 2323.65 31.14 2323.90 23.37 C 2324.78 24.34 2326.12 25.16 2326.35 26.61 C 2327.80 32.87 2327.76 39.58 2330.95 45.34 C 2334.32 40.41 2335.96 34.62 2338.13 29.11 C 2340.27 23.55 2344.22 18.93 2346.36 13.36 C 2348.42 9.10 2351.61 4.83 2356.36 3.41 C 2355.77 8.48 2352.87 12.85 2349.63 16.62 C 2345.52 21.50 2342.49 27.17 2340.03 33.02 C 2338.08 37.65 2335.73 42.41 2336.30 47.59 C 2343.43 41.46 2346.24 32.18 2349.82 23.82 C 2352.27 17.57 2356.21 11.78 2356.79 4.92 C 2361.27 8.41 2367.41 11.22 2368.75 17.28 C 2369.76 21.08 2370.11 25.51 2367.98 29.00 C 2362.55 37.38 2355.35 44.42 2347.75 50.82 C 2355.34 50.85 2363.07 51.51 2370.51 49.58 C 2374.25 48.52 2378.12 48.19 2381.99 47.75 C 2381.21 42.74 2377.41 39.19 2375.09 34.92 C 2372.46 29.31 2371.65 23.06 2371.03 16.97 C 2370.24 12.58 2375.51 8.84 2379.50 10.40 C 2383.34 11.93 2386.48 14.78 2389.18 17.86 C 2391.67 14.77 2394.55 11.72 2398.40 10.37 C 2402.07 9.81 2404.93 12.82 2407.18 15.32 C 2409.09 13.17 2411.04 10.98 2412.29 8.34 C 2413.12 6.86 2413.73 4.31 2416.02 5.12 C 2423.64 4.66 2428.94 11.35 2436.01 12.85 C 2438.70 12.56 2440.60 10.25 2442.87 8.94 C 2444.73 10.36 2446.43 12.49 2448.95 12.67 C 2452.56 11.94 2456.06 10.35 2458.71 7.73 C 2461.68 4.57 2466.43 6.31 2470.19 5.04 C 2474.85 3.40 2480.02 4.79 2484.45 6.55 C 2488.97 11.06 2494.12 15.49 2496.23 21.75 C 2498.23 27.39 2500.01 33.11 2501.77 38.83 C 2504.49 31.49 2506.85 23.90 2511.36 17.39 M 2473.76 5.83 C 2472.49 10.26 2470.06 14.21 2468.56 18.54 C 2467.02 22.81 2465.45 27.13 2462.94 30.93 C 2461.08 33.77 2457.98 35.35 2455.54 37.56 C 2453.20 40.11 2452.06 43.50 2451.90 46.91 C 2456.64 47.77 2460.12 44.17 2463.67 41.67 C 2468.20 38.21 2472.86 34.09 2474.29 28.32 C 2476.12 20.91 2474.58 13.26 2473.76 5.83 M 2407.57 20.80 C 2407.11 24.22 2407.68 27.73 2407.21 31.16 C 2406.16 37.02 2401.17 41.00 2399.55 46.63 C 2404.52 47.66 2409.06 50.25 2414.17 50.79 C 2418.19 51.14 2422.25 50.84 2426.31 50.91 C 2424.25 48.55 2422.13 46.23 2420.36 43.66 C 2416.87 38.87 2416.05 32.84 2413.42 27.63 C 2410.44 20.70 2413.54 13.37 2415.31 6.58 C 2412.45 11.16 2410.17 16.08 2407.57 20.80 M 2248.45 24.10 C 2247.46 27.01 2245.43 29.36 2244.01 32.04 C 2240.02 39.64 2232.67 44.51 2226.83 50.54 C 2232.65 50.31 2235.97 45.23 2240.17 41.99 C 2238.46 45.76 2234.49 47.64 2232.01 50.77 C 2236.55 50.94 2241.14 51.18 2245.69 50.71 C 2250.95 49.62 2255.87 47.28 2261.24 46.55 C 2258.43 41.34 2254.59 36.64 2252.83 30.92 C 2252.11 29.28 2253.34 27.75 2253.87 26.27 C 2259.31 30.78 2260.30 38.15 2263.99 43.84 C 2264.64 42.27 2265.25 40.67 2266.02 39.13 C 2266.68 40.77 2267.22 42.48 2267.99 44.10 C 2268.98 45.76 2271.21 45.11 2272.83 45.11 C 2274.90 43.91 2274.84 41.04 2275.98 39.13 C 2276.69 40.67 2277.30 42.28 2278.01 43.85 C 2281.68 38.15 2282.69 30.78 2288.14 26.27 C 2288.59 27.75 2289.83 29.28 2289.17 30.91 C 2287.40 36.63 2283.57 41.34 2280.77 46.54 C 2286.09 47.28 2291.00 49.59 2296.25 50.69 C 2300.80 51.18 2305.40 50.94 2309.99 50.77 C 2307.32 47.66 2303.51 45.56 2301.64 41.80 C 2303.84 43.42 2305.67 45.48 2307.62 47.40 C 2309.26 49.32 2311.99 49.52 2314.25 50.37 C 2311.39 46.08 2306.89 43.31 2303.53 39.47 C 2299.64 35.81 2297.47 30.87 2294.60 26.47 C 2290.97 20.49 2296.01 13.91 2294.68 7.62 C 2292.84 12.08 2290.50 16.30 2287.94 20.38 C 2287.56 16.23 2283.87 13.79 2279.97 13.51 C 2276.51 14.42 2273.06 16.11 2271.00 19.12 C 2268.91 16.11 2265.47 14.42 2262.04 13.50 C 2258.12 13.79 2254.42 16.22 2254.06 20.38 C 2251.49 16.30 2249.14 12.09 2247.32 7.62 C 2246.17 13.19 2249.75 18.53 2248.45 24.10 M 2456.31 13.28 C 2453.72 13.74 2451.54 15.34 2449.04 15.91 C 2446.48 15.14 2444.45 13.34 2442.24 11.97 C 2439.86 13.76 2437.14 15.50 2434.05 15.24 C 2430.05 14.23 2427.20 11.08 2423.87 8.90 C 2426.70 14.18 2429.55 19.46 2432.23 24.83 C 2435.84 31.43 2438.33 38.69 2442.99 44.69 C 2446.18 39.09 2447.25 32.63 2449.65 26.71 C 2451.89 21.30 2456.92 17.89 2459.95 13.02 C 2461.35 10.61 2464.15 9.66 2466.24 7.96 C 2461.77 7.50 2460.40 12.84 2456.31 13.28 M 2528.18 7.21 C 2526.48 16.86 2523.08 26.83 2515.50 33.46 C 2511.97 36.51 2509.10 40.37 2507.89 44.91 C 2512.38 45.10 2517.13 44.70 2520.85 41.86 C 2525.89 38.18 2532.39 34.12 2532.51 27.11 C 2532.59 20.33 2531.27 13.29 2528.18 7.21 M 2419.31 8.50 C 2418.75 14.36 2417.61 20.15 2417.14 26.02 C 2416.79 30.27 2419.63 33.76 2422.85 36.15 C 2427.33 39.70 2431.19 45.50 2437.61 44.96 C 2436.06 38.72 2431.55 33.86 2428.73 28.21 C 2424.88 21.98 2422.63 14.97 2419.31 8.50 M 2478.68 9.41 C 2478.53 9.94 2478.23 11.00 2478.08 11.54 C 2479.57 11.42 2481.07 11.02 2482.62 11.22 C 2486.23 17.54 2488.58 24.51 2490.49 31.52 C 2491.38 34.90 2492.19 38.57 2494.96 40.97 C 2496.45 43.27 2498.00 45.56 2500.19 47.29 C 2500.23 37.27 2495.67 27.86 2490.47 19.52 C 2487.70 15.05 2484.58 9.65 2478.68 9.41 M 2178.72 34.25 C 2181.65 38.59 2185.98 41.85 2190.37 44.63 C 2193.83 46.95 2198.12 46.98 2202.15 46.92 C 2200.85 42.40 2198.03 38.51 2194.51 35.46 C 2186.89 28.82 2183.49 18.79 2181.81 9.12 C 2178.46 16.81 2175.73 26.05 2178.72 34.25 M 2235.04 24.06 C 2231.60 32.79 2225.13 39.88 2221.90 48.71 C 2229.91 43.83 2239.42 39.38 2243.21 30.15 C 2244.85 23.29 2240.35 16.72 2241.71 9.78 C 2238.15 13.80 2237.33 19.34 2235.04 24.06 M 2300.29 9.77 C 2301.64 17.11 2296.65 24.41 2299.44 31.53 C 2303.59 39.95 2312.50 44.03 2320.10 48.71 C 2316.86 39.88 2310.39 32.79 2306.95 24.06 C 2304.66 19.34 2303.83 13.81 2300.29 9.77 M 2360.20 9.10 C 2359.00 15.36 2357.44 21.63 2354.17 27.16 C 2350.46 34.57 2341.75 38.42 2339.85 46.92 C 2344.35 47.12 2349.12 46.71 2352.85 43.88 C 2358.17 40.03 2365.02 35.52 2364.63 28.06 C 2364.25 21.60 2363.15 14.93 2360.20 9.10 M 2374.12 15.13 C 2373.92 18.59 2373.90 22.25 2375.65 25.37 C 2379.13 32.53 2382.86 39.66 2387.67 46.05 C 2388.92 38.16 2387.81 30.18 2386.78 22.33 C 2386.26 16.99 2381.19 13.89 2376.96 11.53 C 2375.44 12.09 2374.01 13.41 2374.12 15.13 M 2452.41 28.42 C 2449.92 34.27 2447.80 40.49 2448.15 46.93 C 2453.39 41.33 2456.86 34.27 2458.90 26.91 C 2460.41 21.23 2465.28 17.12 2466.72 11.51 C 2461.65 16.87 2455.47 21.51 2452.41 28.42 M 2397.55 13.45 C 2394.63 14.80 2390.93 15.83 2389.48 18.95 C 2388.93 28.25 2390.62 37.68 2394.01 46.35 C 2399.43 41.29 2400.00 33.30 2404.61 27.68 C 2407.42 24.67 2407.15 20.05 2405.46 16.54 C 2403.50 14.48 2400.51 11.71 2397.55 13.45 M 2480.30 14.33 C 2479.98 17.16 2479.86 20.00 2479.69 22.84 C 2479.49 27.21 2476.53 30.73 2474.17 34.17 C 2470.32 39.58 2464.97 43.59 2459.96 47.83 C 2462.28 49.68 2465.55 48.18 2468.23 49.15 C 2476.22 51.14 2484.56 50.08 2492.54 48.56 C 2493.56 48.05 2495.68 48.22 2495.77 46.69 C 2496.93 42.89 2493.43 40.28 2491.35 37.66 C 2487.02 35.53 2484.77 31.05 2483.30 26.68 C 2482.12 22.61 2482.23 18.17 2480.30 14.33 M 2417.32 33.29 C 2419.17 40.75 2424.96 47.08 2432.23 49.59 C 2429.37 42.66 2423.77 36.95 2417.32 33.29 Z" />
<path fill="#020202" opacity="1.00" d=" M 2508.43 8.43 C 2510.66 6.26 2512.41 3.05 2516.08 3.46 C 2515.36 6.37 2513.99 9.04 2512.67 11.70 C 2510.37 12.39 2507.98 12.39 2505.66 12.71 C 2503.62 13.80 2501.77 15.17 2499.88 16.44 C 2495.89 12.96 2491.24 10.20 2487.59 6.40 C 2492.83 6.51 2496.27 11.01 2500.67 13.21 C 2502.95 11.17 2505.61 9.65 2508.43 8.43 Z" />
</g>
<g id="#fefefeff">
<path fill="none" opacity="1.00" d=" M 0.10 0.00 L 4724.00 0.00 L 4724.00 57.00 C 4001.00 57.00 3278.00 57.00 2555.00 57.00 C 2545.82 57.06 2536.66 55.64 2527.84 53.21 C 2524.14 51.48 2520.77 49.15 2517.13 47.35 C 2521.32 44.19 2525.27 40.69 2528.59 36.59 C 2531.59 32.87 2535.07 29.33 2536.98 24.87 C 2538.09 20.07 2537.32 14.65 2534.55 10.53 C 2531.53 7.73 2528.27 5.17 2524.81 2.96 C 2524.15 9.79 2520.30 15.59 2517.82 21.82 C 2514.23 30.14 2511.51 39.44 2504.35 45.53 C 2503.69 40.11 2506.31 35.15 2508.34 30.31 C 2510.83 24.49 2513.95 18.90 2518.08 14.07 C 2520.96 10.48 2524.03 6.45 2523.97 1.61 C 2516.92 3.95 2514.51 11.48 2511.36 17.39 C 2506.85 23.90 2504.49 31.49 2501.77 38.83 C 2500.01 33.11 2498.23 27.39 2496.23 21.75 C 2494.12 15.49 2488.97 11.06 2484.45 6.55 C 2480.02 4.79 2474.85 3.40 2470.19 5.04 C 2466.43 6.31 2461.68 4.57 2458.71 7.73 C 2456.06 10.35 2452.56 11.94 2448.95 12.67 C 2446.43 12.49 2444.73 10.36 2442.87 8.94 C 2440.60 10.25 2438.70 12.56 2436.01 12.85 C 2428.94 11.35 2423.64 4.66 2416.02 5.12 C 2413.73 4.31 2413.12 6.86 2412.29 8.34 C 2411.04 10.98 2409.09 13.17 2407.18 15.32 C 2404.93 12.82 2402.07 9.81 2398.40 10.37 C 2394.55 11.72 2391.67 14.77 2389.18 17.86 C 2386.48 14.78 2383.34 11.93 2379.50 10.40 C 2375.51 8.84 2370.24 12.58 2371.03 16.97 C 2371.65 23.06 2372.46 29.31 2375.09 34.92 C 2377.41 39.19 2381.21 42.74 2381.99 47.75 C 2378.12 48.19 2374.25 48.52 2370.51 49.58 C 2363.07 51.51 2355.34 50.85 2347.75 50.82 C 2355.35 44.42 2362.55 37.38 2367.98 29.00 C 2370.11 25.51 2369.76 21.08 2368.75 17.28 C 2367.41 11.22 2361.27 8.41 2356.79 4.92 C 2356.21 11.78 2352.27 17.57 2349.82 23.82 C 2346.24 32.18 2343.43 41.46 2336.30 47.59 C 2335.73 42.41 2338.08 37.65 2340.03 33.02 C 2342.49 27.17 2345.52 21.50 2349.63 16.62 C 2352.87 12.85 2355.77 8.48 2356.36 3.41 C 2351.61 4.83 2348.42 9.10 2346.36 13.36 C 2344.22 18.93 2340.27 23.55 2338.13 29.11 C 2335.96 34.62 2334.32 40.41 2330.95 45.34 C 2327.76 39.58 2327.80 32.87 2326.35 26.61 C 2326.12 25.16 2324.78 24.34 2323.90 23.37 C 2323.65 31.14 2324.53 38.91 2324.42 46.69 C 2315.36 35.99 2311.77 22.03 2304.70 10.12 C 2308.41 12.66 2312.08 15.30 2316.05 17.47 C 2317.88 16.13 2319.58 14.61 2321.48 13.33 C 2326.71 11.68 2331.31 17.28 2336.56 15.65 C 2339.25 14.93 2341.97 14.26 2344.74 13.75 C 2345.75 11.17 2347.33 8.79 2347.87 6.03 C 2347.01 4.86 2345.15 5.75 2344.00 5.95 C 2340.36 7.65 2338.40 11.56 2334.95 13.42 C 2330.61 13.46 2326.81 10.84 2323.05 8.98 C 2320.90 11.13 2318.69 13.22 2316.28 15.05 C 2312.46 11.44 2307.26 10.03 2303.14 6.86 C 2300.73 4.98 2297.53 5.35 2294.71 4.84 C 2293.08 8.25 2291.56 12.14 2288.01 13.98 C 2285.28 12.99 2283.01 10.64 2280.01 10.60 C 2276.49 11.16 2273.47 13.30 2271.00 15.75 C 2268.51 13.31 2265.50 11.17 2262.01 10.60 C 2258.95 10.50 2256.59 12.68 2254.34 14.40 C 2250.89 12.13 2248.80 8.56 2247.29 4.83 C 2244.44 5.35 2241.24 4.98 2238.85 6.86 C 2234.72 10.02 2229.52 11.44 2225.72 15.05 C 2223.29 13.22 2221.07 11.13 2218.93 8.99 C 2215.17 10.85 2211.36 13.47 2207.05 13.42 C 2202.60 10.82 2199.85 4.64 2193.80 5.47 C 2194.74 8.28 2195.89 11.04 2197.40 13.61 C 2201.90 14.39 2206.61 17.27 2211.15 15.20 C 2213.85 14.17 2216.57 13.14 2219.29 12.10 C 2221.45 13.84 2223.30 16.16 2226.00 17.12 C 2230.19 15.59 2233.55 12.46 2237.32 10.12 C 2230.20 22.00 2226.68 36.00 2217.58 46.66 C 2217.46 38.89 2218.35 31.14 2218.10 23.37 C 2217.14 24.34 2215.86 25.17 2215.65 26.60 C 2214.13 32.73 2214.42 39.43 2211.07 44.99 C 2206.79 39.51 2205.69 32.48 2202.64 26.38 C 2200.74 22.38 2197.94 18.86 2196.26 14.75 C 2194.26 9.96 2190.91 5.12 2185.72 3.53 C 2186.70 12.75 2195.22 18.18 2198.77 26.25 C 2201.82 33.03 2206.14 39.89 2205.72 47.60 C 2198.36 41.30 2195.61 31.69 2191.88 23.12 C 2189.46 17.13 2185.73 11.52 2185.21 4.91 C 2180.72 8.40 2174.56 11.22 2173.26 17.29 C 2172.26 21.31 2171.84 26.05 2174.40 29.61 C 2179.53 37.06 2185.69 43.85 2192.86 49.40 C 2184.04 55.31 2173.22 55.90 2163.02 56.99 C 1442.01 57.00 721.01 57.01 0.00 56.99 L 0.00 0.10 C 0.03 0.08 0.08 0.03 0.10 0.00 M 2508.43 8.43 C 2505.61 9.65 2502.95 11.17 2500.67 13.21 C 2496.27 11.01 2492.83 6.51 2487.59 6.40 C 2491.24 10.20 2495.89 12.96 2499.88 16.44 C 2501.77 15.17 2503.62 13.80 2505.66 12.71 C 2507.98 12.39 2510.37 12.39 2512.67 11.70 C 2513.99 9.04 2515.36 6.37 2516.08 3.46 C 2512.41 3.05 2510.66 6.26 2508.43 8.43 Z" />
<path fill="#fefefe" opacity="1.00" d=" M 2473.76 5.83 C 2474.58 13.26 2476.12 20.91 2474.29 28.32 C 2472.86 34.09 2468.20 38.21 2463.67 41.67 C 2460.12 44.17 2456.64 47.77 2451.90 46.91 C 2452.06 43.50 2453.20 40.11 2455.54 37.56 C 2457.98 35.35 2461.08 33.77 2462.94 30.93 C 2465.45 27.13 2467.02 22.81 2468.56 18.54 C 2470.06 14.21 2472.49 10.26 2473.76 5.83 Z" />
<path fill="#fefefe" opacity="1.00" d=" M 2407.57 20.80 C 2410.17 16.08 2412.45 11.16 2415.31 6.58 C 2413.54 13.37 2410.44 20.70 2413.42 27.63 C 2416.05 32.84 2416.87 38.87 2420.36 43.66 C 2422.13 46.23 2424.25 48.55 2426.31 50.91 C 2422.25 50.84 2418.19 51.14 2414.17 50.79 C 2409.06 50.25 2404.52 47.66 2399.55 46.63 C 2401.17 41.00 2406.16 37.02 2407.21 31.16 C 2407.68 27.73 2407.11 24.22 2407.57 20.80 Z" />
<path fill="#fefefe" opacity="1.00" d=" M 2248.45 24.10 C 2249.75 18.53 2246.17 13.19 2247.32 7.62 C 2249.14 12.09 2251.49 16.30 2254.06 20.38 C 2254.42 16.22 2258.12 13.79 2262.04 13.50 C 2265.47 14.42 2268.91 16.11 2271.00 19.12 C 2273.06 16.11 2276.51 14.42 2279.97 13.51 C 2283.87 13.79 2287.56 16.23 2287.94 20.38 C 2290.50 16.30 2292.84 12.08 2294.68 7.62 C 2296.01 13.91 2290.97 20.49 2294.60 26.47 C 2297.47 30.87 2299.64 35.81 2303.53 39.47 C 2306.89 43.31 2311.39 46.08 2314.25 50.37 C 2311.99 49.52 2309.26 49.32 2307.62 47.40 C 2305.67 45.48 2303.84 43.42 2301.64 41.80 C 2303.51 45.56 2307.32 47.66 2309.99 50.77 C 2305.40 50.94 2300.80 51.18 2296.25 50.69 C 2291.00 49.59 2286.09 47.28 2280.77 46.54 C 2283.57 41.34 2287.40 36.63 2289.17 30.91 C 2289.83 29.28 2288.59 27.75 2288.14 26.27 C 2282.69 30.78 2281.68 38.15 2278.01 43.85 C 2277.30 42.28 2276.69 40.67 2275.98 39.13 C 2274.84 41.04 2274.90 43.91 2272.83 45.11 C 2271.21 45.11 2268.98 45.76 2267.99 44.10 C 2267.22 42.48 2266.68 40.77 2266.02 39.13 C 2265.25 40.67 2264.64 42.27 2263.99 43.84 C 2260.30 38.15 2259.31 30.78 2253.87 26.27 C 2253.34 27.75 2252.11 29.28 2252.83 30.92 C 2254.59 36.64 2258.43 41.34 2261.24 46.55 C 2255.87 47.28 2250.95 49.62 2245.69 50.71 C 2241.14 51.18 2236.55 50.94 2232.01 50.77 C 2234.49 47.64 2238.46 45.76 2240.17 41.99 C 2235.97 45.23 2232.65 50.31 2226.83 50.54 C 2232.67 44.51 2240.02 39.64 2244.01 32.04 C 2245.43 29.36 2247.46 27.01 2248.45 24.10 Z" />
<path fill="#fefefe" opacity="1.00" d=" M 2456.31 13.28 C 2460.40 12.84 2461.77 7.50 2466.24 7.96 C 2464.15 9.66 2461.35 10.61 2459.95 13.02 C 2456.92 17.89 2451.89 21.30 2449.65 26.71 C 2447.25 32.63 2446.18 39.09 2442.99 44.69 C 2438.33 38.69 2435.84 31.43 2432.23 24.83 C 2429.55 19.46 2426.70 14.18 2423.87 8.90 C 2427.20 11.08 2430.05 14.23 2434.05 15.24 C 2437.14 15.50 2439.86 13.76 2442.24 11.97 C 2444.45 13.34 2446.48 15.14 2449.04 15.91 C 2451.54 15.34 2453.72 13.74 2456.31 13.28 Z" />
<path fill="#fefefe" opacity="1.00" d=" M 2528.18 7.21 C 2531.27 13.29 2532.59 20.33 2532.51 27.11 C 2532.39 34.12 2525.89 38.18 2520.85 41.86 C 2517.13 44.70 2512.38 45.10 2507.89 44.91 C 2509.10 40.37 2511.97 36.51 2515.50 33.46 C 2523.08 26.83 2526.48 16.86 2528.18 7.21 Z" />
<path fill="#fefefe" opacity="1.00" d=" M 2419.31 8.50 C 2422.63 14.97 2424.88 21.98 2428.73 28.21 C 2431.55 33.86 2436.06 38.72 2437.61 44.96 C 2431.19 45.50 2427.33 39.70 2422.85 36.15 C 2419.63 33.76 2416.79 30.27 2417.14 26.02 C 2417.61 20.15 2418.75 14.36 2419.31 8.50 Z" />
<path fill="#fefefe" opacity="1.00" d=" M 2478.68 9.41 C 2484.58 9.65 2487.70 15.05 2490.47 19.52 C 2495.67 27.86 2500.23 37.27 2500.19 47.29 C 2498.00 45.56 2496.45 43.27 2494.96 40.97 C 2492.19 38.57 2491.38 34.90 2490.49 31.52 C 2488.58 24.51 2486.23 17.54 2482.62 11.22 C 2481.07 11.02 2479.57 11.42 2478.08 11.54 C 2478.23 11.00 2478.53 9.94 2478.68 9.41 Z" />
<path fill="#fefefe" opacity="1.00" d=" M 2178.72 34.25 C 2175.73 26.05 2178.46 16.81 2181.81 9.12 C 2183.49 18.79 2186.89 28.82 2194.51 35.46 C 2198.03 38.51 2200.85 42.40 2202.15 46.92 C 2198.12 46.98 2193.83 46.95 2190.37 44.63 C 2185.98 41.85 2181.65 38.59 2178.72 34.25 Z" />
<path fill="#fefefe" opacity="1.00" d=" M 2235.04 24.06 C 2237.33 19.34 2238.15 13.80 2241.71 9.78 C 2240.35 16.72 2244.85 23.29 2243.21 30.15 C 2239.42 39.38 2229.91 43.83 2221.90 48.71 C 2225.13 39.88 2231.60 32.79 2235.04 24.06 Z" />
<path fill="#fefefe" opacity="1.00" d=" M 2300.29 9.77 C 2303.83 13.81 2304.66 19.34 2306.95 24.06 C 2310.39 32.79 2316.86 39.88 2320.10 48.71 C 2312.50 44.03 2303.59 39.95 2299.44 31.53 C 2296.65 24.41 2301.64 17.11 2300.29 9.77 Z" />
<path fill="#fefefe" opacity="1.00" d=" M 2360.20 9.10 C 2363.15 14.93 2364.25 21.60 2364.63 28.06 C 2365.02 35.52 2358.17 40.03 2352.85 43.88 C 2349.12 46.71 2344.35 47.12 2339.85 46.92 C 2341.75 38.42 2350.46 34.57 2354.17 27.16 C 2357.44 21.63 2359.00 15.36 2360.20 9.10 Z" />
<path fill="#fefefe" opacity="1.00" d=" M 2374.12 15.13 C 2374.01 13.41 2375.44 12.09 2376.96 11.53 C 2381.19 13.89 2386.26 16.99 2386.78 22.33 C 2387.81 30.18 2388.92 38.16 2387.67 46.05 C 2382.86 39.66 2379.13 32.53 2375.65 25.37 C 2373.90 22.25 2373.92 18.59 2374.12 15.13 Z" />
<path fill="#fefefe" opacity="1.00" d=" M 2452.41 28.42 C 2455.47 21.51 2461.65 16.87 2466.72 11.51 C 2465.28 17.12 2460.41 21.23 2458.90 26.91 C 2456.86 34.27 2453.39 41.33 2448.15 46.93 C 2447.80 40.49 2449.92 34.27 2452.41 28.42 Z" />
<path fill="#fefefe" opacity="1.00" d=" M 2397.55 13.45 C 2400.51 11.71 2403.50 14.48 2405.46 16.54 C 2407.15 20.05 2407.42 24.67 2404.61 27.68 C 2400.00 33.30 2399.43 41.29 2394.01 46.35 C 2390.62 37.68 2388.93 28.25 2389.48 18.95 C 2390.93 15.83 2394.63 14.80 2397.55 13.45 Z" />
<path fill="#fefefe" opacity="1.00" d=" M 2480.30 14.33 C 2482.23 18.17 2482.12 22.61 2483.30 26.68 C 2484.77 31.05 2487.02 35.53 2491.35 37.66 C 2493.43 40.28 2496.93 42.89 2495.77 46.69 C 2495.68 48.22 2493.56 48.05 2492.54 48.56 C 2484.56 50.08 2476.22 51.14 2468.23 49.15 C 2465.55 48.18 2462.28 49.68 2459.96 47.83 C 2464.97 43.59 2470.32 39.58 2474.17 34.17 C 2476.53 30.73 2479.49 27.21 2479.69 22.84 C 2479.86 20.00 2479.98 17.16 2480.30 14.33 Z" />
<path fill="#fefefe" opacity="1.00" d=" M 2417.32 33.29 C 2423.77 36.95 2429.37 42.66 2432.23 49.59 C 2424.96 47.08 2419.17 40.75 2417.32 33.29 Z" />
<path fill="#fefefe" opacity="1.00" d=" M 0.00 67.00 C 215.00 66.99 430.00 67.00 645.00 67.00 C 822.00 67.02 999.00 66.76 1176.00 66.92 C 1392.33 67.03 1608.67 66.97 1825.01 66.96 C 2576.67 67.01 3328.34 66.98 4080.00 66.99 C 4187.67 66.93 4295.34 67.15 4403.00 66.87 C 4510.00 66.91 4617.00 66.85 4724.00 66.95 L 4724.00 72.00 L 0.00 72.00 L 0.00 67.00 Z" />
</g>
</svg>
