<?xml version="1.0" encoding="UTF-8" ?>
<!DOCTYPE svg PUBLIC "-//W3C//DTD SVG 1.1//EN" "http://www.w3.org/Graphics/SVG/1.1/DTD/svg11.dtd">
<svg width="2362pt" height="94pt" viewBox="0 0 2362 94" version="1.1" xmlns="http://www.w3.org/2000/svg">
<g id="#ffffffff">
</g>
<g id="#010101ff">
<path fill="#010101" opacity="1.00" d=" M 680.76 36.97 C 681.03 34.38 682.63 31.11 685.78 32.21 C 690.08 32.75 690.06 37.41 691.19 40.60 C 693.05 38.40 691.51 35.20 693.29 33.01 C 695.80 32.12 699.29 32.35 700.08 35.36 C 698.87 35.75 697.67 36.13 696.47 36.51 C 696.35 38.17 694.02 40.76 696.24 41.75 C 700.57 42.30 704.97 41.96 709.33 41.91 C 709.55 37.92 705.88 36.16 703.27 33.99 C 704.24 30.21 709.31 32.62 711.80 33.75 C 711.22 35.57 710.81 37.44 710.73 39.35 C 714.15 38.44 712.08 33.21 715.44 32.41 C 717.60 31.58 721.07 31.87 721.08 34.85 C 719.84 36.09 717.96 36.04 716.39 36.52 C 715.88 38.05 715.37 39.58 714.91 41.12 C 720.63 41.88 726.43 42.16 732.19 41.72 C 731.42 39.63 730.28 37.71 728.98 35.92 C 727.54 35.92 726.11 35.92 724.69 35.93 C 724.77 35.18 724.93 33.68 725.01 32.93 C 727.16 32.33 729.37 32.54 731.52 33.08 C 731.85 35.83 733.99 37.61 736.13 39.09 C 735.83 37.08 735.41 35.09 735.04 33.10 C 736.98 33.06 738.94 33.05 740.90 33.08 C 740.99 33.82 741.17 35.29 741.26 36.03 C 739.89 37.47 736.10 38.89 737.66 41.28 C 741.20 42.68 745.18 41.85 748.91 41.94 C 749.13 40.06 749.36 38.17 749.33 36.27 C 747.95 36.52 746.60 36.86 745.21 36.96 C 743.81 36.06 744.98 34.13 744.92 32.84 C 747.57 32.78 750.18 33.31 752.67 34.22 C 752.48 35.37 752.29 36.51 752.10 37.66 C 752.69 38.21 753.88 39.30 754.47 39.85 C 755.20 38.01 755.44 36.05 755.50 34.09 C 756.94 33.73 758.38 33.27 759.89 33.25 C 762.36 33.06 762.90 36.10 764.16 37.66 C 762.50 37.41 760.85 37.15 759.20 36.94 C 758.33 38.53 757.48 40.14 756.70 41.79 C 761.81 42.11 766.93 42.06 772.04 41.87 C 770.35 39.13 767.82 36.98 766.49 34.03 C 768.33 33.68 770.49 32.48 772.26 33.76 C 775.03 34.80 772.30 39.20 774.97 40.24 C 777.24 39.33 775.72 35.74 777.25 34.02 C 779.39 33.53 781.59 33.80 783.76 34.04 C 783.79 34.67 783.86 35.94 783.90 36.57 C 780.85 36.65 778.84 38.87 778.71 41.85 C 784.00 41.95 789.36 42.11 794.59 41.16 C 794.05 39.75 793.82 38.13 792.71 37.03 C 790.83 36.50 788.87 36.67 786.96 36.64 C 787.01 36.01 787.11 34.75 787.16 34.11 C 788.43 33.70 789.70 33.20 791.06 33.03 C 794.51 32.32 795.18 36.57 797.34 38.32 C 797.66 36.82 797.95 35.31 798.23 33.80 C 800.50 33.52 802.79 33.57 805.06 33.89 C 805.04 35.23 805.02 36.57 804.99 37.91 C 803.34 37.76 801.71 37.60 800.08 37.46 C 800.24 39.07 800.18 41.37 802.21 41.81 C 806.16 42.28 810.17 41.93 814.15 41.88 C 814.45 40.31 814.47 38.72 814.18 37.15 C 812.46 37.03 810.76 36.90 809.07 36.74 C 809.16 35.58 809.26 34.42 809.39 33.27 C 811.29 33.15 813.39 32.65 815.12 33.75 C 816.14 35.45 816.75 37.35 817.64 39.11 C 817.98 37.21 818.28 35.29 818.62 33.38 C 821.31 32.95 825.05 32.16 826.26 35.43 C 823.33 36.38 820.88 38.25 819.63 41.11 C 825.15 42.78 831.02 41.67 836.70 41.93 C 836.25 39.67 834.88 37.65 832.82 36.59 C 831.48 36.60 830.15 36.75 828.84 36.82 C 829.24 35.37 829.06 33.04 831.17 33.03 C 835.45 32.43 837.50 37.05 839.44 40.03 C 839.93 39.37 840.43 38.71 840.94 38.05 C 840.13 36.78 839.36 35.51 838.67 34.19 C 841.15 33.29 843.79 32.98 846.40 33.52 C 846.66 34.56 846.94 35.61 847.23 36.66 C 846.17 36.54 845.11 36.42 844.07 36.30 C 843.54 38.12 843.09 39.95 842.76 41.81 C 847.94 41.90 853.14 42.13 858.34 41.81 C 857.89 39.37 856.51 36.67 853.93 36.03 C 852.40 36.52 851.02 37.35 849.59 38.03 C 850.07 36.35 850.62 34.69 851.21 33.04 C 852.66 33.06 854.14 32.92 855.59 33.21 C 857.26 34.53 858.76 36.06 860.52 37.28 C 861.41 35.70 861.55 32.62 864.06 32.99 C 866.35 32.28 867.18 34.67 867.99 36.27 C 865.00 36.63 863.99 39.22 863.68 41.85 C 868.49 42.06 873.31 42.17 878.12 41.76 C 877.25 38.24 873.58 37.58 870.95 35.86 C 870.73 32.28 875.51 33.08 877.64 34.23 C 878.45 36.34 878.29 39.62 881.00 40.26 C 881.14 38.13 879.79 35.71 881.19 33.82 C 884.24 33.33 887.33 33.77 890.38 34.15 C 889.48 36.82 886.45 37.74 883.90 37.43 C 883.83 38.85 883.79 40.27 883.79 41.70 C 889.28 41.82 894.87 42.45 900.31 41.30 C 899.36 39.73 898.53 38.08 897.35 36.68 C 895.58 35.91 893.57 35.93 891.84 35.07 C 892.95 32.00 898.01 31.45 899.61 34.37 C 900.77 36.42 901.83 38.57 903.55 40.24 C 903.96 38.91 904.39 37.59 904.83 36.26 C 903.68 35.93 902.55 35.58 901.42 35.23 C 904.13 32.66 909.66 31.24 911.42 35.55 C 910.08 35.84 908.75 36.14 907.43 36.44 C 906.90 38.02 906.34 39.59 905.80 41.16 C 910.71 42.10 915.82 41.83 920.81 41.70 C 924.55 41.17 924.02 36.85 924.22 34.06 C 927.05 33.88 929.89 33.84 932.73 34.09 C 932.91 35.49 933.08 36.89 933.26 38.30 C 930.84 37.80 928.59 36.81 926.34 35.84 C 927.44 37.78 928.21 39.89 929.32 41.83 C 933.29 42.23 937.30 42.06 941.30 41.90 C 941.07 38.20 936.28 37.03 936.79 33.29 C 938.75 33.53 941.61 32.07 942.82 34.28 C 942.82 36.37 942.28 38.70 944.05 40.28 C 944.64 37.93 944.98 35.39 946.50 33.41 C 949.23 32.68 952.60 32.44 954.54 34.92 C 952.69 36.20 950.79 38.66 948.80 36.21 C 948.35 38.10 947.96 40.01 947.63 41.93 C 953.03 41.99 958.45 42.24 963.82 41.44 C 961.99 38.63 959.90 35.95 956.75 34.55 C 958.17 32.50 960.67 32.83 962.84 33.05 C 962.64 34.26 962.46 35.45 962.28 36.66 C 963.44 36.52 964.61 36.39 965.80 36.29 C 965.91 35.35 966.11 33.48 966.22 32.54 C 967.73 32.88 969.17 33.47 970.30 34.59 C 968.84 35.46 967.38 36.28 965.92 37.12 C 965.93 38.72 965.94 40.32 965.97 41.92 C 970.43 42.02 974.90 42.01 979.37 41.94 C 979.02 40.01 978.63 38.10 978.19 36.20 C 976.21 38.69 974.28 36.19 972.45 34.93 C 974.39 32.43 977.75 32.69 980.50 33.40 C 982.00 35.39 982.34 37.93 982.95 40.28 C 984.71 38.70 984.17 36.37 984.19 34.28 C 985.37 32.07 988.22 33.53 990.19 33.29 C 990.75 37.04 985.91 38.19 985.69 41.90 C 989.73 42.13 993.78 42.02 997.84 41.96 C 998.61 39.84 999.45 37.74 1000.70 35.84 C 998.43 36.81 996.15 37.79 993.74 38.29 C 993.89 36.89 994.07 35.49 994.27 34.09 C 997.09 33.84 999.94 33.88 1002.78 34.05 C 1003.11 36.66 1002.30 40.38 1005.44 41.53 C 1010.42 42.15 1015.55 41.73 1020.56 41.51 C 1021.06 39.79 1020.00 38.10 1019.68 36.43 C 1018.30 36.14 1016.94 35.85 1015.58 35.56 C 1017.30 31.24 1022.85 32.65 1025.56 35.23 C 1024.42 35.58 1023.30 35.93 1022.18 36.26 C 1022.59 37.59 1023.00 38.92 1023.45 40.25 C 1025.17 38.59 1026.21 36.43 1027.38 34.37 C 1028.95 31.46 1034.07 31.98 1035.13 35.06 C 1033.41 35.97 1031.39 35.90 1029.65 36.68 C 1028.46 38.08 1027.62 39.73 1026.70 41.29 C 1032.12 42.46 1037.71 41.82 1043.21 41.70 C 1043.18 40.28 1043.15 38.85 1043.10 37.43 C 1040.53 37.76 1037.55 36.80 1036.62 34.15 C 1039.65 33.77 1042.74 33.33 1045.81 33.81 C 1047.20 35.69 1045.85 38.11 1045.99 40.23 C 1048.72 39.68 1048.51 36.33 1049.35 34.23 C 1051.47 33.07 1056.24 32.28 1056.05 35.86 C 1053.40 37.57 1049.75 38.25 1048.88 41.76 C 1053.68 42.17 1058.50 42.06 1063.32 41.85 C 1062.99 39.22 1061.98 36.61 1059.00 36.27 C 1059.82 34.68 1060.62 32.27 1062.94 32.99 C 1065.44 32.61 1065.56 35.70 1066.48 37.28 C 1068.23 36.06 1069.72 34.53 1071.40 33.21 C 1072.84 32.92 1074.32 33.05 1075.79 33.04 C 1076.36 34.69 1076.90 36.35 1077.41 38.02 C 1075.95 37.36 1074.59 36.53 1073.08 36.05 C 1070.48 36.63 1069.09 39.38 1068.67 41.82 C 1073.85 42.13 1079.05 41.90 1084.25 41.82 C 1083.89 39.96 1083.45 38.12 1082.92 36.30 C 1081.86 36.42 1080.81 36.54 1079.78 36.66 C 1080.04 35.62 1080.31 34.57 1080.60 33.52 C 1083.17 32.99 1085.78 33.30 1088.26 34.14 C 1087.17 36.04 1085.59 38.14 1087.33 40.18 C 1089.50 37.28 1091.42 32.40 1095.84 33.03 C 1097.98 33.05 1097.76 35.48 1098.13 36.97 C 1096.74 36.80 1095.39 36.59 1094.05 36.35 C 1092.39 37.90 1090.92 39.65 1089.94 41.70 C 1095.72 41.89 1101.71 42.72 1107.37 41.12 C 1106.40 39.65 1105.65 37.88 1103.98 37.09 C 1102.89 36.17 1099.56 35.36 1101.74 33.76 C 1103.66 32.34 1106.21 33.20 1108.39 33.38 C 1108.71 35.29 1109.00 37.21 1109.35 39.12 C 1110.25 37.36 1110.81 35.42 1111.89 33.75 C 1113.60 32.64 1115.70 33.16 1117.61 33.27 C 1117.71 34.43 1117.82 35.58 1117.93 36.74 C 1116.22 36.90 1114.51 37.03 1112.82 37.16 C 1112.51 38.72 1112.53 40.31 1112.85 41.87 C 1116.82 41.93 1120.83 42.27 1124.81 41.83 C 1126.79 41.32 1126.75 39.09 1126.93 37.46 C 1125.27 37.60 1123.63 37.76 1121.99 37.90 C 1121.95 36.56 1121.94 35.22 1121.95 33.88 C 1124.20 33.57 1126.49 33.53 1128.77 33.80 C 1129.03 35.31 1129.32 36.82 1129.66 38.33 C 1131.09 36.78 1132.18 34.95 1133.49 33.29 C 1135.62 32.52 1137.81 33.45 1139.85 34.11 C 1139.90 34.75 1139.99 36.01 1140.04 36.64 C 1138.11 36.68 1136.15 36.49 1134.29 37.04 C 1133.16 38.13 1132.93 39.75 1132.42 41.16 C 1137.64 42.11 1143.00 41.95 1148.30 41.85 C 1148.14 38.87 1146.14 36.64 1143.11 36.57 C 1143.14 35.94 1143.21 34.68 1143.24 34.05 C 1145.40 33.80 1147.61 33.52 1149.77 34.03 C 1151.14 35.92 1149.89 39.02 1152.01 40.46 C 1153.95 39.13 1153.10 36.56 1153.58 34.60 C 1155.39 32.49 1158.18 33.32 1160.46 33.98 C 1159.25 37.01 1156.62 39.11 1154.96 41.87 C 1160.06 42.06 1165.19 42.11 1170.30 41.79 C 1169.51 40.15 1168.66 38.54 1167.80 36.94 C 1166.13 37.15 1164.47 37.41 1162.83 37.66 C 1164.09 36.10 1164.62 33.05 1167.11 33.25 C 1168.60 33.26 1170.05 33.74 1171.51 34.11 C 1171.54 36.06 1171.78 38.02 1172.54 39.85 C 1173.13 39.30 1174.31 38.20 1174.89 37.65 C 1174.69 36.51 1174.49 35.36 1174.33 34.21 C 1176.83 33.30 1179.45 32.77 1182.14 32.84 C 1182.25 34.38 1182.30 35.93 1182.21 37.47 C 1180.70 37.03 1179.21 36.55 1177.72 36.10 C 1177.59 38.06 1177.83 40.01 1178.09 41.94 C 1181.34 42.02 1184.62 42.22 1187.88 41.83 C 1188.97 41.69 1189.66 41.07 1189.93 39.98 C 1188.92 38.29 1187.21 37.23 1185.74 36.02 C 1185.83 35.29 1186.01 33.81 1186.10 33.08 C 1188.04 33.05 1190.00 33.06 1191.96 33.10 C 1191.57 35.09 1191.15 37.08 1190.87 39.09 C 1193.00 37.60 1195.14 35.83 1195.48 33.07 C 1197.62 32.55 1199.82 32.34 1201.99 32.92 C 1202.07 33.67 1202.24 35.18 1202.32 35.93 C 1200.87 35.92 1199.44 35.92 1198.03 35.92 C 1196.70 37.71 1195.57 39.63 1194.81 41.72 C 1200.57 42.16 1206.36 41.88 1212.09 41.12 C 1211.60 39.55 1211.09 37.99 1210.59 36.43 C 1209.10 36.13 1207.63 35.86 1206.17 35.57 C 1206.25 34.52 1206.35 33.47 1206.48 32.42 C 1208.14 32.30 1209.90 31.81 1211.56 32.40 C 1214.88 33.22 1212.87 38.39 1216.24 39.36 C 1216.18 37.44 1215.77 35.57 1215.20 33.75 C 1217.68 32.62 1222.74 30.22 1223.73 33.98 C 1221.11 36.16 1217.44 37.93 1217.67 41.92 C 1222.47 41.83 1227.47 42.71 1232.13 41.16 C 1231.53 39.62 1230.97 38.07 1230.45 36.51 C 1229.26 36.12 1228.09 35.74 1226.93 35.35 C 1227.71 32.36 1231.18 32.12 1233.70 33.02 C 1235.50 35.19 1233.93 38.41 1235.81 40.60 C 1236.91 37.41 1236.92 32.76 1241.21 32.21 C 1244.35 31.11 1245.95 34.38 1246.24 36.96 C 1243.83 36.51 1241.38 35.92 1239.08 37.07 C 1239.00 38.65 1238.94 40.24 1238.92 41.83 C 1243.50 41.95 1248.15 42.35 1252.72 41.72 C 1255.84 39.47 1252.14 35.47 1249.17 35.52 C 1249.23 32.23 1254.33 32.81 1256.75 33.13 C 1256.51 34.79 1256.25 36.43 1256.06 38.09 C 1259.02 35.57 1261.60 31.43 1266.12 32.88 C 1266.08 34.20 1266.06 35.52 1266.04 36.84 C 1264.75 36.54 1263.47 36.24 1262.21 35.96 C 1260.73 37.72 1259.42 39.62 1258.64 41.79 C 1264.45 41.99 1270.33 42.14 1276.09 41.13 C 1275.66 39.72 1275.24 38.31 1274.83 36.89 C 1273.13 36.65 1271.44 36.39 1269.78 36.05 C 1270.19 35.00 1270.62 33.95 1271.08 32.91 C 1272.93 32.97 1274.80 33.02 1276.67 33.11 C 1277.41 35.22 1277.94 37.51 1279.53 39.19 C 1279.43 37.29 1279.19 35.39 1278.96 33.50 C 1281.29 33.59 1283.59 33.20 1285.90 32.86 C 1286.35 33.86 1286.82 34.87 1287.29 35.88 C 1284.19 36.63 1281.05 38.10 1280.80 41.71 C 1285.09 42.11 1289.45 42.25 1293.71 41.47 C 1293.62 39.97 1293.49 38.48 1293.33 36.99 C 1292.02 36.22 1289.62 36.23 1289.93 34.16 C 1291.80 32.13 1294.85 32.96 1297.11 33.82 C 1296.69 35.45 1296.27 37.08 1296.01 38.73 C 1298.10 37.36 1299.10 35.06 1300.20 32.92 C 1302.22 33.15 1304.59 32.55 1306.38 33.75 C 1306.60 35.05 1306.48 36.36 1306.45 37.67 C 1305.63 37.01 1304.82 36.36 1304.02 35.72 C 1302.10 37.33 1300.66 39.37 1299.81 41.72 C 1304.98 42.05 1310.18 41.97 1315.37 41.80 C 1315.02 38.04 1309.94 37.65 1309.28 34.30 C 1310.78 32.55 1313.42 32.95 1315.36 33.66 C 1316.18 36.26 1316.89 38.95 1318.77 41.04 C 1318.61 39.02 1318.31 37.01 1317.96 35.02 C 1320.43 33.71 1323.37 32.28 1326.07 33.93 C 1326.06 34.64 1326.03 36.07 1326.02 36.78 C 1324.34 36.87 1322.68 36.98 1321.04 37.12 C 1321.50 38.66 1320.99 41.51 1323.26 41.70 C 1328.97 42.45 1334.67 41.08 1340.40 41.14 C 1339.92 39.80 1339.84 38.24 1338.89 37.13 C 1338.05 35.91 1336.17 34.97 1337.10 33.26 C 1339.59 32.86 1342.31 32.71 1344.32 34.54 C 1343.02 36.29 1342.60 38.32 1343.03 40.45 C 1345.35 38.46 1345.95 35.16 1348.30 33.20 C 1350.01 32.71 1351.93 32.61 1353.60 33.38 C 1353.79 34.50 1353.94 35.62 1354.06 36.76 C 1352.14 36.88 1349.66 35.50 1348.24 37.32 C 1347.16 38.47 1347.14 40.11 1346.90 41.57 C 1352.30 41.91 1357.72 41.70 1363.09 41.01 C 1363.05 40.29 1362.98 38.86 1362.94 38.14 C 1360.96 37.35 1358.99 36.55 1357.05 35.71 C 1357.35 34.79 1357.66 33.88 1357.99 32.97 C 1360.00 32.97 1362.02 32.96 1364.05 32.93 C 1364.58 34.76 1364.99 36.63 1365.54 38.47 C 1366.60 36.81 1366.30 34.69 1367.30 33.04 C 1370.14 32.37 1372.80 33.40 1374.79 35.47 C 1375.92 34.62 1376.89 33.47 1378.25 32.93 C 1379.90 32.89 1381.47 33.50 1383.05 33.97 C 1382.63 36.10 1382.30 38.34 1383.86 40.12 C 1385.09 38.29 1386.05 36.25 1385.56 33.99 C 1387.87 33.08 1390.36 32.95 1392.84 33.03 C 1392.91 33.79 1393.06 35.31 1393.14 36.07 C 1390.03 36.50 1387.84 38.48 1386.61 41.29 C 1392.26 42.60 1398.13 41.93 1403.86 41.55 C 1403.47 39.97 1403.65 37.64 1401.95 36.86 C 1400.14 36.76 1398.33 36.88 1396.55 36.89 C 1396.74 34.43 1398.27 32.12 1401.05 32.94 C 1404.15 32.45 1405.13 35.71 1406.13 37.92 C 1407.34 37.73 1408.56 37.54 1409.81 37.36 C 1409.81 38.90 1409.86 40.44 1409.94 41.98 C 1414.40 42.05 1418.86 42.03 1423.33 41.93 C 1423.10 40.43 1422.87 38.94 1422.65 37.45 C 1421.02 37.16 1419.41 36.90 1417.82 36.62 C 1418.35 35.57 1418.88 34.50 1419.56 33.51 C 1421.38 32.68 1423.45 33.12 1425.40 33.21 C 1425.37 34.63 1425.32 36.04 1425.36 37.46 C 1427.21 36.24 1428.72 34.60 1430.44 33.20 C 1433.01 32.30 1435.34 34.16 1436.25 36.48 C 1434.29 36.63 1432.18 36.13 1430.47 37.28 C 1429.46 38.61 1429.05 40.26 1428.59 41.82 C 1433.47 41.96 1438.36 42.20 1443.27 42.20 C 1442.97 40.74 1442.92 39.20 1442.30 37.83 C 1441.12 37.40 1439.95 37.02 1438.78 36.69 C 1438.93 35.57 1439.16 34.47 1439.47 33.38 C 1441.78 32.62 1444.22 33.35 1445.92 35.04 C 1445.18 36.98 1445.29 38.92 1446.69 40.53 C 1447.07 39.63 1447.52 38.73 1447.92 37.82 C 1446.46 36.06 1448.13 34.43 1449.13 32.93 C 1451.00 33.00 1452.90 33.06 1454.81 33.15 C 1454.88 33.84 1455.02 35.23 1455.09 35.92 C 1453.47 36.71 1451.50 37.00 1450.26 38.38 C 1449.96 39.64 1449.74 40.92 1449.60 42.21 C 1454.08 42.29 1458.56 42.01 1463.04 41.85 C 1462.94 40.31 1462.84 38.76 1462.76 37.21 C 1461.47 37.18 1460.19 37.16 1458.93 37.15 C 1458.95 36.32 1458.99 34.66 1459.01 33.83 C 1462.23 33.46 1465.47 33.41 1468.70 32.98 C 1467.06 35.18 1466.80 37.81 1467.44 40.43 C 1471.12 40.41 1474.80 40.41 1478.50 40.44 C 1479.11 38.18 1478.17 35.15 1479.87 33.42 C 1482.23 33.33 1484.60 33.52 1486.98 33.79 C 1487.00 34.64 1487.05 36.34 1487.08 37.19 C 1485.78 37.18 1484.50 37.18 1483.23 37.19 C 1483.12 38.75 1483.02 40.30 1482.96 41.85 C 1487.43 42.01 1491.91 42.29 1496.40 42.21 C 1496.23 40.92 1496.01 39.64 1495.74 38.38 C 1494.48 37.00 1492.51 36.71 1490.91 35.92 C 1490.98 35.23 1491.13 33.84 1491.20 33.15 C 1493.08 33.06 1494.97 33.00 1496.88 32.93 C 1499.39 35.14 1497.95 38.46 1499.05 41.23 C 1500.38 39.36 1500.94 37.22 1500.10 35.02 C 1501.79 33.34 1504.21 32.62 1506.54 33.38 C 1506.80 34.47 1507.03 35.58 1507.22 36.69 C 1506.01 37.03 1504.84 37.41 1503.71 37.84 C 1503.04 39.20 1502.97 40.74 1502.73 42.20 C 1507.62 42.19 1512.52 41.96 1517.42 41.82 C 1516.91 40.26 1516.51 38.62 1515.53 37.28 C 1513.80 36.12 1511.66 36.63 1509.75 36.48 C 1510.59 35.12 1511.34 33.29 1513.20 33.15 C 1516.44 32.27 1518.00 36.09 1520.48 37.44 C 1520.69 35.69 1520.10 32.18 1523.02 32.94 C 1525.73 32.40 1527.38 34.29 1528.17 36.63 C 1526.54 36.90 1524.95 37.16 1523.36 37.44 C 1523.09 38.93 1522.86 40.43 1522.66 41.93 C 1527.12 42.02 1531.59 42.05 1536.06 42.02 C 1536.11 40.46 1536.15 38.91 1536.19 37.36 C 1537.40 37.54 1538.62 37.73 1539.87 37.93 C 1540.68 36.40 1541.06 34.52 1542.49 33.41 C 1544.12 32.73 1545.97 32.91 1547.72 33.06 C 1548.89 33.99 1549.01 35.55 1549.45 36.89 C 1547.41 37.09 1545.16 36.31 1543.31 37.25 C 1542.53 38.56 1542.33 40.08 1542.13 41.55 C 1547.85 41.95 1553.72 42.57 1559.39 41.29 C 1558.15 38.47 1555.94 36.50 1552.86 36.07 C 1552.94 35.31 1553.09 33.79 1553.17 33.03 C 1555.62 32.95 1558.11 33.09 1560.44 33.99 C 1559.93 36.38 1560.75 38.86 1562.96 40.11 C 1563.72 37.84 1561.79 33.54 1565.22 33.18 C 1567.63 32.17 1569.54 33.95 1571.21 35.46 C 1573.19 33.40 1575.85 32.37 1578.72 33.03 C 1579.62 34.71 1579.43 36.78 1580.46 38.45 C 1580.96 36.62 1581.40 34.76 1581.95 32.93 C 1583.95 32.96 1585.98 32.97 1588.01 32.97 C 1588.31 33.88 1588.61 34.79 1588.94 35.71 C 1586.98 36.55 1585.02 37.34 1583.07 38.13 C 1583.03 38.85 1582.94 40.29 1582.90 41.01 C 1588.27 41.70 1593.69 41.92 1599.10 41.57 C 1598.83 40.11 1598.80 38.48 1597.76 37.32 C 1596.33 35.51 1593.83 36.88 1591.94 36.75 C 1592.03 35.62 1592.17 34.49 1592.39 33.37 C 1594.05 32.66 1595.95 32.68 1597.69 33.21 C 1600.07 35.13 1600.60 38.49 1602.98 40.45 C 1603.35 38.32 1602.94 36.29 1601.70 34.53 C 1603.68 32.69 1606.39 32.86 1608.91 33.26 C 1608.97 33.64 1609.08 34.40 1609.13 34.78 C 1607.35 36.54 1605.90 38.59 1605.60 41.14 C 1611.32 41.07 1617.01 42.46 1622.73 41.69 C 1625.05 41.57 1624.38 38.67 1624.98 37.11 C 1623.29 36.97 1621.63 36.87 1619.99 36.78 C 1619.97 36.07 1619.94 34.64 1619.92 33.92 C 1622.61 32.30 1625.55 33.70 1628.04 35.02 C 1627.67 37.01 1627.36 39.02 1627.23 41.04 C 1629.11 38.95 1629.78 36.26 1630.65 33.68 C 1632.66 32.84 1636.00 32.46 1636.94 35.01 C 1634.87 37.34 1631.31 38.45 1630.63 41.79 C 1635.81 41.97 1641.01 42.06 1646.19 41.71 C 1645.31 39.35 1643.84 37.31 1641.96 35.66 C 1641.44 36.18 1640.40 37.22 1639.87 37.74 C 1639.63 36.34 1639.43 34.92 1639.29 33.51 C 1641.42 33.12 1643.60 32.97 1645.79 32.91 C 1646.86 35.05 1647.89 37.34 1649.98 38.73 C 1649.67 37.08 1649.28 35.45 1648.89 33.82 C 1651.13 32.94 1654.18 32.14 1656.08 34.17 C 1656.33 36.22 1653.96 36.24 1652.67 37.00 C 1652.49 38.49 1652.34 39.97 1652.28 41.47 C 1656.53 42.24 1660.89 42.12 1665.19 41.71 C 1664.95 38.09 1661.79 36.64 1658.70 35.88 C 1659.14 34.87 1659.61 33.86 1660.10 32.86 C 1662.39 33.20 1664.70 33.59 1667.05 33.50 C 1666.79 35.39 1666.53 37.28 1666.46 39.18 C 1668.05 37.52 1668.56 35.22 1669.33 33.11 C 1671.17 33.03 1673.03 32.97 1674.91 32.92 C 1675.34 33.96 1675.79 35.00 1676.24 36.05 C 1674.54 36.39 1672.84 36.65 1671.16 36.89 C 1670.73 38.31 1670.31 39.72 1669.92 41.14 C 1675.67 42.13 1681.54 41.99 1687.36 41.79 C 1686.56 39.62 1685.25 37.72 1683.79 35.96 C 1682.49 36.24 1681.21 36.54 1679.96 36.84 C 1679.90 35.52 1679.88 34.20 1679.88 32.88 C 1684.39 31.43 1686.97 35.57 1689.93 38.09 C 1689.72 36.44 1689.46 34.79 1689.25 33.14 C 1691.83 32.71 1694.57 32.64 1696.83 34.22 C 1697.47 35.98 1695.39 35.86 1694.33 36.38 C 1692.06 36.93 1692.30 39.74 1692.16 41.55 C 1702.73 42.56 1713.39 41.72 1724.00 42.00 C 1913.33 42.00 2102.67 42.03 2292.00 42.00 C 2315.33 42.45 2338.67 41.61 2362.00 42.18 L 2362.00 44.96 C 2131.00 45.02 1900.00 44.99 1669.00 44.99 C 1641.01 44.94 1613.00 45.23 1585.02 44.57 C 1561.36 45.09 1537.68 44.94 1514.01 45.10 C 1487.02 45.63 1459.99 45.80 1432.99 44.99 C 1405.00 45.07 1376.99 44.97 1349.01 44.88 C 1233.68 45.18 1118.34 44.90 1003.00 45.01 C 894.67 45.01 786.33 44.98 678.00 45.01 C 574.99 45.09 471.99 44.85 368.98 44.95 C 268.32 45.07 167.66 44.97 67.00 45.00 C 44.67 44.61 22.33 45.38 0.00 44.85 L 0.00 42.01 C 198.00 42.06 396.00 42.00 594.00 42.00 C 618.79 41.86 643.58 42.27 668.36 41.78 C 667.56 39.61 666.25 37.71 664.79 35.96 C 663.50 36.24 662.23 36.54 660.96 36.84 C 660.92 35.52 660.89 34.20 660.88 32.88 C 665.40 31.43 667.98 35.57 670.93 38.10 C 670.74 36.43 670.48 34.78 670.25 33.12 C 672.83 32.72 675.57 32.63 677.81 34.22 C 678.58 36.32 675.66 35.87 674.51 36.68 C 673.16 37.93 673.27 39.87 673.17 41.55 C 678.10 42.28 683.11 42.04 688.08 41.82 C 688.04 40.24 687.98 38.65 687.92 37.07 C 685.61 35.92 683.15 36.51 680.76 36.97 M 1369.10 35.86 C 1368.60 37.44 1368.27 39.05 1368.20 40.70 C 1371.96 42.11 1376.42 42.10 1380.25 40.98 C 1380.49 38.18 1379.32 35.21 1376.01 35.60 C 1375.25 36.31 1374.51 37.03 1373.79 37.75 C 1372.25 37.02 1370.69 36.38 1369.10 35.86 M 1565.74 40.99 C 1569.56 42.09 1574.02 42.10 1577.80 40.71 C 1577.71 39.06 1577.37 37.44 1576.89 35.87 C 1575.27 36.37 1573.72 37.02 1572.22 37.75 C 1571.46 37.03 1570.72 36.32 1569.99 35.60 C 1566.66 35.21 1565.50 38.19 1565.74 40.99 Z" />
<path fill="#010101" opacity="1.00" d=" M 911.95 38.09 C 912.70 34.23 919.22 30.89 922.02 35.03 C 922.04 35.88 922.08 37.57 922.10 38.42 C 920.76 37.79 919.49 36.88 917.99 36.81 C 915.85 36.57 914.06 38.69 911.95 38.09 Z" />
<path fill="#010101" opacity="1.00" d=" M 1004.96 35.07 C 1007.90 30.80 1014.21 34.32 1015.27 38.29 C 1011.77 37.59 1007.71 35.41 1004.88 38.85 C 1004.91 37.59 1004.93 36.33 1004.96 35.07 Z" />
<path fill="#010101" opacity="1.00" d=" M 1328.47 33.38 C 1331.05 32.49 1334.25 33.47 1335.47 36.04 C 1333.00 36.81 1330.45 37.55 1327.86 37.23 C 1327.79 35.89 1327.99 34.60 1328.47 33.38 Z" />
<path fill="#010101" opacity="1.00" d=" M 1406.67 34.21 C 1409.37 33.65 1411.98 31.94 1414.79 33.07 C 1414.83 33.77 1414.91 35.17 1414.95 35.87 C 1412.81 37.42 1410.21 36.79 1407.78 36.91 C 1407.38 36.01 1407.01 35.12 1406.67 34.21 Z" />
<path fill="#010101" opacity="1.00" d=" M 1531.21 33.09 C 1534.01 31.93 1536.62 33.65 1539.34 34.23 C 1538.95 35.13 1538.58 36.02 1538.21 36.91 C 1535.77 36.78 1533.16 37.43 1531.05 35.87 C 1531.09 35.17 1531.17 33.78 1531.21 33.09 Z" />
<path fill="#010101" opacity="1.00" d=" M 1610.53 36.04 C 1611.72 33.48 1614.94 32.49 1617.53 33.39 C 1617.97 34.61 1618.18 35.89 1618.15 37.23 C 1615.53 37.55 1612.97 36.82 1610.53 36.04 Z" />
<path fill="#010101" opacity="1.00" d=" M 0.00 48.14 C 281.01 47.92 561.99 48.14 843.00 48.03 C 891.33 48.34 939.66 47.94 987.99 48.05 C 1083.99 48.21 1179.99 47.94 1275.99 48.06 C 1303.66 47.90 1331.33 48.33 1359.00 48.01 C 1438.67 48.06 1518.33 48.18 1598.00 48.06 C 1625.33 48.35 1652.67 47.78 1680.01 48.08 C 1789.67 48.05 1899.33 48.00 2008.99 48.10 C 2033.33 47.80 2057.66 48.40 2082.00 48.02 C 2175.33 48.24 2268.67 48.03 2362.00 48.13 L 2362.00 55.88 C 2196.33 56.14 2030.67 55.74 1865.01 55.95 C 1827.67 55.64 1790.33 56.48 1753.00 55.58 C 1699.67 56.50 1646.33 55.53 1593.00 55.96 C 1563.99 56.16 1535.00 55.70 1506.00 55.91 C 1399.66 56.24 1293.33 55.66 1187.00 55.98 C 1168.00 56.33 1149.00 55.19 1130.01 55.86 C 1050.34 56.25 970.66 55.89 891.00 55.86 C 841.33 56.28 791.66 55.78 742.00 55.98 C 705.00 56.05 667.99 56.02 631.00 55.86 C 512.67 56.18 394.33 56.01 276.00 55.88 C 228.34 56.14 180.67 55.84 133.00 56.01 C 88.67 56.02 44.33 56.05 0.00 55.83 L 0.00 48.14 Z" />
</g>
</svg>
