<?xml version="1.0" encoding="UTF-8" ?>
<!DOCTYPE svg PUBLIC "-//W3C//DTD SVG 1.1//EN" "http://www.w3.org/Graphics/SVG/1.1/DTD/svg11.dtd">
<svg width="2362pt" height="94pt" viewBox="0 0 2362 94" version="1.1" xmlns="http://www.w3.org/2000/svg">
<g id="#ffffffff">
<path fill="#ffffff" opacity="1.00" d=" M 824.14 29.25 C 824.79 29.84 824.79 29.84 824.14 29.25 Z" />
<path fill="#ffffff" opacity="1.00" d=" M 1100.28 29.21 C 1100.80 29.91 1100.80 29.91 1100.28 29.21 Z" />
<path fill="#ffffff" opacity="1.00" d=" M 949.23 54.24 C 949.85 54.84 949.85 54.84 949.23 54.24 Z" />
<path fill="#ffffff" opacity="1.00" d=" M 975.22 54.26 C 975.86 54.84 975.86 54.84 975.22 54.26 Z" />
<path fill="#ffffff" opacity="1.00" d=" M 1968.21 54.22 C 1968.85 54.78 1968.85 54.78 1968.21 54.22 Z" />
<path fill="#ffffff" opacity="1.00" d=" M 1994.23 54.16 C 1994.79 54.80 1994.79 54.80 1994.23 54.16 Z" />
<path fill="#ffffff" opacity="1.00" d=" M 545.30 64.86 C 544.66 63.27 542.65 59.74 545.80 59.98 C 545.60 61.60 545.39 63.23 545.30 64.86 Z" />
<path fill="#ffffff" opacity="1.00" d=" M 684.13 61.23 C 684.83 61.80 684.83 61.80 684.13 61.23 Z" />
<path fill="#ffffff" opacity="1.00" d=" M 1102.20 64.45 C 1101.24 62.43 1101.28 60.39 1104.19 60.76 C 1103.93 62.21 1103.49 63.61 1102.20 64.45 Z" />
<path fill="#ffffff" opacity="1.00" d=" M 1240.22 61.17 C 1240.82 61.83 1240.82 61.83 1240.22 61.17 Z" />
<path fill="#ffffff" opacity="1.00" d=" M 1703.24 61.16 C 1703.78 61.88 1703.78 61.88 1703.24 61.16 Z" />
<path fill="#ffffff" opacity="1.00" d=" M 2259.30 61.18 C 2259.84 61.89 2259.84 61.89 2259.30 61.18 Z" />
</g>
<g id="#010101ff">
<path fill="#010101" opacity="1.00" d=" M 638.04 21.05 C 639.99 18.40 643.16 15.87 646.62 17.41 C 648.84 17.86 649.02 20.20 649.13 22.04 C 649.53 22.03 650.33 22.01 650.73 22.00 C 651.24 20.57 650.51 18.13 652.39 17.63 C 653.82 17.10 655.41 16.85 656.93 17.20 C 659.03 18.11 660.66 20.15 663.16 19.95 C 663.60 20.26 664.48 20.87 664.92 21.18 C 665.46 20.11 666.00 19.05 666.55 17.98 C 671.24 18.53 674.14 22.92 678.76 23.83 C 681.10 22.49 683.71 21.85 686.41 21.75 C 687.59 18.28 691.55 20.28 694.00 20.97 C 695.29 19.81 696.49 18.51 698.00 17.62 C 701.51 17.30 704.65 18.76 707.26 20.98 C 707.54 20.30 708.10 18.93 708.38 18.25 C 710.35 17.52 712.59 16.29 714.70 17.22 C 717.01 18.67 718.84 20.73 720.81 22.60 C 721.93 21.35 722.79 18.99 724.88 20.16 C 727.83 23.40 730.20 27.24 734.20 29.36 C 739.02 25.31 742.68 19.51 749.09 17.68 C 754.29 16.72 759.57 19.23 763.30 22.76 C 764.97 20.67 766.78 17.77 769.88 18.07 C 772.49 20.46 774.22 23.70 777.01 25.91 C 779.29 27.32 781.91 28.04 784.35 29.15 C 786.90 26.36 789.25 23.39 791.46 20.32 C 793.83 18.08 796.90 18.04 799.85 19.03 C 800.37 20.14 800.91 21.25 801.47 22.36 C 801.89 18.88 805.06 18.34 807.98 18.46 C 809.50 19.37 809.98 21.25 810.86 22.69 C 811.21 21.24 811.65 19.80 812.08 18.37 C 813.86 18.24 815.84 17.30 817.55 18.25 C 820.41 21.02 822.68 24.55 826.27 26.49 C 831.23 24.82 835.40 21.62 839.73 18.77 C 841.86 20.14 844.23 21.06 846.65 21.82 C 849.23 20.23 851.81 18.65 854.45 17.16 C 857.21 18.14 859.73 19.62 862.17 21.23 C 862.63 20.28 863.10 19.33 863.58 18.38 C 866.09 17.85 869.09 16.77 871.29 18.73 C 875.14 22.08 878.35 26.23 883.04 28.51 C 885.83 25.89 888.45 23.03 890.29 19.63 C 894.51 19.72 898.74 19.52 902.97 19.50 C 904.41 20.14 905.50 21.42 906.98 22.03 C 908.86 20.91 909.38 18.03 911.80 17.72 C 914.91 16.61 917.71 18.97 920.26 20.42 C 921.45 19.72 922.45 18.39 923.98 18.50 C 926.34 18.80 926.60 21.57 927.79 23.19 C 929.03 25.92 931.97 27.04 934.37 28.52 C 938.76 24.45 942.49 19.16 948.50 17.33 C 951.38 16.37 953.70 18.81 956.17 19.83 C 957.71 19.93 958.32 17.99 959.40 17.15 C 961.46 17.25 963.54 17.25 965.59 17.55 C 966.69 18.27 967.48 19.55 968.82 19.87 C 971.14 18.92 973.15 16.69 975.85 16.98 C 980.72 18.65 984.72 22.10 987.98 26.01 C 988.95 27.02 990.14 28.98 991.78 27.78 C 995.79 26.53 997.58 22.65 999.37 19.23 C 1001.18 17.52 1003.24 19.27 1004.75 20.42 C 1007.26 18.98 1010.04 16.64 1013.13 17.70 C 1015.51 18.10 1016.32 20.73 1017.97 22.18 C 1019.36 21.33 1020.56 20.18 1022.07 19.50 C 1026.27 19.53 1030.49 19.72 1034.71 19.62 C 1036.61 22.91 1038.92 26.03 1042.00 28.30 C 1046.85 26.41 1049.82 21.91 1053.72 18.72 C 1055.90 16.79 1058.88 17.85 1061.39 18.33 C 1061.84 19.30 1062.30 20.27 1062.78 21.23 C 1065.23 19.64 1067.77 18.15 1070.55 17.16 C 1073.21 18.68 1075.83 20.30 1078.49 21.84 C 1080.77 21.01 1082.98 20.00 1085.22 19.03 C 1086.87 19.41 1088.13 20.64 1089.50 21.59 C 1092.24 23.77 1095.58 24.97 1098.62 26.67 C 1102.08 24.47 1104.61 21.22 1107.40 18.29 C 1109.05 17.55 1111.02 18.33 1112.81 18.32 C 1113.33 19.74 1113.81 21.18 1114.32 22.61 C 1115.12 21.24 1115.40 19.20 1117.04 18.50 C 1118.69 18.53 1120.32 18.80 1121.98 18.98 C 1122.55 20.15 1123.11 21.32 1123.73 22.48 C 1124.16 21.34 1124.58 20.19 1125.01 19.04 C 1128.00 18.08 1131.12 18.03 1133.54 20.32 C 1135.74 23.38 1138.09 26.34 1140.62 29.14 C 1143.08 28.04 1145.73 27.31 1148.04 25.87 C 1150.80 23.65 1152.53 20.42 1155.15 18.05 C 1158.23 17.78 1160.02 20.69 1161.71 22.76 C 1166.21 18.40 1173.80 15.34 1179.48 19.33 C 1184.16 21.61 1186.75 26.33 1190.85 29.36 C 1194.52 27.25 1197.02 23.88 1199.61 20.63 C 1201.33 18.61 1203.06 21.24 1204.29 22.37 C 1206.37 20.64 1208.29 18.70 1210.32 16.89 C 1212.47 16.99 1214.65 17.30 1216.63 18.25 C 1216.91 18.93 1217.49 20.31 1217.77 20.99 C 1220.36 18.74 1223.51 17.29 1227.03 17.63 C 1228.51 18.52 1229.70 19.81 1230.99 20.96 C 1233.42 20.30 1237.36 18.27 1238.57 21.72 C 1241.26 21.86 1243.89 22.49 1246.26 23.83 C 1250.86 22.92 1253.75 18.51 1258.46 17.99 C 1258.94 18.97 1259.43 19.96 1259.95 20.94 C 1261.27 20.33 1262.66 19.91 1264.14 19.68 C 1266.61 17.21 1270.47 16.07 1273.58 18.13 C 1273.86 19.42 1274.09 20.72 1274.29 22.03 C 1274.68 22.01 1275.48 21.97 1275.88 21.95 C 1276.14 20.46 1275.87 18.35 1277.67 17.73 C 1280.86 15.93 1285.14 17.60 1286.48 20.96 C 1289.38 22.28 1292.45 23.31 1295.05 25.23 C 1297.27 22.60 1300.07 18.85 1304.03 20.23 C 1308.97 21.95 1312.39 26.38 1315.82 30.12 C 1318.96 26.74 1322.89 24.25 1326.41 21.28 C 1328.29 19.53 1331.74 19.41 1333.61 21.27 C 1336.06 23.58 1338.43 25.99 1341.03 28.16 C 1344.50 25.45 1347.48 22.18 1350.39 18.88 C 1352.15 18.86 1353.93 18.88 1355.73 18.93 C 1356.08 20.52 1356.51 22.11 1357.11 23.64 C 1358.21 21.99 1358.66 19.64 1360.55 18.61 C 1362.27 17.38 1364.46 17.64 1366.45 17.92 C 1368.04 20.55 1371.42 21.01 1374.01 22.24 C 1376.39 21.75 1378.41 19.51 1380.97 20.05 C 1383.50 21.73 1385.47 24.13 1387.95 25.88 C 1390.40 26.11 1392.92 26.08 1395.30 26.90 C 1395.77 28.36 1396.18 29.82 1396.71 31.27 C 1396.67 29.66 1396.55 28.03 1397.03 26.47 C 1400.15 24.74 1401.89 21.31 1405.07 19.69 C 1406.69 19.54 1408.28 20.01 1409.90 20.24 C 1412.51 17.03 1419.71 17.13 1419.25 22.40 C 1420.79 19.88 1423.63 19.03 1426.24 18.03 C 1431.19 19.79 1434.90 23.80 1439.70 25.95 C 1441.89 23.44 1444.34 21.17 1446.99 19.13 C 1449.39 19.78 1453.16 18.95 1453.56 22.36 C 1453.83 21.32 1454.12 20.28 1454.43 19.25 C 1456.29 19.16 1458.16 19.08 1460.05 19.02 C 1460.42 20.05 1460.79 21.09 1461.17 22.13 C 1462.63 20.86 1464.13 19.67 1465.85 18.71 C 1464.26 18.65 1462.68 18.52 1461.13 18.37 C 1461.36 18.11 1461.80 17.58 1462.03 17.32 C 1465.21 18.80 1468.90 18.10 1472.04 19.73 C 1475.69 16.85 1480.15 19.05 1482.80 22.15 C 1483.18 21.09 1483.59 20.04 1484.02 18.99 C 1485.91 19.07 1487.82 19.15 1489.74 19.26 C 1489.80 19.95 1489.94 21.31 1490.00 22.00 L 1490.59 22.01 C 1490.83 18.87 1494.81 19.87 1497.00 19.11 C 1499.63 21.16 1502.09 23.43 1504.29 25.95 C 1510.38 23.08 1515.31 17.18 1522.55 17.52 C 1524.70 18.06 1526.52 19.41 1528.41 20.54 C 1529.23 19.69 1530.08 18.83 1530.95 17.98 C 1531.95 18.75 1532.95 19.52 1533.99 20.29 C 1535.62 20.05 1537.27 19.49 1538.98 19.70 C 1542.11 21.37 1543.87 24.75 1546.98 26.48 C 1547.42 28.07 1547.26 29.72 1547.25 31.35 C 1547.70 29.87 1548.23 28.38 1548.70 26.90 C 1551.04 26.08 1553.52 26.11 1555.98 25.90 C 1558.49 24.20 1560.44 21.75 1563.00 20.07 C 1565.52 19.49 1567.57 21.72 1569.95 22.24 C 1572.55 21.03 1575.92 20.52 1577.56 17.92 C 1579.52 17.63 1581.73 17.40 1583.48 18.62 C 1585.34 19.68 1585.75 22.01 1586.91 23.66 C 1587.48 22.12 1587.85 20.52 1588.27 18.93 C 1590.03 18.88 1591.80 18.86 1593.60 18.88 C 1596.51 22.17 1599.48 25.44 1602.96 28.16 C 1607.26 25.46 1610.00 18.59 1615.98 20.21 C 1620.19 23.30 1624.50 26.40 1628.19 30.13 C 1632.34 25.65 1636.74 19.43 1643.63 19.96 C 1645.51 21.58 1647.39 23.25 1648.93 25.23 C 1651.31 23.30 1654.35 22.63 1656.96 21.13 C 1658.94 18.48 1662.12 15.82 1665.65 17.42 C 1667.83 17.86 1667.99 20.16 1668.11 21.97 C 1668.52 21.98 1669.34 21.99 1669.75 21.99 C 1670.14 20.33 1669.63 17.64 1671.98 17.42 C 1674.91 16.17 1677.69 17.83 1679.88 19.69 C 1681.30 19.94 1682.71 20.35 1684.07 20.92 C 1684.55 19.94 1685.04 18.96 1685.54 17.98 C 1690.24 18.53 1693.14 22.91 1697.76 23.83 C 1700.09 22.49 1702.70 21.86 1705.40 21.74 C 1706.63 18.27 1710.55 20.30 1713.03 20.96 C 1714.30 19.80 1715.48 18.49 1717.00 17.61 C 1720.51 17.30 1723.64 18.79 1726.29 20.96 C 1726.56 20.29 1727.10 18.93 1727.37 18.25 C 1729.34 17.51 1731.57 16.37 1733.71 17.23 C 1735.97 18.63 1737.67 20.74 1739.74 22.40 C 1740.95 21.38 1741.86 19.21 1743.82 20.09 C 1746.79 23.34 1749.18 27.20 1753.18 29.36 C 1758.02 25.32 1761.68 19.51 1768.10 17.69 C 1773.30 16.74 1778.57 19.22 1782.29 22.76 C 1783.96 20.68 1785.77 17.78 1788.86 18.05 C 1791.48 20.45 1793.21 23.71 1796.03 25.92 C 1798.30 27.32 1800.92 28.05 1803.36 29.14 C 1805.91 26.35 1808.26 23.37 1810.48 20.31 C 1812.84 18.10 1815.88 18.04 1818.83 19.03 C 1819.38 20.18 1819.97 21.33 1820.59 22.48 C 1821.00 21.34 1821.43 20.20 1821.88 19.06 C 1823.66 18.81 1825.46 18.56 1827.29 18.30 C 1829.40 20.68 1829.85 23.83 1829.86 26.90 C 1827.91 28.51 1825.95 30.77 1823.18 30.52 C 1820.73 28.85 1819.65 25.98 1818.07 23.60 C 1815.98 25.42 1814.15 27.54 1812.92 30.02 C 1813.89 31.73 1816.17 30.15 1817.67 30.09 C 1819.14 30.94 1820.93 31.56 1821.89 33.10 C 1822.58 35.64 1820.71 37.80 1819.81 40.01 C 1818.57 40.45 1817.32 40.92 1816.07 41.17 C 1814.73 40.33 1814.00 38.87 1813.12 37.64 C 1812.77 35.50 1812.33 33.37 1811.90 31.24 C 1811.23 31.14 1809.90 30.94 1809.23 30.84 C 1807.50 33.29 1806.33 36.10 1804.28 38.30 C 1801.31 38.43 1798.99 36.95 1797.00 34.94 C 1795.47 35.78 1794.16 38.42 1792.17 37.28 C 1789.11 36.40 1788.68 31.09 1792.13 30.41 C 1790.95 29.07 1789.65 27.85 1788.30 26.73 C 1787.30 28.46 1786.35 30.22 1785.46 31.99 C 1784.27 32.04 1783.12 32.05 1781.98 32.02 C 1780.06 30.53 1779.24 27.91 1777.03 26.74 C 1775.78 27.59 1774.62 28.57 1773.47 29.51 C 1772.19 27.73 1771.21 25.78 1769.97 23.99 C 1765.52 23.46 1767.18 29.36 1766.66 32.07 C 1764.18 32.55 1761.92 31.85 1760.07 30.21 C 1758.16 33.41 1756.47 37.29 1752.96 38.99 C 1747.72 38.75 1746.91 32.52 1743.91 29.33 C 1743.46 30.65 1743.04 31.97 1742.66 33.29 C 1737.16 32.24 1735.12 25.91 1731.01 22.86 C 1727.57 23.59 1728.66 29.30 1724.88 29.96 C 1722.26 31.07 1720.75 28.11 1719.08 26.70 C 1719.03 26.09 1718.93 24.88 1718.88 24.27 C 1718.41 23.95 1717.48 23.32 1717.02 23.00 C 1715.58 26.28 1713.79 29.39 1711.51 32.15 C 1708.60 30.30 1706.72 27.37 1704.67 24.70 C 1703.64 26.02 1702.66 27.37 1701.73 28.74 C 1704.16 30.47 1708.93 30.96 1708.32 34.90 C 1708.16 37.19 1705.78 37.94 1704.16 39.00 C 1703.15 38.52 1702.16 38.05 1701.20 37.58 C 1699.86 35.70 1699.20 33.01 1696.95 32.04 C 1693.57 34.06 1694.04 38.33 1694.00 41.69 C 1695.57 42.05 1697.08 42.64 1698.35 43.69 C 1697.08 46.34 1694.70 48.85 1695.15 51.98 C 1697.23 54.77 1700.39 56.50 1703.21 58.47 C 1705.76 57.06 1708.21 55.41 1710.20 53.24 C 1710.25 51.57 1710.37 49.91 1710.56 48.25 C 1709.96 46.96 1708.42 45.69 1709.06 44.13 C 1710.65 41.79 1713.74 41.93 1716.19 41.16 C 1717.94 41.89 1719.71 42.67 1721.33 43.70 C 1719.65 46.72 1717.95 50.02 1718.83 53.57 C 1720.87 54.65 1723.05 55.66 1724.68 57.36 C 1725.51 58.94 1725.28 60.83 1725.65 62.53 C 1725.76 57.85 1730.67 56.31 1734.22 54.60 C 1734.27 51.94 1733.98 49.28 1733.43 46.69 C 1734.64 45.90 1734.99 44.56 1735.21 43.20 C 1736.07 42.45 1736.98 41.71 1737.91 40.98 C 1740.43 42.40 1743.73 42.74 1745.61 45.13 C 1745.16 48.42 1741.41 51.42 1742.76 54.84 C 1745.48 56.42 1748.08 58.20 1750.23 60.55 C 1749.31 61.31 1748.41 62.07 1747.53 62.81 C 1747.71 63.15 1748.07 63.81 1748.25 64.14 C 1751.08 60.36 1755.53 58.59 1758.96 55.57 C 1759.37 51.97 1757.85 48.42 1757.80 44.80 C 1760.73 43.66 1763.85 42.82 1767.04 42.98 C 1768.46 43.60 1770.02 45.17 1769.31 46.89 C 1768.62 49.84 1767.47 52.65 1766.61 55.55 C 1770.05 56.12 1773.30 58.58 1773.30 62.35 C 1774.00 61.08 1774.60 59.71 1775.57 58.58 C 1777.51 56.78 1780.55 55.79 1781.19 52.91 C 1781.25 50.38 1779.39 48.33 1778.51 46.07 C 1779.11 45.84 1780.32 45.38 1780.92 45.15 C 1782.40 41.47 1786.45 41.15 1789.90 40.87 C 1790.59 41.92 1791.73 42.76 1792.03 44.05 C 1791.97 47.43 1788.13 50.18 1789.39 53.61 C 1791.54 56.01 1794.32 57.74 1796.63 59.99 C 1796.12 60.89 1795.64 61.79 1795.18 62.69 C 1795.50 62.47 1796.14 62.03 1796.46 61.81 C 1798.57 57.56 1803.63 55.90 1805.88 51.62 C 1805.87 51.04 1805.86 49.88 1805.85 49.30 C 1804.49 47.25 1802.62 43.94 1805.26 42.09 C 1809.12 41.23 1813.45 42.69 1816.31 45.39 C 1815.44 48.50 1814.05 51.42 1812.80 54.38 C 1817.71 57.70 1823.02 60.42 1827.86 63.89 C 1830.57 60.67 1833.35 57.28 1837.46 55.81 C 1836.93 52.52 1834.75 49.71 1834.83 46.30 C 1836.65 45.39 1837.49 43.52 1838.41 41.82 C 1840.93 42.15 1843.41 42.77 1845.88 43.42 C 1847.08 47.07 1844.86 50.58 1844.16 54.09 C 1846.52 56.11 1849.26 57.61 1851.93 59.21 C 1852.03 60.08 1852.23 61.80 1852.33 62.67 C 1853.30 61.69 1853.82 60.43 1854.28 59.14 C 1856.21 57.84 1858.21 56.62 1860.27 55.50 C 1860.28 51.90 1859.09 48.45 1858.70 44.89 C 1862.22 43.22 1866.06 42.40 1869.96 43.08 C 1870.58 47.11 1868.13 50.68 1868.11 54.62 C 1871.29 57.42 1874.94 59.78 1877.30 63.42 C 1879.42 60.40 1882.77 58.83 1885.67 56.71 C 1889.45 54.04 1884.30 49.99 1884.83 46.47 C 1886.55 44.97 1888.14 43.31 1890.02 41.99 C 1892.58 41.94 1894.90 43.25 1897.25 44.15 C 1897.51 47.67 1894.63 50.46 1894.78 53.88 C 1895.92 56.21 1898.37 57.48 1900.49 58.80 C 1899.96 60.10 1900.06 61.33 1900.79 62.49 C 1900.83 61.61 1900.90 59.85 1900.94 58.98 C 1903.73 56.93 1907.91 56.25 1909.54 52.95 C 1909.36 50.17 1907.95 47.46 1908.82 44.67 C 1909.18 44.94 1909.90 45.47 1910.26 45.74 C 1910.69 44.52 1911.16 43.31 1911.67 42.11 C 1914.07 42.29 1916.50 42.28 1918.93 42.54 C 1920.56 42.70 1920.23 44.86 1920.07 46.01 C 1919.24 48.84 1918.04 51.54 1917.23 54.38 C 1920.65 56.33 1925.83 57.85 1925.28 62.83 C 1926.02 61.65 1926.75 60.45 1927.50 59.24 C 1930.12 57.76 1933.79 56.99 1935.04 53.94 C 1934.58 51.96 1933.54 50.16 1933.24 48.16 C 1933.98 45.48 1936.48 43.89 1938.39 42.06 C 1940.62 42.97 1943.04 43.58 1945.09 44.94 C 1945.19 48.19 1943.02 50.91 1942.53 54.06 C 1946.03 56.58 1949.32 59.68 1952.83 62.04 C 1956.70 59.66 1960.76 57.54 1964.35 54.72 C 1963.74 51.22 1960.23 47.98 1962.35 44.35 C 1964.58 41.41 1968.78 42.99 1971.86 43.21 C 1972.49 44.86 1973.71 46.78 1972.61 48.51 C 1971.60 50.02 1970.90 51.65 1971.03 53.49 C 1971.66 53.68 1972.92 54.05 1973.55 54.23 C 1976.04 56.77 1979.16 59.30 1982.96 59.02 C 1985.42 58.02 1987.37 56.08 1989.42 54.42 C 1990.86 53.73 1992.86 53.07 1991.80 51.05 C 1990.07 48.79 1989.32 45.98 1990.96 43.40 C 1993.05 43.32 1995.21 43.20 1997.27 42.63 C 1998.66 43.03 2000.62 43.34 2000.96 45.10 C 2002.35 48.54 1999.16 51.42 1998.64 54.70 C 2002.21 57.55 2006.29 59.63 2010.16 62.04 C 2013.75 59.74 2016.84 56.36 2020.64 54.15 C 2019.66 50.96 2017.86 47.96 2017.97 44.53 C 2020.22 43.75 2022.47 42.89 2024.72 42.01 C 2026.57 43.85 2028.90 45.50 2029.77 48.08 C 2029.44 50.15 2028.38 52.01 2027.93 54.03 C 2029.37 56.98 2032.83 57.79 2035.51 59.24 C 2036.21 60.46 2036.94 61.67 2037.72 62.86 C 2037.14 57.87 2042.33 56.34 2045.77 54.36 C 2044.96 50.58 2042.19 47.05 2043.00 43.06 C 2045.40 41.28 2048.81 41.58 2051.54 42.43 C 2051.97 43.50 2052.34 44.62 2052.71 45.74 C 2053.10 45.48 2053.87 44.96 2054.25 44.70 C 2055.40 47.96 2052.11 51.64 2054.38 54.50 C 2056.77 56.31 2059.58 57.46 2062.16 59.02 C 2062.09 59.71 2061.96 61.11 2061.89 61.81 L 2063.27 61.76 C 2063.03 61.04 2062.55 59.60 2062.31 58.88 C 2064.50 57.56 2067.03 56.26 2068.22 53.85 C 2068.30 50.45 2065.52 47.66 2065.73 44.15 C 2068.06 43.13 2070.48 42.28 2073.01 41.77 C 2074.67 43.38 2076.38 44.94 2078.15 46.45 C 2078.22 49.52 2075.97 51.96 2075.79 54.95 C 2078.39 58.53 2083.26 59.68 2085.82 63.43 C 2088.00 59.67 2091.77 57.43 2094.91 54.59 C 2094.82 50.67 2092.43 47.13 2093.03 43.12 C 2096.90 42.39 2100.76 43.21 2104.29 44.88 C 2104.15 48.30 2102.50 51.59 2102.78 55.00 C 2104.40 56.79 2106.74 57.75 2108.71 59.15 C 2109.12 60.43 2109.68 61.69 2110.67 62.67 C 2110.77 61.81 2110.97 60.08 2111.07 59.22 C 2113.72 57.60 2116.49 56.11 2118.86 54.04 C 2118.09 51.31 2117.11 48.64 2116.57 45.85 C 2116.74 41.93 2121.79 42.44 2124.59 41.91 C 2125.49 43.58 2126.37 45.40 2128.18 46.31 C 2128.20 49.70 2126.10 52.52 2125.52 55.78 C 2129.60 57.28 2132.41 60.65 2135.12 63.89 C 2139.98 60.44 2145.26 57.69 2150.20 54.39 C 2148.94 51.43 2147.56 48.51 2146.68 45.41 C 2149.53 42.68 2153.86 41.24 2157.75 42.10 C 2160.35 43.95 2158.48 47.26 2157.15 49.31 C 2157.14 49.87 2157.12 51.01 2157.11 51.58 C 2159.33 55.88 2164.41 57.57 2166.55 61.82 C 2166.86 62.03 2167.47 62.47 2167.77 62.69 C 2167.29 61.78 2166.83 60.88 2166.39 59.98 C 2168.68 57.72 2171.45 55.99 2173.63 53.60 C 2174.64 49.86 2170.76 46.79 2170.75 43.00 C 2174.37 40.48 2180.18 40.54 2182.08 45.15 C 2182.69 45.38 2183.89 45.84 2184.50 46.07 C 2183.32 48.86 2180.25 52.18 2182.89 55.09 C 2185.49 57.19 2188.57 58.89 2189.67 62.32 C 2189.72 58.58 2192.94 56.11 2196.39 55.55 C 2195.46 52.07 2193.63 48.75 2193.59 45.11 C 2196.19 41.11 2201.62 43.75 2205.19 44.78 C 2204.96 47.88 2204.26 50.91 2203.89 53.99 C 2203.45 56.29 2206.09 57.27 2207.67 58.25 C 2210.44 59.50 2212.46 61.83 2214.46 64.06 C 2214.80 63.66 2215.17 63.26 2215.58 62.86 C 2214.59 62.11 2213.66 61.36 2212.75 60.60 C 2214.87 58.23 2217.47 56.41 2220.23 54.84 C 2221.51 51.46 2217.96 48.40 2217.31 45.15 C 2219.25 42.80 2222.48 42.38 2225.07 41.00 C 2225.96 41.72 2226.85 42.45 2227.78 43.19 C 2227.96 44.56 2228.30 45.90 2229.58 46.68 C 2228.99 49.27 2228.70 51.93 2228.77 54.59 C 2232.30 56.31 2237.23 57.86 2237.34 62.55 C 2237.64 60.84 2237.48 58.97 2238.31 57.39 C 2239.90 55.66 2242.10 54.65 2244.18 53.57 C 2245.03 50.00 2243.32 46.70 2241.65 43.68 C 2244.65 41.47 2248.53 42.76 2251.99 42.24 C 2254.56 43.64 2254.26 46.33 2252.44 48.24 C 2252.58 49.91 2252.70 51.58 2252.81 53.26 C 2254.79 55.41 2257.22 57.07 2259.79 58.47 C 2262.58 56.51 2265.73 54.79 2267.82 52.01 C 2268.49 48.72 2265.25 46.36 2265.06 43.22 C 2269.07 41.02 2273.75 42.71 2277.16 45.27 C 2277.22 48.34 2275.92 51.10 2274.99 53.93 C 2278.31 57.52 2283.23 59.11 2286.55 62.76 C 2289.81 59.70 2292.69 55.51 2297.44 54.80 C 2297.32 51.05 2293.50 48.10 2294.28 44.45 C 2298.13 43.48 2302.05 42.50 2306.07 42.45 C 2306.10 44.75 2306.12 47.05 2305.95 49.34 C 2305.33 50.48 2303.88 52.35 2305.15 53.54 C 2307.94 55.65 2310.67 57.87 2313.06 60.46 C 2315.45 57.83 2318.08 55.40 2321.20 53.63 C 2320.45 50.07 2317.02 46.64 2318.96 42.94 C 2322.23 43.22 2325.53 43.43 2328.84 43.47 C 2330.43 46.76 2328.72 50.20 2328.50 53.58 C 2331.17 56.85 2335.95 58.12 2337.77 62.23 C 2338.94 58.39 2342.91 57.08 2345.69 54.67 C 2346.45 52.87 2345.28 50.82 2344.93 49.00 C 2344.67 47.43 2343.03 45.10 2345.17 44.21 C 2347.87 43.74 2350.62 43.42 2353.37 43.07 C 2356.77 46.24 2352.35 50.92 2354.15 54.59 C 2356.20 57.20 2359.13 58.89 2362.00 60.47 L 2362.00 70.58 C 2360.73 70.36 2359.48 70.13 2358.27 69.91 C 2357.05 67.00 2355.94 64.03 2354.18 61.40 C 2352.97 63.55 2351.76 65.68 2350.61 67.84 C 2349.31 67.93 2348.05 68.01 2346.82 68.09 C 2346.21 65.65 2346.01 63.14 2345.79 60.65 C 2343.64 64.00 2342.80 68.26 2339.63 70.88 C 2334.32 71.91 2333.60 65.71 2332.07 62.18 C 2330.69 63.88 2329.24 65.50 2327.76 67.08 C 2326.59 66.96 2325.46 66.81 2324.37 66.60 C 2323.11 64.51 2322.69 62.02 2321.14 60.10 C 2318.33 63.24 2318.07 69.82 2312.98 70.04 C 2308.80 68.06 2308.96 60.99 2303.81 60.09 C 2304.28 60.73 2304.80 61.36 2305.34 61.99 C 2303.85 64.17 2303.06 66.69 2301.74 68.95 C 2300.26 69.28 2298.72 69.35 2297.32 68.90 C 2295.34 67.11 2295.93 64.12 2295.13 61.78 C 2293.08 64.69 2291.49 67.86 2289.76 70.95 C 2287.60 71.83 2285.30 72.04 2283.19 71.00 C 2282.07 68.95 2280.94 66.91 2279.86 64.85 C 2279.08 65.14 2278.34 65.44 2277.63 65.73 C 2276.98 65.46 2275.68 64.94 2275.03 64.67 C 2274.43 63.00 2273.86 61.31 2272.96 59.78 C 2269.89 60.92 2272.50 64.97 2274.45 66.05 C 2273.23 68.49 2269.26 68.60 2267.57 66.71 C 2266.87 64.63 2266.49 62.48 2265.82 60.41 C 2262.53 62.71 2263.39 68.69 2258.94 69.46 C 2255.42 69.49 2255.76 65.53 2254.73 63.18 C 2254.11 60.82 2251.15 61.46 2249.37 61.10 C 2248.89 62.43 2249.01 64.28 2247.30 64.58 C 2246.04 63.57 2244.90 62.45 2243.76 61.37 C 2241.86 63.42 2242.06 66.39 2240.63 68.66 C 2239.51 70.53 2236.54 70.39 2235.37 68.70 C 2234.20 66.83 2233.43 64.75 2232.57 62.75 C 2229.86 62.53 2228.34 64.75 2227.34 66.90 C 2226.01 67.28 2224.43 68.26 2223.28 67.03 C 2222.07 65.81 2221.89 63.97 2220.99 62.57 C 2218.17 64.64 2217.81 68.42 2215.85 71.12 C 2214.02 71.10 2212.21 71.07 2210.43 71.01 C 2208.98 68.26 2208.29 64.11 2204.54 63.78 C 2202.84 62.82 2201.83 60.84 2199.76 60.51 C 2200.45 62.53 2201.85 64.07 2203.83 64.92 C 2202.87 66.48 2202.28 68.81 2199.97 68.10 C 2196.66 68.72 2196.95 64.50 2196.49 62.42 C 2192.90 64.10 2194.27 70.04 2189.82 70.62 C 2185.35 70.81 2186.91 63.63 2183.07 62.73 C 2181.24 63.62 2180.23 65.45 2179.07 66.99 C 2178.27 67.01 2176.68 67.06 2175.89 67.09 C 2175.35 65.30 2174.89 63.48 2174.49 61.66 C 2169.91 62.96 2170.49 69.31 2166.14 71.11 C 2162.63 69.13 2162.67 64.60 2160.01 61.92 C 2157.30 61.78 2156.25 65.28 2153.53 65.37 C 2152.65 64.16 2151.83 62.97 2150.98 61.78 C 2150.48 61.98 2149.49 62.40 2148.99 62.60 C 2150.29 64.00 2151.63 65.38 2153.09 66.66 C 2152.72 68.10 2152.34 69.52 2151.96 70.94 C 2150.27 70.99 2148.60 71.03 2146.97 71.08 C 2145.95 68.54 2145.83 65.79 2145.50 63.12 C 2143.10 65.76 2141.49 69.06 2138.84 71.44 C 2136.59 71.84 2134.28 71.69 2132.07 71.36 C 2130.14 68.59 2128.91 65.27 2126.08 63.24 C 2124.89 64.79 2123.86 66.44 2122.90 68.13 C 2121.52 68.11 2120.18 68.04 2118.86 67.91 C 2117.11 66.58 2117.33 63.87 2115.84 62.35 C 2112.59 64.27 2113.16 69.83 2108.94 70.62 C 2105.97 70.28 2105.71 66.50 2104.51 64.37 C 2103.91 62.65 2101.79 63.30 2100.46 62.98 C 2099.55 64.56 2099.08 66.50 2097.64 67.69 C 2096.46 67.89 2095.30 68.03 2094.16 68.11 C 2093.68 66.81 2093.21 65.52 2092.76 64.22 C 2091.39 66.37 2090.51 68.76 2089.68 71.14 C 2087.22 71.25 2084.78 71.23 2082.35 71.13 C 2081.45 68.60 2080.72 66.02 2079.73 63.53 C 2078.51 64.87 2077.43 66.31 2076.55 67.85 C 2075.69 68.27 2074.86 68.68 2074.06 69.09 C 2073.07 68.67 2072.10 68.26 2071.16 67.85 C 2070.46 65.82 2069.93 63.74 2069.51 61.64 C 2067.29 63.82 2066.44 66.79 2065.41 69.61 C 2064.14 70.45 2062.58 70.20 2061.25 69.88 C 2059.19 67.66 2059.81 63.75 2057.08 62.18 C 2053.93 62.70 2052.97 66.07 2050.70 67.80 C 2046.89 69.07 2045.72 64.37 2045.55 61.60 C 2043.54 63.50 2042.38 65.98 2041.50 68.54 C 2040.81 70.87 2038.07 70.76 2036.17 70.49 C 2034.07 69.10 2033.74 66.31 2032.46 64.30 C 2031.37 62.95 2029.66 63.51 2028.27 63.68 C 2027.47 65.46 2026.88 67.35 2025.71 68.91 C 2024.16 69.23 2022.59 69.19 2021.07 69.22 C 2020.28 66.84 2019.63 64.41 2018.67 62.10 C 2016.88 64.75 2016.00 67.96 2013.91 70.38 C 2011.74 70.53 2009.58 70.33 2007.45 70.23 C 2006.53 68.42 2005.57 66.63 2004.67 64.82 C 2003.15 67.03 2001.17 68.93 1998.28 68.13 C 1997.52 65.66 1996.91 63.14 1996.40 60.62 C 1994.73 61.90 1993.31 63.43 1991.72 64.77 C 1990.28 65.14 1988.81 64.89 1987.40 64.90 C 1987.18 64.17 1986.74 62.69 1986.52 61.95 C 1983.57 63.93 1983.89 67.48 1983.78 70.60 C 1979.96 69.00 1979.23 64.61 1976.50 61.92 C 1976.27 62.66 1975.82 64.16 1975.59 64.90 C 1974.36 64.96 1973.15 64.97 1971.97 64.93 C 1969.62 64.70 1968.91 60.86 1966.52 61.16 C 1965.88 63.48 1965.38 65.82 1964.74 68.12 C 1961.81 68.95 1959.82 67.00 1958.31 64.81 C 1957.37 66.68 1956.40 68.53 1955.52 70.41 C 1953.34 70.54 1951.17 70.64 1949.02 70.73 C 1947.36 67.91 1946.01 64.92 1944.34 62.11 C 1943.35 64.42 1942.69 66.84 1941.92 69.22 C 1940.36 69.20 1938.80 69.25 1937.32 68.91 C 1936.07 67.38 1935.50 65.46 1934.74 63.68 C 1931.06 62.06 1929.55 65.83 1928.51 68.54 C 1927.58 71.76 1922.44 71.72 1921.51 68.55 C 1920.59 66.00 1919.44 63.52 1917.47 61.61 C 1917.21 64.39 1916.14 69.03 1912.31 67.81 C 1910.03 66.07 1909.04 62.71 1905.92 62.18 C 1903.27 63.91 1903.38 67.63 1901.87 70.21 C 1900.43 70.02 1898.83 70.37 1897.58 69.60 C 1896.54 66.78 1895.70 63.80 1893.48 61.65 C 1893.01 63.73 1892.53 65.80 1891.87 67.82 C 1890.88 68.24 1889.91 68.66 1888.97 69.08 C 1888.09 68.68 1887.23 68.27 1886.40 67.86 C 1885.53 66.39 1884.60 64.96 1883.67 63.55 C 1882.05 65.82 1881.54 68.60 1880.71 71.19 C 1878.52 71.48 1876.32 71.75 1874.15 71.54 C 1872.15 69.59 1871.78 66.59 1870.50 64.20 C 1869.86 65.50 1869.28 66.81 1868.70 68.12 C 1865.15 68.77 1863.57 65.80 1862.56 62.99 C 1861.44 63.06 1860.36 63.17 1859.30 63.34 C 1857.23 65.46 1857.51 69.35 1854.54 70.73 C 1849.91 70.29 1850.45 64.28 1847.07 62.30 C 1845.72 64.00 1845.83 66.64 1844.06 68.00 C 1842.74 68.16 1841.45 68.14 1840.19 67.93 C 1838.98 66.44 1838.01 64.78 1836.89 63.25 C 1834.38 65.13 1832.98 67.94 1831.52 70.61 C 1831.01 72.18 1829.26 71.92 1828.00 72.02 C 1826.36 71.97 1824.33 72.31 1823.30 70.75 C 1821.31 68.27 1819.64 65.53 1817.39 63.27 C 1817.09 65.90 1817.08 68.63 1816.00 71.09 C 1814.33 71.06 1812.68 71.02 1811.06 70.97 C 1810.63 69.55 1810.24 68.12 1809.92 66.69 C 1811.53 65.36 1812.89 63.74 1814.06 61.99 C 1811.71 61.65 1810.49 63.67 1809.39 65.31 C 1806.64 65.23 1805.65 61.74 1802.93 61.89 C 1800.39 64.68 1800.30 69.08 1796.90 71.12 C 1792.49 69.34 1793.08 62.99 1788.52 61.65 C 1788.04 63.47 1787.63 65.30 1787.11 67.10 C 1786.31 67.06 1784.71 67.00 1783.90 66.97 C 1782.55 65.08 1781.19 62.64 1778.50 62.87 C 1777.50 65.29 1776.49 67.70 1775.59 70.14 C 1773.19 71.25 1770.23 70.03 1769.67 67.37 C 1768.78 65.89 1768.82 62.53 1766.47 62.98 C 1765.88 64.60 1766.19 66.67 1764.80 67.90 C 1763.47 68.04 1762.17 68.13 1760.88 68.17 C 1760.48 67.35 1759.68 65.70 1759.28 64.87 C 1761.22 64.02 1762.53 62.49 1763.24 60.48 C 1760.41 61.07 1759.35 64.40 1756.31 64.51 C 1754.34 66.05 1753.70 68.78 1752.54 70.93 C 1750.71 70.94 1748.90 70.95 1747.11 70.98 C 1745.12 68.31 1744.76 64.56 1741.96 62.51 C 1740.89 64.34 1740.73 67.50 1738.07 67.68 C 1737.47 67.48 1736.26 67.08 1735.66 66.89 C 1734.61 64.76 1733.11 62.47 1730.40 62.79 C 1728.94 65.48 1728.28 70.70 1724.12 69.90 C 1720.55 68.66 1721.68 63.75 1719.24 61.39 C 1717.82 62.61 1716.42 63.84 1715.00 65.02 C 1714.50 63.78 1714.05 62.52 1713.64 61.27 C 1712.35 61.27 1711.09 61.24 1709.85 61.19 C 1706.75 63.30 1708.53 69.22 1704.08 69.46 C 1699.58 68.71 1700.47 62.71 1697.18 60.41 C 1696.48 62.47 1696.09 64.62 1695.44 66.69 C 1693.55 68.81 1689.65 68.25 1688.30 65.78 C 1690.97 65.03 1691.95 62.31 1691.05 59.86 C 1688.65 60.17 1688.72 63.24 1687.97 64.97 C 1686.32 65.33 1684.66 65.48 1683.04 65.14 C 1681.92 67.09 1680.84 69.06 1679.79 71.03 C 1677.62 71.95 1675.31 71.83 1673.20 70.90 C 1671.48 67.82 1669.88 64.66 1667.86 61.77 C 1667.04 64.13 1667.63 67.14 1665.65 68.93 C 1664.21 69.35 1662.70 69.27 1661.29 68.96 C 1659.90 66.71 1659.13 64.13 1657.63 61.94 C 1658.15 61.35 1658.68 60.76 1659.24 60.16 C 1654.47 61.12 1653.61 67.02 1650.80 70.28 C 1645.70 70.27 1644.70 64.66 1642.72 61.12 C 1639.97 59.96 1640.33 63.84 1639.29 65.38 C 1638.92 67.31 1636.64 66.70 1635.26 67.09 C 1633.85 65.54 1632.46 63.96 1631.00 62.48 C 1629.07 65.77 1628.70 72.03 1623.35 70.85 C 1620.19 68.22 1619.32 63.98 1617.20 60.62 C 1616.95 63.13 1616.78 65.65 1616.16 68.10 C 1614.88 68.01 1613.62 67.93 1612.38 67.84 C 1611.21 65.69 1610.01 63.56 1608.85 61.42 C 1606.99 64.04 1605.89 67.06 1604.73 70.02 C 1603.11 70.12 1600.72 71.09 1599.76 69.24 C 1598.06 66.11 1597.62 61.87 1593.85 60.43 C 1593.76 62.29 1593.74 64.16 1593.71 66.02 C 1591.86 66.08 1589.01 67.11 1588.60 64.48 C 1589.08 64.28 1590.05 63.90 1590.53 63.70 C 1590.28 63.00 1589.77 61.60 1589.52 60.90 C 1588.71 61.91 1587.89 62.89 1587.07 63.87 L 1586.79 61.35 C 1586.42 61.25 1585.70 61.03 1585.34 60.93 C 1583.19 63.78 1582.11 67.26 1579.87 70.05 C 1579.12 70.05 1577.62 70.06 1576.86 70.07 C 1575.26 67.53 1574.09 64.76 1572.89 62.03 C 1571.98 61.82 1570.15 61.42 1569.24 61.21 C 1568.50 63.41 1567.76 65.60 1566.92 67.75 C 1566.12 68.05 1564.52 68.65 1563.72 68.95 C 1560.56 67.85 1559.84 64.53 1559.18 61.66 C 1555.84 63.99 1555.28 69.49 1550.98 70.35 C 1547.20 69.85 1547.53 64.83 1545.09 62.62 C 1544.00 63.61 1543.01 64.68 1542.01 65.72 C 1541.37 64.53 1540.75 63.35 1540.16 62.16 C 1536.22 64.10 1535.71 68.95 1532.62 71.69 C 1530.42 72.28 1527.60 71.88 1526.55 69.61 C 1525.08 66.84 1523.22 64.30 1520.67 62.44 C 1520.78 65.34 1521.49 68.94 1518.73 70.91 C 1516.84 71.02 1514.23 71.71 1513.22 69.60 C 1512.42 67.43 1512.93 65.10 1513.54 62.96 L 1515.15 64.27 C 1515.40 63.40 1515.90 61.64 1516.15 60.77 C 1514.36 61.11 1513.26 62.63 1511.95 63.70 C 1507.98 63.32 1507.06 67.72 1505.16 70.21 C 1503.89 72.27 1501.17 71.45 1499.26 71.12 C 1498.33 69.21 1497.39 67.31 1496.69 65.31 C 1495.80 64.45 1494.92 63.59 1494.06 62.73 C 1493.55 63.12 1492.52 63.89 1492.00 64.28 C 1491.25 63.36 1490.52 62.44 1489.79 61.53 C 1487.62 64.36 1486.50 68.50 1482.97 69.93 C 1479.09 69.97 1478.46 65.00 1476.66 62.45 C 1474.34 63.84 1474.18 68.34 1471.22 67.98 C 1469.94 66.20 1469.33 63.84 1467.31 62.73 C 1465.31 65.17 1464.61 70.83 1460.41 69.76 C 1457.41 67.84 1456.22 64.29 1454.20 61.53 C 1453.45 62.44 1452.72 63.36 1452.00 64.28 C 1451.49 63.89 1450.45 63.11 1449.93 62.72 C 1449.04 63.58 1448.17 64.44 1447.32 65.30 C 1446.59 67.31 1445.64 69.22 1444.70 71.12 C 1442.91 71.20 1441.02 71.66 1439.34 70.89 C 1437.61 68.79 1436.79 65.99 1434.72 64.18 C 1433.26 63.70 1431.73 63.50 1430.25 63.25 C 1430.00 61.76 1429.13 60.87 1427.64 60.56 C 1427.43 63.14 1430.18 63.44 1431.26 65.20 C 1431.37 67.25 1430.86 69.25 1429.95 71.07 C 1428.00 70.72 1425.42 71.66 1424.15 69.73 C 1422.52 67.64 1423.38 64.85 1423.32 62.44 C 1420.26 64.50 1418.63 67.81 1416.60 70.75 C 1414.87 71.61 1412.77 71.43 1410.94 71.07 C 1408.14 68.46 1407.53 63.99 1403.88 62.13 C 1403.23 63.35 1402.59 64.57 1401.96 65.79 C 1400.90 64.65 1399.87 63.51 1398.86 62.37 C 1396.66 64.93 1396.53 70.93 1392.12 70.17 C 1388.61 68.49 1387.90 63.92 1384.82 61.67 C 1384.15 64.54 1383.42 67.84 1380.29 68.95 C 1379.49 68.65 1377.88 68.05 1377.08 67.75 C 1376.22 65.60 1375.47 63.41 1374.77 61.22 C 1373.85 61.42 1372.02 61.82 1371.11 62.03 C 1369.90 64.76 1368.73 67.52 1367.15 70.05 C 1366.39 70.05 1364.88 70.05 1364.13 70.05 C 1361.62 67.22 1360.96 63.10 1358.02 60.67 C 1357.75 61.47 1357.20 63.07 1356.93 63.86 C 1355.95 62.79 1354.96 61.74 1353.99 60.69 C 1354.29 62.35 1354.75 63.99 1355.49 65.53 C 1353.79 66.20 1352.05 66.32 1350.29 66.01 C 1350.22 64.15 1350.19 62.28 1350.15 60.42 C 1346.01 61.97 1345.99 66.81 1343.74 69.94 C 1342.32 70.65 1340.73 70.10 1339.28 70.03 C 1338.09 67.07 1337.01 64.03 1335.13 61.43 C 1333.96 63.55 1332.78 65.67 1331.66 67.81 C 1330.37 67.91 1329.10 68.01 1327.85 68.11 C 1327.20 65.65 1327.01 63.10 1326.79 60.58 C 1324.97 63.59 1324.02 67.11 1321.74 69.82 C 1320.41 71.68 1317.82 70.74 1316.26 69.73 C 1314.69 67.54 1314.39 64.72 1313.07 62.39 C 1311.57 63.91 1310.18 65.51 1308.76 67.08 C 1307.60 66.97 1306.46 66.80 1305.35 66.58 C 1304.10 64.49 1303.73 61.97 1302.10 60.11 C 1299.88 63.01 1299.27 66.97 1296.43 69.39 C 1294.97 70.69 1292.54 70.01 1291.78 68.28 C 1290.00 65.23 1288.63 61.08 1284.90 60.01 C 1285.34 60.70 1285.80 61.39 1286.28 62.09 C 1284.82 64.23 1284.06 66.73 1282.74 68.94 C 1281.28 69.28 1279.76 69.35 1278.35 68.93 C 1276.35 67.15 1276.95 64.15 1276.15 61.80 C 1274.09 64.64 1272.56 67.80 1270.80 70.82 C 1268.60 70.85 1266.40 70.87 1264.22 70.88 C 1263.09 68.98 1262.03 67.06 1260.95 65.14 C 1259.29 65.48 1257.64 65.33 1256.04 64.97 C 1255.49 63.19 1255.00 61.36 1253.93 59.82 C 1250.87 60.92 1253.53 65.05 1255.53 66.06 C 1254.18 68.44 1250.22 68.66 1248.53 66.64 C 1247.89 64.47 1247.75 62.07 1246.06 60.38 C 1244.67 62.94 1244.00 65.88 1242.30 68.25 C 1241.17 69.88 1238.86 69.53 1237.43 68.56 C 1236.36 66.09 1236.30 63.07 1234.14 61.19 C 1232.89 61.24 1231.66 61.27 1230.44 61.27 C 1229.94 62.58 1229.38 63.85 1228.53 64.96 C 1227.27 63.75 1226.06 62.53 1224.84 61.31 C 1222.28 63.64 1223.48 68.56 1219.93 69.86 C 1215.76 70.76 1215.29 65.63 1213.56 63.14 C 1210.90 61.68 1209.43 65.11 1208.33 66.90 C 1204.86 69.30 1202.90 65.45 1202.06 62.65 C 1199.10 64.50 1198.86 68.46 1196.86 71.11 C 1195.03 71.02 1193.21 70.93 1191.41 70.85 C 1190.27 68.72 1189.62 66.10 1187.74 64.52 C 1184.68 64.41 1183.58 61.11 1180.77 60.49 C 1181.42 62.56 1182.85 64.05 1184.83 64.92 C 1184.67 68.48 1178.63 69.71 1178.16 65.94 C 1177.62 64.95 1178.23 62.19 1176.36 63.00 C 1174.71 64.74 1174.84 67.49 1173.25 69.24 C 1171.87 70.24 1169.88 71.40 1168.49 69.81 C 1167.26 67.60 1166.44 65.20 1165.49 62.86 C 1161.65 62.57 1161.03 68.16 1156.92 67.28 C 1156.39 65.43 1155.93 63.56 1155.52 61.70 C 1150.76 62.66 1151.82 69.70 1147.09 70.73 C 1143.33 69.42 1143.81 64.33 1140.99 61.91 C 1138.32 61.77 1137.31 65.23 1134.62 65.32 C 1133.51 63.64 1132.26 61.73 1129.97 61.92 C 1131.07 63.71 1132.40 65.36 1134.08 66.66 C 1133.73 68.11 1133.34 69.54 1132.95 70.97 C 1131.29 71.02 1129.63 71.06 1128.00 71.10 C 1126.91 68.62 1126.86 65.89 1126.62 63.24 C 1123.94 65.79 1122.36 69.26 1119.64 71.74 C 1117.57 72.27 1115.37 72.14 1113.29 71.80 C 1111.26 68.91 1110.06 65.37 1107.08 63.23 C 1105.90 64.78 1104.88 66.43 1103.93 68.12 C 1102.57 68.10 1101.22 68.03 1099.88 67.90 C 1098.00 66.70 1098.50 63.71 1096.76 62.38 C 1093.56 64.47 1094.00 70.33 1089.43 70.74 C 1086.78 69.39 1086.59 66.11 1085.20 63.81 C 1084.27 62.79 1082.65 63.27 1081.46 62.97 C 1080.57 64.55 1080.08 66.47 1078.67 67.68 C 1077.50 67.88 1076.33 68.02 1075.16 68.11 C 1074.68 66.81 1074.21 65.50 1073.75 64.20 C 1072.31 66.78 1071.28 69.55 1069.85 72.14 C 1067.70 71.71 1064.93 72.58 1063.34 70.75 C 1062.21 68.54 1061.93 66.02 1060.76 63.84 C 1059.22 64.75 1058.40 66.36 1057.58 67.86 C 1056.72 68.27 1055.87 68.68 1055.04 69.08 C 1054.07 68.67 1053.10 68.25 1052.15 67.84 C 1051.47 65.82 1050.96 63.75 1050.53 61.67 C 1048.28 63.79 1047.45 66.76 1046.43 69.57 C 1045.23 70.57 1043.60 70.25 1042.24 69.89 C 1040.18 67.67 1040.85 63.69 1038.03 62.19 C 1034.05 62.56 1033.59 69.09 1029.20 67.81 C 1027.06 66.47 1026.98 63.80 1026.53 61.59 C 1024.32 63.64 1023.32 66.47 1022.19 69.17 C 1021.09 71.70 1016.92 71.81 1015.86 69.20 C 1014.49 66.48 1013.33 61.92 1009.26 63.69 C 1008.47 65.46 1007.91 67.38 1006.69 68.91 C 1005.17 69.26 1003.61 69.20 1002.09 69.24 C 1001.29 66.86 1000.63 64.42 999.66 62.10 C 997.67 65.37 996.35 69.04 993.82 71.96 C 992.27 71.90 990.73 71.85 989.20 71.78 C 988.04 69.41 986.81 67.07 985.54 64.77 C 984.19 67.14 982.14 68.95 979.25 68.10 C 978.60 65.80 978.09 63.47 977.48 61.17 C 975.77 60.67 975.06 63.03 973.84 63.82 C 972.57 65.65 970.18 64.79 968.35 64.86 C 968.14 64.13 967.73 62.67 967.52 61.94 C 964.50 64.01 964.89 67.67 964.86 70.89 C 961.14 69.01 960.22 64.74 957.52 61.91 C 957.29 62.66 956.83 64.15 956.60 64.90 C 955.35 64.96 954.12 64.97 952.90 64.94 C 950.62 64.60 949.83 60.76 947.52 61.23 C 946.88 63.51 946.39 65.82 945.75 68.10 C 942.82 68.99 940.83 67.02 939.36 64.79 C 938.15 67.10 936.96 69.42 935.81 71.75 C 933.96 71.49 931.61 72.38 930.24 70.77 C 928.13 68.18 927.17 64.88 925.34 62.10 C 924.34 64.41 923.69 66.85 922.91 69.23 C 921.36 69.20 919.79 69.27 918.29 68.90 C 917.09 67.35 916.50 65.45 915.73 63.68 C 911.69 61.92 910.51 66.45 909.16 69.16 C 908.33 71.20 906.02 70.97 904.23 71.17 C 901.89 68.19 901.37 64.16 898.44 61.60 C 898.01 63.92 897.88 67.19 895.14 67.98 C 891.17 68.29 890.78 62.50 886.92 62.18 C 884.53 63.38 884.81 66.52 883.57 68.58 C 882.97 70.65 880.02 70.64 878.57 69.55 C 877.53 66.75 876.69 63.79 874.48 61.65 C 874.02 63.73 873.52 65.81 872.86 67.83 C 871.88 68.25 870.90 68.67 869.94 69.09 C 869.10 68.68 868.27 68.27 867.45 67.86 C 866.54 66.30 865.46 64.86 864.25 63.54 C 863.24 66.04 862.51 68.64 861.68 71.19 C 859.31 71.28 856.47 72.23 854.40 70.80 C 853.26 68.63 852.47 66.30 851.29 64.16 C 850.79 65.47 850.30 66.78 849.84 68.10 C 848.34 67.76 846.24 68.35 845.43 66.70 C 844.71 65.50 844.14 64.24 843.55 62.99 C 842.45 63.06 841.37 63.17 840.31 63.32 C 838.24 65.45 838.53 69.36 835.54 70.72 C 830.92 70.27 831.44 64.32 828.10 62.28 C 826.78 64.01 826.77 66.52 825.13 67.99 C 823.80 68.16 822.49 68.14 821.19 67.93 C 819.99 66.44 819.04 64.78 817.91 63.25 C 815.07 65.22 813.97 68.58 811.95 71.19 C 809.47 71.26 806.67 71.94 804.40 70.82 C 802.32 68.34 800.66 65.53 798.36 63.24 C 798.11 65.86 798.10 68.55 797.02 71.00 C 795.36 70.95 793.70 70.90 792.05 70.86 C 791.63 69.61 791.15 68.36 790.97 67.05 C 792.34 65.35 793.83 63.74 795.06 61.92 C 792.74 61.77 791.47 63.60 790.38 65.33 C 787.67 65.19 786.66 61.82 783.96 61.87 C 781.96 64.20 781.25 67.27 779.70 69.86 C 778.03 71.31 775.56 70.16 774.80 68.32 C 773.31 65.89 772.68 62.45 769.55 61.60 C 769.08 63.44 768.64 65.28 768.11 67.09 C 767.31 67.06 765.71 67.00 764.91 66.97 C 763.56 65.08 762.19 62.61 759.49 62.90 C 758.49 65.31 757.50 67.72 756.58 70.15 C 755.14 70.33 753.62 70.67 752.30 69.91 C 750.22 68.11 750.39 65.01 748.68 62.99 C 745.77 62.32 748.10 68.15 745.01 68.06 C 742.51 68.74 740.89 67.30 740.17 64.93 C 742.12 64.06 743.53 62.54 744.25 60.52 C 742.14 60.84 741.15 62.81 739.47 63.78 C 735.75 64.08 735.06 68.18 733.57 70.86 C 731.75 70.90 729.93 70.94 728.13 71.02 C 726.08 68.40 725.87 64.46 722.92 62.62 C 722.10 64.05 721.87 65.82 720.71 67.03 C 719.56 68.28 717.95 67.25 716.68 66.92 C 715.65 64.77 714.13 62.55 711.44 62.74 C 709.95 65.47 709.27 70.74 705.03 69.91 C 701.57 68.48 702.67 63.76 700.23 61.37 C 698.70 62.17 697.31 65.69 695.41 63.88 C 695.22 63.22 694.82 61.91 694.63 61.26 C 693.36 61.27 692.10 61.25 690.84 61.19 C 687.74 63.29 689.54 69.27 685.05 69.45 C 680.41 68.97 681.83 62.25 678.10 60.83 C 676.77 63.00 677.70 66.70 674.96 67.76 C 673.03 68.05 670.46 68.22 669.59 66.03 C 671.51 64.93 674.04 60.99 671.07 59.75 C 670.13 61.28 669.54 62.98 668.96 64.67 C 668.32 64.93 667.04 65.46 666.40 65.73 C 665.64 65.43 664.89 65.14 664.16 64.85 C 663.05 66.86 662.12 69.00 660.66 70.80 C 658.64 71.96 656.34 71.28 654.23 70.90 C 652.48 67.88 650.91 64.74 648.98 61.83 C 647.95 64.14 648.67 67.20 646.61 68.94 C 645.14 69.18 643.65 69.16 642.19 69.20 C 641.15 66.71 640.14 64.19 638.61 61.95 C 639.15 61.35 639.69 60.75 640.24 60.15 C 635.49 61.14 634.60 66.99 631.81 70.26 C 626.16 70.20 625.69 63.61 622.87 60.10 C 621.27 61.96 620.93 64.47 619.67 66.49 C 618.55 66.84 617.41 67.03 616.24 67.06 C 614.74 65.48 613.28 63.87 611.92 62.19 C 610.28 65.21 610.36 70.29 606.12 70.88 C 604.34 71.46 603.20 69.91 602.35 68.64 C 600.76 66.07 599.73 63.22 598.22 60.61 C 597.97 63.12 597.78 65.65 597.16 68.10 C 595.90 68.02 594.64 67.93 593.39 67.84 C 592.22 65.68 591.01 63.54 589.82 61.40 C 588.03 64.06 586.89 67.06 585.73 70.02 C 584.13 70.05 581.77 71.10 580.79 69.28 C 579.07 66.15 578.65 61.89 574.86 60.43 C 574.78 62.30 574.75 64.18 574.70 66.06 C 573.12 65.81 570.06 67.35 569.88 64.89 C 570.17 64.52 570.77 63.78 571.06 63.41 C 570.94 62.74 570.71 61.40 570.59 60.73 C 569.78 61.80 568.95 62.85 568.10 63.88 L 567.75 61.46 L 566.97 60.87 C 563.94 62.94 563.40 67.35 560.87 70.06 C 560.12 70.06 558.61 70.06 557.85 70.06 C 556.25 67.50 555.07 64.72 553.86 61.97 C 552.61 61.75 551.37 61.52 550.13 61.28 C 549.48 63.46 548.76 65.61 547.95 67.73 C 547.15 68.04 545.54 68.64 544.74 68.95 C 541.56 67.87 540.85 64.53 540.18 61.65 C 537.13 63.95 536.37 68.40 532.93 70.18 C 528.50 70.98 528.31 64.98 526.17 62.38 C 525.12 63.51 524.09 64.65 523.04 65.78 C 522.39 64.57 521.76 63.36 521.14 62.14 C 518.00 63.80 516.94 67.26 515.08 70.02 C 513.83 72.36 510.25 72.02 508.36 70.72 C 506.35 67.78 504.74 64.48 501.67 62.44 C 501.76 65.31 502.54 68.98 499.70 70.87 C 498.26 71.14 496.77 71.12 495.33 70.89 C 493.56 69.55 493.84 67.15 493.75 65.20 C 494.80 63.42 497.57 63.15 497.35 60.55 C 495.84 60.86 494.97 61.76 494.75 63.25 C 493.24 63.50 491.71 63.70 490.26 64.19 C 488.22 66.01 487.39 68.77 485.67 70.86 C 484.06 72.11 482.04 71.42 480.26 71.12 C 479.33 69.21 478.40 67.30 477.69 65.29 C 476.81 64.43 475.94 63.58 475.07 62.73 C 474.58 63.09 473.61 63.82 473.13 64.18 C 472.23 63.32 471.34 62.46 470.45 61.62 C 468.51 64.64 467.22 69.58 463.07 69.97 C 459.92 68.83 459.34 64.98 457.67 62.46 C 455.34 63.84 455.21 68.21 452.27 68.03 C 450.87 66.43 450.49 63.45 448.20 62.94 C 446.27 65.29 445.78 70.09 441.98 69.94 C 438.56 68.47 437.32 64.57 435.53 61.61 C 434.64 62.45 433.76 63.32 432.89 64.18 C 432.40 63.82 431.41 63.10 430.92 62.74 C 430.04 63.60 429.17 64.45 428.30 65.31 C 427.60 67.28 426.69 69.15 425.79 71.03 C 424.00 71.63 421.84 72.33 420.30 70.81 C 418.59 68.73 417.76 66.00 415.74 64.18 C 414.28 63.70 412.75 63.50 411.24 63.25 C 411.02 61.76 410.15 60.86 408.65 60.56 C 408.42 63.15 411.19 63.42 412.25 65.20 C 412.30 66.69 412.14 68.16 411.76 69.59 C 410.80 71.74 408.17 71.02 406.32 70.93 C 403.48 68.99 404.21 65.34 404.32 62.43 C 401.78 64.29 399.93 66.83 398.46 69.57 C 397.42 71.89 394.56 72.29 392.38 71.62 C 389.23 68.98 388.82 64.04 384.85 62.21 C 384.30 63.38 383.64 64.48 382.89 65.51 C 381.78 64.56 380.78 63.48 379.76 62.44 C 377.80 64.97 377.64 69.85 373.97 70.32 C 369.57 69.78 369.43 63.47 365.78 62.08 C 364.95 64.78 364.31 67.91 361.29 68.95 C 360.49 68.65 358.88 68.05 358.08 67.75 C 357.22 65.60 356.48 63.41 355.76 61.21 C 354.84 61.41 353.02 61.82 352.10 62.02 C 350.90 64.77 349.74 67.55 348.11 70.08 C 347.36 70.07 345.87 70.06 345.13 70.05 C 342.63 67.33 342.04 63.12 339.14 60.87 L 338.25 61.38 L 337.95 63.86 C 336.99 62.83 336.02 61.80 335.05 60.79 C 335.32 62.42 335.75 64.03 336.51 65.50 C 334.83 66.21 333.06 66.33 331.29 66.00 C 331.24 64.14 331.20 62.28 331.15 60.42 C 327.01 61.96 327.00 66.78 324.77 69.92 C 323.35 70.68 321.74 70.10 320.26 70.00 C 319.11 67.21 318.11 64.35 316.58 61.75 C 314.57 63.17 313.89 65.80 312.63 67.83 C 311.36 67.92 310.09 68.01 308.83 68.10 C 308.21 65.65 308.03 63.13 307.80 60.62 C 305.67 63.96 304.84 68.23 301.65 70.81 C 296.29 71.86 295.62 65.73 294.07 62.18 C 292.23 64.80 289.89 67.74 286.27 66.90 C 285.47 64.86 284.90 62.73 283.91 60.77 C 281.40 60.69 281.32 63.73 280.28 65.36 C 279.31 68.03 277.16 70.32 274.12 70.22 C 271.43 66.88 270.45 61.27 265.81 60.09 C 266.31 60.73 266.83 61.36 267.35 61.99 C 265.84 64.21 264.85 66.71 263.84 69.18 C 261.96 68.92 259.29 69.85 258.30 67.66 C 257.86 65.73 257.63 63.74 257.01 61.85 C 255.10 64.72 253.57 67.81 251.81 70.76 C 249.68 71.04 247.39 71.69 245.34 70.72 C 243.90 69.07 243.03 67.03 241.96 65.14 C 240.31 65.49 238.65 65.33 237.03 64.96 C 236.32 63.54 235.99 58.68 233.68 60.52 C 233.09 62.93 234.70 64.80 236.56 66.06 C 235.18 68.40 231.33 68.64 229.56 66.71 C 228.91 64.51 228.72 62.10 227.10 60.33 C 225.70 62.90 225.01 65.84 223.31 68.24 C 222.20 69.89 219.89 69.53 218.45 68.57 C 217.37 66.09 217.30 63.08 215.15 61.19 C 213.89 61.24 212.63 61.27 211.37 61.27 C 211.17 62.54 210.67 63.65 209.88 64.60 C 208.18 64.05 207.11 62.46 205.77 61.38 C 203.32 63.77 204.43 68.48 200.96 69.93 C 196.72 70.70 196.05 65.50 194.58 62.75 C 191.86 62.50 190.36 64.78 189.32 66.91 C 185.83 69.28 183.87 65.41 183.03 62.57 C 180.20 64.52 179.91 68.29 177.92 70.90 C 176.08 70.84 174.25 70.80 172.43 70.78 C 171.24 68.71 170.62 66.02 168.71 64.54 C 165.82 64.26 164.52 61.47 162.04 60.42 C 162.29 61.17 162.78 62.68 163.03 63.43 C 163.99 63.87 164.94 64.33 165.90 64.79 C 165.27 67.81 162.83 68.66 160.16 67.98 C 158.83 66.31 158.82 64.05 158.10 62.12 C 156.35 63.96 155.80 66.44 154.75 68.66 C 153.81 70.73 151.30 70.45 149.45 70.19 C 148.48 67.68 147.64 65.08 146.14 62.82 C 143.56 62.59 142.48 65.32 141.09 66.98 C 140.29 67.01 138.69 67.06 137.89 67.09 C 137.36 65.29 136.92 63.47 136.48 61.65 C 131.82 62.70 132.83 69.59 128.19 70.63 C 124.30 69.61 124.84 64.31 122.01 61.93 C 119.41 61.56 118.53 65.12 116.10 65.31 C 114.83 64.36 113.91 63.05 112.87 61.89 C 112.40 62.07 111.45 62.42 110.98 62.60 C 112.30 63.99 113.64 65.37 115.08 66.64 C 114.74 68.06 114.37 69.47 113.98 70.87 C 112.31 70.92 110.64 70.96 108.97 71.01 C 107.90 68.56 107.87 65.86 107.63 63.24 C 105.76 65.19 104.17 67.38 102.62 69.59 C 100.94 72.66 96.98 71.45 94.15 71.40 C 92.11 68.70 90.99 65.27 88.10 63.25 C 86.97 64.78 86.02 66.43 84.84 67.92 C 83.52 68.14 82.20 68.17 80.87 67.98 C 79.19 66.44 78.96 63.93 77.99 61.95 C 74.80 64.35 75.03 70.19 70.41 70.72 C 67.77 69.38 67.60 66.09 66.19 63.80 C 65.27 62.80 63.68 63.26 62.47 62.97 C 61.58 64.57 61.09 66.51 59.62 67.70 C 58.47 67.89 57.31 68.02 56.15 68.10 C 55.69 66.80 55.22 65.50 54.75 64.21 C 53.32 66.75 52.31 69.51 50.87 72.05 C 48.73 71.67 45.90 72.65 44.34 70.74 C 43.18 68.40 42.87 65.71 41.36 63.54 C 40.39 64.95 39.46 66.38 38.59 67.86 C 37.75 68.27 36.90 68.68 36.05 69.08 C 35.10 68.67 34.14 68.25 33.19 67.84 C 32.50 65.79 31.92 63.71 31.33 61.62 C 29.28 63.88 28.48 66.82 27.41 69.59 C 26.16 70.41 24.54 70.01 23.13 70.22 C 21.59 67.65 21.73 63.88 19.06 62.18 C 15.94 62.73 14.96 66.08 12.68 67.82 C 8.88 69.02 7.72 64.39 7.55 61.60 C 3.99 64.24 4.65 70.10 0.00 71.47 L 0.00 59.48 C 1.90 56.83 5.52 56.42 7.53 54.07 C 7.08 50.32 4.14 47.00 4.97 43.11 C 6.03 42.17 7.48 41.94 8.77 41.45 C 11.07 42.40 14.48 42.44 14.64 45.62 C 15.04 45.40 15.83 44.97 16.23 44.75 C 17.48 48.00 14.10 51.64 16.37 54.51 C 18.70 56.25 21.43 57.33 23.86 58.93 C 23.83 60.28 24.26 61.45 25.12 62.45 C 24.94 61.55 24.58 59.75 24.40 58.85 C 26.64 57.35 29.97 55.99 30.30 52.97 C 29.64 49.96 27.64 47.33 27.75 44.12 C 30.11 43.14 32.55 42.35 35.06 41.82 C 36.72 43.41 38.42 44.96 40.16 46.47 C 40.68 50.00 35.50 54.10 39.38 56.75 C 42.26 58.85 45.59 60.43 47.72 63.42 C 50.05 59.75 53.75 57.42 56.91 54.58 C 56.82 50.67 54.44 47.12 55.02 43.12 C 58.91 42.43 62.77 43.23 66.30 44.88 C 65.94 48.46 64.62 51.93 64.79 55.56 C 66.82 56.65 68.80 57.84 70.71 59.13 C 71.15 60.42 71.69 61.69 72.68 62.67 C 72.78 61.80 72.98 60.07 73.08 59.21 C 75.74 57.59 78.51 56.11 80.86 54.04 C 80.11 50.53 77.87 46.99 79.16 43.34 C 81.61 42.72 84.09 42.19 86.61 41.94 C 87.52 43.61 88.40 45.40 90.19 46.32 C 90.21 49.71 88.09 52.53 87.53 55.80 C 91.63 57.28 94.42 60.67 97.14 63.89 C 101.98 60.41 107.29 57.71 112.20 54.36 C 110.94 51.41 109.55 48.50 108.69 45.40 C 111.54 42.62 115.84 41.38 119.73 42.10 C 122.38 43.95 120.48 47.28 119.14 49.33 C 119.13 49.90 119.12 51.03 119.11 51.60 C 121.83 56.21 127.12 58.34 129.70 63.05 C 129.30 61.99 128.90 60.94 128.49 59.89 C 130.75 57.67 133.49 55.98 135.61 53.62 C 137.00 49.85 132.15 46.87 133.14 43.04 C 136.13 40.21 142.42 41.17 144.09 45.16 C 144.69 45.39 145.89 45.84 146.50 46.06 C 144.93 49.07 142.54 52.46 145.09 55.66 C 148.10 56.99 150.52 59.25 151.70 62.36 C 151.68 58.58 154.96 56.13 158.39 55.53 C 157.52 52.05 155.51 48.69 155.65 45.06 C 158.15 41.05 163.65 43.73 167.19 44.80 C 167.02 48.25 165.99 51.59 165.87 55.03 C 166.64 56.91 168.76 57.66 170.38 58.65 C 173.01 59.96 174.82 62.34 176.91 64.32 C 178.28 62.45 176.50 61.55 174.98 60.75 C 176.70 58.02 179.53 56.46 182.21 54.88 C 183.60 51.47 179.87 48.42 179.36 45.12 C 181.77 42.14 186.32 41.68 189.78 42.86 C 189.97 44.33 190.16 45.88 191.59 46.69 C 191.00 49.28 190.72 51.93 190.77 54.59 C 193.79 56.39 199.42 57.45 198.90 61.92 C 199.06 61.95 199.36 62.01 199.51 62.04 C 199.76 60.50 199.46 58.77 200.30 57.39 C 201.90 55.66 204.10 54.66 206.16 53.58 C 207.07 50.01 205.31 46.71 203.67 43.67 C 206.65 41.57 210.44 42.49 213.84 42.27 C 216.50 43.56 216.37 46.30 214.45 48.25 C 214.60 49.91 214.72 51.56 214.80 53.22 C 216.78 55.40 219.22 57.06 221.79 58.47 C 224.60 56.50 227.78 54.77 229.85 51.97 C 230.46 48.70 227.26 46.36 227.05 43.27 C 229.14 41.83 231.82 41.87 234.26 41.54 C 235.67 43.07 237.35 44.32 239.13 45.40 C 239.19 48.49 238.01 51.33 236.77 54.09 C 240.50 57.21 245.10 59.15 248.44 62.77 C 251.83 59.77 254.68 55.51 259.47 54.77 C 259.29 51.04 255.50 48.08 256.29 44.44 C 258.85 43.42 262.37 43.93 264.11 41.45 C 264.27 41.64 264.59 42.03 264.75 42.22 C 265.87 42.49 268.35 42.03 268.06 43.96 C 268.25 45.75 268.11 47.56 267.95 49.35 C 267.37 50.48 265.89 52.36 267.14 53.54 C 269.94 55.65 272.67 57.87 275.06 60.47 C 277.46 57.82 280.11 55.41 283.21 53.60 C 282.44 50.06 279.01 46.61 280.97 42.94 C 284.29 42.92 287.60 42.91 290.92 42.89 C 292.26 46.41 290.89 49.95 290.52 53.49 C 292.99 56.87 298.00 58.06 299.77 62.22 C 300.98 58.41 304.89 57.05 307.71 54.70 C 308.77 51.09 305.10 47.58 306.70 43.98 C 309.80 43.57 312.96 42.85 316.08 43.50 C 318.07 47.08 314.53 51.06 316.18 54.64 C 318.04 56.94 320.67 58.41 322.96 60.24 C 324.95 57.32 328.19 55.74 330.89 53.60 C 330.91 49.96 328.47 46.94 327.80 43.44 C 331.14 41.03 335.28 40.64 339.09 42.16 C 338.69 46.08 338.90 50.01 338.86 53.94 C 341.54 55.97 344.31 57.90 346.86 60.11 C 348.74 56.86 352.63 56.12 355.35 53.95 C 354.92 50.77 353.31 47.94 352.07 45.02 C 353.35 44.30 354.65 43.60 355.95 42.90 C 358.56 43.19 361.85 42.11 363.87 44.25 C 364.56 47.56 363.47 50.82 362.87 54.05 C 366.64 56.73 370.85 58.87 373.83 62.53 C 372.11 58.26 377.77 56.72 379.97 54.05 C 379.53 51.09 377.92 48.35 378.01 45.30 C 379.73 44.00 381.74 43.15 383.61 42.09 C 384.14 42.11 385.18 42.15 385.70 42.17 C 386.15 42.97 386.62 43.76 387.09 44.55 C 388.09 45.07 389.02 45.68 389.90 46.39 C 389.97 49.24 388.01 51.57 386.85 54.04 C 389.34 57.04 391.62 60.21 394.05 63.26 C 397.77 60.30 401.66 57.56 405.24 54.43 C 404.13 52.31 402.91 50.23 402.20 47.95 C 401.63 46.65 401.97 45.71 403.20 45.11 C 406.40 44.08 409.81 44.16 412.93 45.44 C 414.10 48.40 412.70 51.23 411.94 54.07 C 414.58 57.47 418.98 58.92 421.48 62.47 C 422.74 60.14 424.56 58.20 426.34 56.26 C 427.07 56.12 428.54 55.85 429.27 55.72 C 428.29 51.93 426.73 48.25 426.62 44.29 C 428.78 44.08 430.99 43.51 432.11 41.45 C 432.26 41.83 432.58 42.57 432.74 42.94 C 433.43 42.90 434.81 42.81 435.50 42.77 C 435.86 43.13 436.57 43.87 436.93 44.23 C 437.73 47.54 437.43 50.83 436.37 54.04 C 438.01 56.88 441.18 58.45 443.45 60.76 C 446.13 58.35 448.46 54.98 452.35 54.62 C 452.29 53.57 452.22 52.52 452.14 51.47 C 450.05 49.50 447.55 47.11 447.79 43.99 C 450.82 42.29 456.16 41.58 458.41 44.76 C 457.77 47.48 455.91 49.67 453.87 51.47 C 453.78 52.52 453.70 53.57 453.65 54.62 C 457.56 54.89 459.66 58.46 462.54 60.58 C 465.18 58.69 467.61 56.50 469.87 54.17 C 468.37 50.72 467.58 46.02 470.26 42.98 C 473.38 42.23 476.37 43.72 479.38 44.30 C 479.26 48.25 477.71 51.93 476.73 55.71 C 477.46 55.85 478.94 56.13 479.68 56.28 C 481.43 58.20 483.32 60.07 484.37 62.51 C 486.93 58.95 491.61 57.54 494.00 53.92 C 493.35 51.17 491.80 48.44 493.12 45.63 C 496.60 44.99 501.26 43.13 504.07 46.20 C 503.87 49.20 502.09 51.76 500.77 54.37 C 504.27 57.60 508.24 60.27 511.96 63.25 C 514.38 60.19 516.67 57.03 519.14 54.00 C 517.98 51.53 515.88 49.16 516.17 46.27 C 517.02 45.63 517.93 45.07 518.89 44.57 C 519.39 43.75 519.89 42.92 520.38 42.10 C 520.89 42.10 521.89 42.09 522.39 42.09 C 524.31 43.19 526.29 44.18 528.24 45.24 C 527.67 48.25 526.79 51.19 525.87 54.12 C 528.34 56.50 533.81 58.31 532.17 62.53 C 535.16 58.89 539.34 56.69 543.16 54.07 C 543.08 52.67 542.56 51.37 542.11 50.07 C 542.40 47.72 540.76 43.90 543.93 43.08 C 547.25 42.72 551.18 42.52 553.76 45.08 C 552.65 48.21 550.93 51.15 550.68 54.53 C 553.88 55.72 557.21 57.15 559.15 60.12 C 561.69 57.89 564.47 55.96 567.16 53.92 C 567.08 50.13 567.29 46.35 566.98 42.57 C 568.17 41.81 569.35 41.01 570.51 40.17 C 571.17 40.13 572.50 40.05 573.16 40.01 C 572.97 37.35 572.52 34.74 572.00 32.14 C 573.66 32.03 575.33 31.94 577.00 31.84 C 576.05 30.23 575.39 28.21 573.60 27.33 C 570.86 27.11 568.05 26.66 565.32 27.19 C 565.20 27.74 564.96 28.83 564.84 29.37 C 566.13 30.07 567.46 30.73 568.67 31.58 C 569.31 33.20 569.31 35.05 568.98 36.74 C 567.74 38.11 565.83 37.90 564.19 38.16 C 563.02 36.48 561.53 34.88 561.01 32.87 C 561.48 31.82 561.99 30.78 562.55 29.76 C 560.31 28.41 558.38 26.60 556.05 25.44 C 554.46 27.30 553.85 29.72 552.97 31.94 C 554.94 31.99 556.92 32.03 558.91 32.08 C 558.99 34.60 559.38 37.16 558.95 39.67 C 557.55 41.34 555.42 41.89 553.38 42.28 C 550.46 39.93 550.79 36.35 551.33 33.03 C 550.53 33.10 548.91 33.25 548.10 33.32 C 546.24 32.85 547.35 30.35 546.90 28.99 C 545.16 27.10 542.99 28.40 541.05 29.15 C 541.04 29.74 541.03 30.91 541.02 31.49 C 542.17 32.20 543.42 32.88 544.24 34.00 C 542.86 36.23 540.72 38.22 538.03 38.59 C 535.82 37.82 535.04 35.30 533.62 33.63 C 532.52 36.29 531.05 40.29 527.34 38.94 C 525.03 36.92 524.92 33.56 523.20 31.13 C 519.96 32.45 516.62 36.76 513.02 34.35 C 513.66 31.61 514.29 28.85 515.37 26.24 C 517.29 26.08 519.22 25.91 521.14 25.70 C 521.72 24.81 522.34 23.95 523.00 23.12 C 524.69 24.15 526.28 25.35 527.99 26.35 C 528.49 28.03 528.26 29.76 528.11 31.47 C 528.68 29.96 529.20 28.43 529.75 26.90 C 532.09 26.10 534.57 26.11 537.01 25.89 C 539.51 24.16 541.47 21.74 544.03 20.05 C 546.59 19.50 548.62 21.78 551.04 22.25 C 553.16 21.46 555.17 20.40 557.29 19.59 C 558.70 16.93 562.25 17.22 564.46 18.61 C 566.33 19.64 566.75 21.99 567.89 23.63 C 568.48 22.11 568.88 20.52 569.26 18.94 C 571.04 18.88 572.82 18.86 574.61 18.88 C 577.51 22.18 580.48 25.45 583.97 28.16 C 586.93 25.75 589.45 22.86 592.42 20.46 C 594.39 19.65 597.03 19.72 598.63 21.31 C 602.13 24.27 606.05 26.75 609.18 30.12 C 613.36 25.66 617.74 19.42 624.64 19.96 C 626.52 21.59 628.40 23.26 629.95 25.23 C 632.34 23.26 635.47 22.63 638.04 21.05 M 960.96 23.92 C 960.03 26.92 957.83 29.72 954.91 30.91 C 953.31 29.18 951.77 27.36 950.75 25.23 C 950.14 24.40 949.81 22.36 948.37 23.05 C 946.75 25.50 944.99 27.87 942.75 29.81 C 941.28 32.52 940.71 36.05 938.04 37.90 C 935.75 39.07 934.25 36.10 932.08 35.99 C 930.99 36.58 929.99 37.31 928.99 38.00 C 926.79 36.78 924.08 35.56 923.73 32.74 C 924.82 32.50 925.92 32.28 927.04 32.06 C 926.34 30.27 925.98 28.26 924.61 26.82 C 922.67 27.23 923.24 29.79 921.91 30.86 C 920.70 32.19 918.79 32.00 917.19 32.32 C 916.50 30.23 915.94 28.09 915.08 26.06 C 914.70 24.20 912.39 24.29 911.09 24.98 C 911.27 27.64 910.81 30.26 908.72 32.09 C 906.89 31.69 905.03 31.41 903.29 30.78 C 901.83 28.70 900.58 26.43 898.57 24.82 C 896.01 26.60 892.53 28.53 892.79 32.13 C 896.29 31.46 901.93 29.86 902.84 34.90 C 902.19 37.89 899.82 39.72 897.49 41.41 C 898.64 42.12 901.18 42.08 901.15 43.99 C 901.41 47.65 898.88 50.79 898.26 54.33 C 901.47 56.51 907.12 57.71 906.07 62.80 C 907.16 61.86 907.82 60.59 908.37 59.27 C 910.97 57.93 914.03 57.08 915.86 54.62 C 916.36 52.31 914.31 50.40 914.19 48.13 C 915.10 45.43 917.45 43.64 919.64 41.99 C 921.70 43.03 923.96 43.67 926.00 44.79 C 926.41 48.16 923.97 50.96 923.39 54.18 C 926.08 55.90 928.53 57.94 931.07 59.88 C 932.05 60.58 932.49 62.20 933.93 62.13 C 937.52 59.40 941.80 57.76 945.23 54.78 C 945.09 51.11 940.98 48.07 943.35 44.33 C 945.61 41.20 949.68 42.61 952.78 43.28 C 953.57 44.75 954.44 46.30 954.00 48.04 C 953.05 49.63 951.50 51.06 952.02 53.10 C 952.84 53.58 953.70 54.00 954.60 54.35 C 957.14 56.88 960.31 59.31 964.11 59.04 C 966.48 57.87 968.47 56.09 970.43 54.33 C 971.33 53.73 973.47 53.69 972.99 52.06 C 973.26 50.06 970.67 49.04 970.94 47.04 C 970.69 45.63 971.69 44.51 972.20 43.29 C 975.30 42.62 979.41 41.17 981.66 44.36 C 984.00 48.11 979.85 51.12 979.79 54.81 C 982.58 56.98 985.55 58.88 988.73 60.45 C 989.83 60.91 990.65 62.67 992.04 61.92 C 994.73 58.80 998.25 56.54 1001.61 54.19 C 1001.06 50.98 998.54 48.19 999.03 44.85 C 1000.94 43.56 1003.33 43.09 1005.38 41.99 C 1007.53 43.63 1009.82 45.41 1010.79 48.04 C 1010.64 50.15 1009.20 51.90 1008.95 53.99 C 1010.28 57.02 1013.90 57.81 1016.60 59.23 C 1017.13 60.55 1017.73 61.88 1018.96 62.72 C 1017.88 57.65 1023.59 56.51 1026.74 54.31 C 1026.10 50.79 1023.59 47.66 1023.85 44.01 C 1023.78 42.09 1026.31 42.11 1027.51 41.42 C 1025.17 39.71 1022.77 37.88 1022.15 34.86 C 1023.11 29.86 1028.71 31.47 1032.21 32.14 C 1032.45 28.52 1028.99 26.53 1026.34 24.84 C 1024.39 26.50 1023.13 28.74 1021.69 30.80 C 1019.92 31.41 1018.09 31.70 1016.29 32.08 C 1014.19 30.25 1013.72 27.64 1013.91 24.99 C 1009.25 22.80 1009.05 29.44 1007.82 32.31 C 1006.17 32.00 1004.26 32.20 1003.06 30.84 C 1001.73 29.78 1002.33 27.18 1000.38 26.84 C 999.01 28.23 998.57 30.16 998.13 31.98 C 999.16 32.30 1000.22 32.60 1001.30 32.87 C 1000.77 35.62 998.12 36.83 995.93 38.04 C 994.92 37.29 993.91 36.53 992.93 35.77 C 991.20 36.49 989.77 37.95 987.89 38.21 C 984.79 37.47 984.48 33.78 982.86 31.58 C 982.73 31.13 982.48 30.24 982.35 29.79 C 979.64 28.04 978.39 24.73 976.02 22.87 C 973.76 25.28 972.49 28.79 969.97 31.19 C 968.25 29.80 966.45 28.46 965.20 26.62 C 964.81 25.07 964.99 23.46 964.95 21.88 C 963.26 20.75 961.17 22.09 960.96 23.92 M 653.79 27.64 C 652.77 28.76 651.75 29.88 650.75 31.01 C 646.36 31.79 644.61 26.91 642.62 23.96 C 642.02 24.01 640.82 24.12 640.22 24.17 C 638.71 26.98 637.84 30.23 635.49 32.51 C 634.00 34.11 633.83 36.63 632.08 38.01 C 630.76 38.18 629.44 38.19 628.12 38.04 C 627.45 37.27 626.78 36.50 626.11 35.74 C 625.90 34.57 625.70 33.40 625.51 32.23 C 625.95 31.72 626.84 30.69 627.28 30.18 C 625.01 29.40 623.08 28.02 621.02 26.88 C 619.50 27.75 618.40 29.13 617.68 30.70 C 619.84 30.99 622.06 31.17 624.07 32.09 C 623.08 34.58 623.75 37.83 621.69 39.74 C 618.79 40.88 616.34 37.96 615.20 35.61 C 615.09 34.96 614.88 33.67 614.77 33.03 C 614.39 33.30 613.62 33.83 613.23 34.09 C 612.46 36.29 611.34 38.33 609.82 40.09 C 609.09 40.07 607.65 40.02 606.93 39.99 C 602.66 35.94 600.34 30.32 595.84 26.52 C 593.55 28.17 591.48 30.13 590.17 32.66 C 593.23 32.53 598.15 30.31 599.96 33.87 C 600.21 35.89 599.56 37.89 598.74 39.71 C 597.78 41.41 595.59 41.28 593.99 41.92 C 591.71 39.52 591.01 36.26 589.64 33.35 C 587.90 35.51 586.72 39.13 583.35 38.78 C 582.03 37.69 580.92 36.40 579.73 35.18 C 579.37 35.45 578.64 35.99 578.28 36.26 C 577.24 38.12 575.84 39.74 574.44 41.33 C 575.58 42.08 576.75 42.80 577.97 43.43 C 578.01 47.06 574.69 49.95 575.16 53.66 C 577.83 55.75 581.03 57.28 583.00 60.16 C 585.58 58.02 589.57 56.55 590.35 52.98 C 590.08 49.29 587.96 45.18 591.03 42.06 C 591.81 42.03 593.37 41.97 594.15 41.94 C 594.62 42.38 595.56 43.25 596.03 43.68 C 597.04 43.77 598.07 43.85 599.10 43.92 C 601.38 47.38 596.88 51.16 598.34 54.72 C 600.31 56.46 602.68 57.68 604.81 59.22 C 605.16 60.31 605.60 61.40 606.33 62.31 C 607.82 57.99 612.95 56.90 615.54 53.56 C 615.13 50.01 613.54 46.40 615.16 42.91 C 618.40 42.92 621.65 42.93 624.89 42.95 C 627.46 46.56 623.03 49.94 623.00 53.67 C 625.97 55.49 628.48 57.90 630.94 60.35 C 633.32 58.27 635.38 55.79 638.16 54.19 C 640.07 53.36 639.31 50.57 638.04 49.52 C 637.85 46.99 637.36 44.23 638.85 41.98 C 642.52 42.44 646.05 43.62 649.66 44.39 C 650.76 48.09 646.32 51.02 646.63 54.95 C 651.39 55.38 654.20 59.80 657.44 62.79 C 660.73 59.11 665.55 57.48 669.05 54.06 C 668.24 51.15 666.51 48.47 666.93 45.30 C 668.51 44.38 670.05 43.37 671.35 42.06 C 668.64 39.40 666.74 36.07 666.00 32.34 C 667.75 31.61 669.91 30.24 671.67 31.91 C 675.34 29.60 671.31 26.21 668.99 24.82 C 667.22 26.60 666.05 29.04 663.96 30.61 C 662.71 30.38 661.47 30.17 660.23 29.96 C 658.55 27.91 657.91 25.32 656.76 22.99 C 654.30 22.50 654.58 26.08 653.79 27.64 M 698.11 23.00 C 696.49 26.17 694.95 29.40 692.52 32.05 C 689.41 30.44 687.87 27.16 685.51 24.73 C 684.54 26.02 683.65 27.37 682.82 28.75 C 684.75 30.10 687.17 30.66 688.94 32.25 C 690.44 35.38 687.96 38.04 685.12 38.96 C 684.14 38.50 683.16 38.04 682.18 37.58 C 680.95 35.52 679.96 33.23 677.98 31.76 C 676.78 32.99 675.84 34.41 675.04 35.92 C 675.10 37.96 675.07 40.00 675.06 42.04 C 675.72 42.07 677.03 42.12 677.68 42.15 C 678.06 42.60 678.82 43.49 679.20 43.93 C 677.99 46.56 675.55 49.03 676.21 52.13 C 678.37 54.66 681.20 56.64 684.11 58.26 C 686.67 57.34 688.98 55.66 690.80 53.64 C 691.46 51.93 691.22 50.00 691.67 48.22 C 690.69 47.00 689.88 45.67 689.75 44.08 C 693.06 41.00 698.99 40.53 702.28 43.88 C 700.62 46.84 698.73 50.21 699.96 53.69 C 702.03 54.61 704.07 55.75 705.70 57.36 C 706.60 58.73 706.21 60.48 706.35 62.02 C 706.61 61.95 707.14 61.81 707.41 61.74 C 707.24 61.27 706.91 60.32 706.74 59.85 C 709.15 57.59 712.01 55.88 715.10 54.70 C 715.49 51.95 715.02 49.16 714.29 46.50 C 716.00 46.17 716.05 44.65 716.08 43.19 C 717.00 42.46 717.90 41.66 718.97 41.11 C 721.52 42.42 724.88 42.69 726.63 45.19 C 725.99 48.25 723.41 50.65 723.28 53.92 C 723.74 55.77 725.85 55.87 727.17 56.84 C 728.56 57.90 729.75 59.19 731.01 60.40 C 730.73 60.88 730.16 61.82 729.88 62.30 C 729.46 62.40 728.62 62.60 728.20 62.71 C 728.50 63.02 729.11 63.64 729.41 63.95 C 732.36 60.36 736.39 58.27 740.16 55.72 C 740.34 52.11 738.61 48.68 739.06 45.07 C 741.49 43.02 745.05 43.21 748.07 42.95 C 749.44 43.67 751.06 45.16 750.33 46.90 C 749.62 49.89 748.36 52.71 747.62 55.69 C 751.12 55.95 754.38 58.71 754.30 62.39 C 755.42 59.25 757.82 57.02 760.84 55.69 C 761.65 54.10 762.91 52.20 761.74 50.44 C 761.25 49.03 759.60 47.77 759.93 46.24 C 761.80 45.42 762.87 43.71 764.17 42.24 C 766.25 41.22 768.58 41.17 770.86 40.98 C 772.10 42.22 773.86 43.87 772.71 45.80 C 771.88 48.35 769.21 50.86 770.41 53.65 C 772.49 56.07 775.42 57.58 777.52 60.00 C 777.08 60.95 776.71 61.90 776.35 62.86 C 777.93 61.23 778.74 58.89 780.89 57.82 C 783.42 56.35 785.06 53.88 786.85 51.63 C 786.86 51.02 786.86 49.81 786.87 49.20 C 785.36 47.24 783.67 43.95 786.25 42.11 C 790.01 41.27 794.46 42.55 797.15 45.37 C 796.78 48.55 794.89 51.26 793.87 54.25 C 796.00 56.60 799.20 57.40 801.75 59.18 C 804.07 60.82 806.46 62.36 808.87 63.88 C 811.61 60.78 814.22 57.20 818.38 55.92 C 818.36 52.36 815.30 49.69 815.84 46.04 C 818.02 45.76 818.36 43.41 819.31 41.86 C 821.79 41.98 824.24 42.50 826.55 43.43 C 828.86 46.74 825.36 50.33 825.38 53.85 C 827.03 56.60 830.54 57.31 832.97 59.25 C 833.01 60.05 833.11 61.64 833.16 62.44 C 834.67 61.99 834.86 60.52 835.14 59.19 C 837.05 57.94 838.99 56.71 841.04 55.66 C 841.90 52.00 839.59 48.57 839.80 44.87 C 843.27 43.25 847.06 42.21 850.90 43.13 C 851.79 47.16 849.02 50.66 849.08 54.62 C 852.30 57.43 856.02 59.77 858.34 63.50 C 860.39 60.02 864.34 58.78 867.23 56.23 C 868.95 55.17 867.97 52.99 867.31 51.59 C 866.52 50.13 865.64 48.60 865.94 46.86 C 867.24 44.94 869.10 43.42 870.93 42.01 C 873.52 41.83 875.83 43.24 878.16 44.18 C 878.85 47.79 875.32 50.46 875.82 53.97 C 877.06 56.26 879.44 57.66 881.69 58.84 C 880.71 60.17 880.80 61.31 881.99 62.26 C 881.96 61.46 881.90 59.86 881.87 59.05 C 884.33 57.36 887.21 56.35 889.62 54.54 C 892.19 51.65 888.08 47.96 889.93 44.79 C 890.33 45.02 891.12 45.50 891.52 45.73 C 891.25 43.29 892.96 41.65 895.32 41.51 C 894.44 38.72 892.87 36.18 892.62 33.20 C 892.35 31.52 890.56 32.14 889.41 32.08 C 887.48 34.76 886.04 39.55 881.99 39.08 C 879.09 37.58 878.33 32.65 874.25 33.73 C 873.24 28.62 867.75 26.84 864.28 23.68 C 862.87 26.61 861.57 30.30 858.04 31.20 C 854.52 31.70 853.62 27.69 853.80 25.02 C 853.19 24.97 851.96 24.89 851.35 24.84 C 849.86 27.44 848.17 29.93 846.20 32.17 C 845.51 32.09 844.15 31.93 843.46 31.85 C 842.20 29.55 840.95 27.01 838.44 25.87 C 837.62 27.11 835.52 28.07 836.00 29.80 C 838.27 31.22 842.24 30.77 842.63 34.18 C 842.36 36.47 840.51 39.39 837.88 39.07 C 835.24 38.47 834.25 35.67 833.70 33.34 C 832.00 32.07 829.86 31.63 829.33 34.22 C 829.03 37.81 825.75 40.68 822.17 38.98 C 821.95 36.65 821.73 34.28 820.79 32.11 C 817.35 29.37 814.64 25.87 810.75 23.69 C 810.75 24.47 810.76 26.04 810.76 26.82 C 809.08 28.47 807.36 30.33 804.87 30.59 C 801.59 29.96 801.40 25.80 799.05 24.13 C 796.53 24.82 795.60 27.97 793.80 29.70 C 794.72 31.82 797.03 30.28 798.64 30.09 C 800.18 30.89 801.97 31.54 802.91 33.14 C 803.60 35.65 801.76 37.76 800.80 39.90 C 799.52 40.35 798.31 41.34 796.90 41.08 C 795.63 40.25 794.99 38.83 794.15 37.64 C 793.80 35.49 793.33 33.35 792.88 31.22 C 792.23 31.14 790.93 30.99 790.28 30.91 C 788.71 32.58 787.90 34.72 786.83 36.70 C 785.52 38.52 783.21 37.91 781.32 37.92 C 780.23 36.86 779.17 35.77 778.01 34.80 C 776.55 35.85 775.26 38.50 773.13 37.26 C 770.22 36.50 769.54 30.82 773.13 30.67 C 772.16 29.08 770.83 27.82 769.28 26.82 C 767.69 28.74 767.33 32.92 764.01 32.12 C 760.97 32.04 760.81 27.62 758.02 26.79 C 756.59 27.42 755.57 29.45 753.86 29.03 C 752.42 27.37 752.19 23.00 749.16 24.12 C 746.84 25.89 748.25 29.30 747.75 31.80 C 746.31 32.16 744.84 32.18 743.39 32.11 C 742.90 31.60 741.93 30.58 741.45 30.07 C 739.04 33.04 737.68 37.27 734.02 38.96 C 729.08 38.96 728.06 33.25 725.60 30.06 C 723.67 29.59 724.29 32.06 723.80 33.12 C 720.73 33.64 719.32 30.39 717.28 28.77 C 715.21 27.05 714.41 24.08 711.97 22.83 C 708.44 23.65 709.81 29.18 705.99 29.93 C 703.31 31.15 701.75 28.19 700.11 26.67 C 700.05 26.08 699.94 24.89 699.88 24.30 C 699.44 23.98 698.55 23.33 698.11 23.00 M 769.26 23.02 C 769.46 26.37 772.15 21.45 769.26 23.02 M 1154.32 23.00 C 1154.44 26.34 1157.24 21.42 1154.32 23.00 M 1210.83 24.85 C 1208.90 27.91 1206.17 30.33 1203.61 32.84 C 1203.01 32.92 1201.80 33.06 1201.20 33.13 C 1201.05 32.39 1200.74 30.90 1200.59 30.16 C 1198.89 29.48 1198.55 31.64 1197.79 32.63 C 1196.49 35.47 1194.54 39.06 1190.97 38.98 C 1187.34 37.22 1185.92 33.10 1183.60 30.06 C 1183.11 30.57 1182.13 31.58 1181.64 32.09 C 1180.16 32.17 1178.69 32.16 1177.28 31.85 C 1177.13 29.64 1177.23 27.42 1176.94 25.23 C 1176.30 24.09 1174.48 23.23 1173.55 24.50 C 1172.43 26.13 1172.05 28.32 1170.29 29.42 C 1169.18 28.52 1168.19 27.47 1166.96 26.77 C 1164.58 27.73 1164.03 30.68 1162.03 32.04 C 1160.82 32.09 1159.63 32.05 1158.46 31.90 C 1157.64 30.10 1156.71 28.36 1155.48 26.81 C 1154.05 27.89 1152.84 29.18 1151.86 30.66 C 1155.44 30.82 1154.78 36.50 1151.86 37.26 C 1149.74 38.51 1148.44 35.85 1147.00 34.82 C 1145.09 36.96 1142.81 38.56 1139.79 38.18 C 1137.27 36.33 1136.83 33.02 1134.67 30.88 C 1134.03 30.97 1132.75 31.15 1132.11 31.25 C 1131.25 34.64 1131.30 38.98 1128.02 41.10 C 1126.59 41.27 1125.44 40.36 1124.20 39.89 C 1123.24 37.74 1121.32 35.60 1122.12 33.09 C 1123.05 31.51 1124.82 30.90 1126.37 30.08 C 1128.00 30.32 1130.21 31.80 1131.20 29.69 C 1129.37 27.98 1128.44 24.73 1125.89 24.13 C 1123.62 25.91 1123.36 29.92 1120.13 30.60 C 1117.63 30.33 1115.91 28.47 1114.23 26.83 C 1114.24 26.03 1114.27 24.43 1114.29 23.63 C 1110.40 25.84 1107.71 29.35 1104.23 32.06 C 1103.27 34.23 1103.04 36.62 1102.83 38.96 C 1101.23 39.40 1099.54 39.70 1098.04 38.82 C 1095.71 37.19 1096.41 33.71 1094.12 32.06 C 1093.16 32.46 1092.22 32.89 1091.30 33.34 C 1090.82 36.19 1088.75 40.05 1085.26 38.87 C 1083.31 37.38 1081.32 34.62 1083.13 32.25 C 1084.79 30.88 1087.12 30.91 1088.96 29.81 C 1089.48 28.13 1087.41 26.46 1085.95 26.12 C 1083.79 27.38 1082.73 29.76 1081.55 31.84 C 1080.86 31.92 1079.48 32.08 1078.79 32.16 C 1076.82 29.97 1075.29 27.44 1073.63 25.02 C 1073.02 25.00 1071.78 24.97 1071.16 24.96 C 1071.39 27.68 1070.47 31.75 1066.88 31.20 C 1063.39 30.24 1062.15 26.57 1060.70 23.68 C 1057.24 26.87 1051.76 28.62 1050.75 33.73 C 1046.67 32.67 1045.89 37.55 1043.01 39.10 C 1038.96 39.54 1037.51 34.78 1035.61 32.09 C 1034.40 32.14 1032.62 31.51 1032.38 33.21 C 1032.16 36.20 1030.47 38.71 1029.72 41.54 C 1032.06 41.66 1033.63 43.28 1033.52 45.66 C 1034.61 44.76 1035.33 45.01 1035.68 46.39 C 1035.60 49.10 1033.25 52.16 1035.39 54.55 C 1037.76 56.34 1040.63 57.33 1043.08 59.03 C 1042.72 60.37 1043.06 61.50 1044.08 62.41 C 1043.91 61.50 1043.55 59.70 1043.38 58.79 C 1045.68 57.44 1048.86 55.99 1049.30 53.06 C 1048.91 49.95 1046.29 47.47 1046.86 44.16 C 1049.17 43.23 1051.46 41.85 1054.05 42.00 C 1055.89 43.40 1057.72 44.94 1059.07 46.86 C 1059.32 48.61 1058.45 50.14 1057.67 51.63 C 1056.98 53.00 1056.06 55.17 1057.76 56.23 C 1060.64 58.76 1064.59 60.02 1066.64 63.49 C 1068.98 59.80 1072.65 57.44 1075.89 54.65 C 1076.03 50.69 1073.17 47.18 1074.10 43.14 C 1077.94 42.21 1081.74 43.26 1085.23 44.88 C 1085.29 48.54 1083.21 51.97 1083.91 55.63 C 1085.96 56.69 1087.92 57.93 1089.87 59.20 C 1090.10 60.53 1090.31 61.99 1091.84 62.46 C 1091.89 61.65 1091.98 60.05 1092.03 59.25 C 1094.58 57.42 1097.76 56.40 1099.79 53.90 C 1099.09 51.21 1098.15 48.59 1097.52 45.89 C 1097.75 41.91 1102.85 42.41 1105.70 41.87 C 1106.63 43.42 1106.97 45.76 1109.15 46.04 C 1109.69 49.69 1106.64 52.36 1106.62 55.90 C 1110.75 57.21 1113.39 60.76 1116.12 63.88 C 1118.48 62.39 1120.83 60.88 1123.12 59.27 C 1125.67 57.43 1128.96 56.66 1131.11 54.25 C 1130.52 53.02 1130.05 51.74 1129.67 50.44 C 1128.71 48.88 1127.89 47.22 1127.87 45.35 C 1129.11 44.36 1130.16 42.92 1131.89 42.77 C 1134.41 42.19 1138.01 40.48 1139.82 43.27 C 1140.73 45.48 1139.25 47.46 1138.13 49.22 C 1138.13 49.82 1138.14 51.01 1138.14 51.61 C 1139.69 53.49 1140.99 55.68 1143.06 57.07 C 1144.84 58.35 1147.00 59.50 1147.42 61.87 C 1147.76 62.05 1148.43 62.42 1148.77 62.60 C 1148.30 61.75 1147.85 60.91 1147.41 60.07 C 1149.56 57.38 1153.08 56.00 1154.88 53.05 C 1155.20 50.10 1152.80 47.74 1151.99 45.03 C 1151.51 43.22 1153.14 42.14 1154.17 40.97 C 1156.40 41.17 1158.73 41.22 1160.80 42.23 C 1162.23 43.70 1163.15 45.78 1165.42 46.19 C 1163.93 49.20 1161.37 52.63 1164.20 55.73 C 1167.20 57.03 1169.58 59.27 1170.70 62.40 C 1170.60 58.70 1173.88 55.94 1177.39 55.68 C 1176.62 52.14 1174.59 48.84 1174.57 45.18 C 1176.98 41.01 1182.63 43.57 1186.12 44.87 C 1186.08 48.51 1184.91 52.01 1184.79 55.64 C 1188.56 58.35 1192.81 60.36 1195.73 64.14 C 1195.93 63.76 1196.32 63.02 1196.52 62.65 C 1195.33 62.34 1194.60 61.40 1193.86 60.53 C 1195.53 59.02 1196.95 57.08 1199.08 56.16 C 1200.20 55.71 1202.08 54.88 1201.59 53.32 C 1201.45 50.26 1198.75 48.07 1198.43 45.17 C 1200.11 42.66 1203.49 42.44 1206.01 41.11 C 1207.09 41.63 1207.97 42.47 1208.93 43.20 C 1208.92 44.66 1208.97 46.17 1210.72 46.50 C 1209.95 49.15 1209.50 51.95 1209.90 54.70 C 1212.88 55.87 1215.70 57.46 1218.04 59.67 C 1217.96 60.60 1217.35 61.77 1218.52 62.37 C 1218.78 60.72 1218.31 58.79 1219.32 57.33 C 1220.94 55.73 1222.97 54.61 1225.05 53.69 C 1226.23 50.21 1224.39 46.85 1222.72 43.90 C 1225.22 41.02 1229.38 41.49 1232.76 42.12 C 1233.71 43.15 1235.90 44.17 1234.83 45.90 C 1232.76 48.03 1233.55 50.99 1234.13 53.57 C 1235.92 55.66 1238.28 57.21 1240.81 58.30 C 1243.75 56.66 1246.68 54.67 1248.82 52.04 C 1249.36 48.93 1246.96 46.45 1245.71 43.83 C 1246.77 42.44 1248.32 41.91 1250.03 41.77 C 1249.92 39.81 1249.88 37.84 1249.94 35.87 C 1249.12 34.39 1248.19 32.98 1247.04 31.75 C 1245.03 33.21 1244.05 35.52 1242.82 37.59 C 1241.82 38.04 1240.83 38.50 1239.86 38.96 C 1237.89 37.96 1235.22 36.76 1235.69 34.05 C 1235.73 30.61 1240.10 30.57 1242.19 28.72 C 1241.34 27.30 1240.40 25.95 1239.28 24.76 C 1237.12 27.29 1235.54 30.50 1232.46 32.04 C 1230.08 29.38 1228.44 26.22 1226.96 23.00 C 1226.50 23.33 1225.57 23.98 1225.11 24.30 C 1225.06 24.89 1224.95 26.06 1224.90 26.65 C 1223.65 27.89 1222.59 29.40 1221.00 30.20 C 1218.94 30.45 1217.44 29.05 1216.12 27.73 C 1215.66 26.07 1215.51 24.12 1213.96 23.07 C 1212.53 22.19 1211.56 23.96 1210.83 24.85 M 1266.37 27.44 C 1265.73 29.91 1263.20 30.36 1261.05 30.66 C 1258.96 29.07 1257.78 26.59 1256.00 24.85 C 1254.14 26.08 1251.87 27.64 1251.67 30.07 C 1253.13 33.09 1256.79 30.14 1259.12 32.30 C 1258.09 35.97 1256.43 39.42 1253.65 42.08 C 1254.94 43.38 1256.47 44.38 1258.07 45.29 C 1258.51 48.46 1256.72 51.12 1255.98 54.04 C 1259.41 57.52 1264.28 59.08 1267.54 62.79 C 1270.81 59.83 1273.60 55.37 1278.37 54.95 C 1278.68 51.03 1274.23 48.10 1275.34 44.39 C 1278.95 43.62 1282.48 42.43 1286.17 41.99 C 1287.62 44.25 1287.14 47.00 1286.96 49.52 C 1285.67 50.60 1284.88 53.37 1286.87 54.20 C 1289.62 55.82 1291.69 58.28 1294.07 60.37 C 1296.50 57.89 1299.01 55.49 1302.00 53.68 C 1301.95 49.95 1297.54 46.56 1300.11 42.96 C 1303.34 42.90 1306.58 42.89 1309.84 42.91 C 1311.49 46.50 1309.74 50.19 1309.49 53.85 C 1312.44 56.81 1317.13 58.16 1318.70 62.33 C 1319.40 61.41 1319.78 60.32 1320.18 59.23 C 1322.32 57.67 1324.71 56.43 1326.72 54.67 C 1328.01 51.09 1323.69 47.43 1325.88 44.02 C 1327.78 43.96 1329.67 43.56 1330.84 41.84 C 1329.29 41.21 1327.13 41.41 1326.26 39.71 C 1325.34 37.46 1323.89 34.24 1326.16 32.34 C 1328.97 31.43 1331.97 32.26 1334.81 32.68 C 1333.52 30.12 1331.44 28.15 1329.15 26.52 C 1324.66 30.33 1322.34 35.95 1318.07 39.99 C 1317.34 40.02 1315.90 40.07 1315.18 40.09 C 1313.65 38.32 1312.52 36.29 1311.75 34.09 C 1311.38 33.82 1310.64 33.28 1310.27 33.01 C 1310.15 33.67 1309.91 34.98 1309.79 35.63 C 1308.63 38.00 1306.30 40.73 1303.38 39.83 C 1301.20 37.94 1301.99 34.57 1300.94 32.07 C 1302.94 31.19 1305.11 30.99 1307.28 30.73 C 1306.59 29.11 1305.47 27.68 1303.89 26.87 C 1301.91 28.05 1300.05 29.39 1297.83 30.09 C 1299.51 31.62 1299.51 33.69 1298.94 35.75 C 1298.23 36.50 1297.55 37.26 1296.88 38.02 C 1295.42 37.95 1293.67 38.64 1292.45 37.64 C 1291.03 35.94 1290.71 33.55 1289.07 32.01 C 1286.99 29.79 1286.18 26.77 1284.77 24.15 C 1284.17 24.11 1282.98 24.01 1282.38 23.96 C 1281.14 26.39 1279.43 28.55 1277.64 30.58 C 1272.88 32.73 1270.74 26.50 1269.62 23.03 C 1267.15 22.41 1267.42 26.01 1266.37 27.44 M 1672.80 27.67 C 1671.16 29.53 1669.13 32.37 1666.36 30.58 C 1664.55 28.56 1662.85 26.41 1661.64 23.98 C 1661.04 24.01 1659.85 24.09 1659.25 24.13 C 1657.70 26.94 1656.85 30.22 1654.49 32.52 C 1653.00 34.12 1652.82 36.63 1651.08 38.02 C 1649.74 38.18 1648.42 38.18 1647.11 38.02 C 1646.42 37.25 1645.73 36.50 1645.06 35.75 C 1644.74 33.87 1644.05 31.75 1646.05 30.53 C 1645.75 30.21 1645.13 29.57 1644.82 29.25 C 1642.79 29.37 1641.79 27.48 1640.10 26.88 C 1638.50 27.69 1637.37 29.11 1636.73 30.74 C 1638.85 31.00 1641.05 31.18 1643.06 32.06 C 1641.86 34.61 1643.03 38.80 1639.96 40.03 C 1636.19 40.17 1634.16 36.28 1633.61 33.04 C 1633.27 33.31 1632.59 33.83 1632.25 34.10 C 1631.45 36.30 1630.31 38.35 1628.78 40.12 C 1628.06 40.08 1626.62 40.00 1625.90 39.96 C 1621.63 35.93 1619.33 30.31 1614.84 26.52 C 1612.54 28.15 1610.49 30.13 1609.17 32.64 C 1612.24 32.55 1617.22 30.29 1619.01 33.94 C 1619.32 37.62 1617.49 41.93 1613.23 41.77 C 1614.28 44.22 1617.54 43.24 1618.91 45.21 C 1618.77 48.26 1616.96 51.01 1616.97 54.11 C 1618.66 56.41 1621.59 57.45 1623.81 59.22 C 1624.15 60.31 1624.62 61.39 1625.29 62.35 C 1626.85 58.18 1631.53 56.83 1634.48 53.87 C 1634.30 50.20 1632.46 46.51 1634.16 42.90 C 1637.40 42.92 1640.65 42.93 1643.91 42.96 C 1646.45 46.58 1642.00 49.95 1642.01 53.69 C 1644.98 55.50 1647.48 57.90 1649.93 60.36 C 1652.30 58.29 1654.35 55.82 1657.11 54.21 C 1659.09 53.40 1658.31 50.61 1657.04 49.52 C 1656.83 47.00 1656.37 44.27 1657.81 42.00 C 1661.49 42.41 1665.02 43.63 1668.65 44.39 C 1669.76 48.07 1665.36 51.03 1665.60 54.93 C 1670.42 55.36 1673.16 59.90 1676.58 62.80 C 1679.80 59.05 1684.55 57.31 1688.23 54.09 C 1687.03 51.27 1685.58 48.44 1685.95 45.27 C 1687.52 44.37 1689.04 43.37 1690.35 42.08 C 1687.56 39.42 1685.90 35.98 1684.88 32.31 C 1686.79 31.52 1688.94 30.52 1690.90 31.88 C 1694.12 29.38 1690.33 26.22 1688.05 24.88 C 1686.15 26.46 1685.06 29.14 1682.92 30.67 C 1681.70 30.43 1680.52 30.15 1679.36 29.84 C 1677.27 28.12 1677.06 25.24 1675.77 23.02 C 1673.28 22.39 1673.57 26.14 1672.80 27.67 M 1788.24 23.07 C 1788.65 26.39 1791.00 21.28 1788.24 23.07 M 1408.51 24.04 C 1408.11 28.05 1402.81 28.64 1401.10 31.93 C 1399.91 34.26 1399.76 37.07 1397.80 38.99 C 1397.03 39.02 1395.48 39.09 1394.70 39.13 C 1393.06 37.69 1392.30 35.62 1391.47 33.68 C 1389.75 35.14 1389.31 37.98 1386.94 38.57 C 1384.32 38.19 1381.94 36.26 1380.85 33.92 C 1381.52 32.73 1382.77 32.13 1384.01 31.64 C 1383.99 31.03 1383.94 29.82 1383.92 29.22 C 1381.97 28.31 1379.71 26.95 1378.08 29.09 C 1377.68 30.50 1378.74 32.87 1376.87 33.42 C 1376.06 33.29 1374.43 33.04 1373.62 32.91 C 1374.15 36.21 1374.71 39.89 1371.64 42.13 C 1369.52 42.09 1367.49 41.31 1366.10 39.69 C 1365.47 37.21 1366.08 34.59 1366.11 32.07 C 1368.06 32.03 1370.02 32.02 1372.01 32.01 C 1371.05 29.84 1370.69 27.17 1368.90 25.53 C 1366.48 26.41 1364.77 28.70 1362.37 29.73 C 1362.96 30.78 1363.53 31.86 1364.08 32.95 C 1363.23 34.70 1362.45 36.66 1360.76 37.75 C 1359.09 38.58 1357.30 37.67 1355.86 36.87 C 1355.85 35.16 1355.89 33.45 1355.96 31.74 C 1357.27 30.99 1358.58 30.23 1359.95 29.51 C 1359.93 28.89 1359.89 27.66 1359.88 27.05 C 1357.03 26.83 1354.19 27.19 1351.36 27.27 C 1349.67 28.35 1348.67 30.08 1348.18 31.98 C 1349.40 32.43 1352.90 30.76 1352.84 33.08 C 1352.33 35.37 1351.86 37.67 1351.92 40.03 C 1352.59 40.05 1353.93 40.10 1354.60 40.13 C 1355.58 41.12 1356.65 42.04 1358.07 42.37 C 1358.00 43.81 1357.89 45.24 1357.71 46.67 C 1358.12 49.07 1357.53 51.57 1358.08 53.93 C 1360.48 56.28 1363.53 57.84 1365.94 60.21 C 1367.58 57.11 1371.04 55.73 1374.19 54.66 C 1374.34 51.16 1372.32 48.17 1371.08 45.04 C 1373.90 42.52 1377.74 43.01 1381.24 42.88 C 1384.90 45.48 1382.25 50.54 1381.87 54.12 C 1385.84 56.58 1389.69 59.14 1393.02 62.43 C 1392.82 61.88 1392.42 60.78 1392.22 60.23 C 1393.85 57.54 1396.85 56.23 1399.01 54.04 C 1398.55 51.09 1396.85 48.37 1397.01 45.35 C 1398.52 43.77 1400.87 43.53 1402.48 42.07 C 1403.04 42.08 1404.14 42.11 1404.70 42.12 C 1405.14 42.99 1405.61 43.85 1406.10 44.71 C 1407.53 45.15 1409.51 46.08 1408.84 47.96 C 1408.06 50.10 1406.89 52.06 1405.83 54.06 C 1408.51 56.97 1410.44 60.50 1413.35 63.22 C 1416.72 59.93 1421.04 57.72 1424.19 54.22 C 1422.89 51.67 1420.93 49.11 1421.03 46.14 C 1422.10 44.41 1424.37 44.92 1426.04 44.20 C 1426.54 42.71 1425.24 41.40 1425.04 39.96 C 1424.73 37.72 1424.87 35.45 1424.91 33.19 C 1427.22 31.23 1430.33 32.09 1433.06 32.38 C 1433.02 31.02 1432.92 29.67 1432.77 28.33 C 1430.94 27.10 1429.31 25.65 1428.02 23.87 C 1425.77 25.71 1425.12 29.19 1423.02 31.39 C 1421.54 30.42 1420.17 29.32 1419.01 28.00 C 1417.80 28.48 1416.58 28.93 1415.40 29.37 C 1414.70 30.09 1413.93 30.69 1413.09 31.16 C 1411.07 29.13 1407.90 27.36 1408.51 24.04 M 1443.99 32.00 C 1443.48 31.58 1442.46 30.74 1441.94 30.32 C 1442.65 31.10 1443.39 31.89 1444.14 32.67 C 1443.51 34.23 1443.15 35.89 1442.48 37.42 C 1440.47 39.07 1437.10 38.20 1436.32 35.61 C 1435.90 34.08 1434.51 33.42 1433.22 32.78 C 1432.99 35.08 1432.73 37.38 1432.55 39.68 C 1431.27 41.26 1428.81 42.53 1428.91 44.77 C 1429.61 44.93 1431.02 45.25 1431.73 45.40 C 1432.88 47.74 1432.67 50.58 1430.99 52.61 C 1430.99 53.82 1431.24 55.04 1432.41 55.67 C 1435.11 58.09 1438.57 59.62 1440.72 62.65 C 1441.93 59.40 1444.55 56.00 1448.23 55.61 C 1447.47 51.79 1445.34 48.13 1445.79 44.16 C 1447.65 44.10 1449.42 43.54 1450.88 42.32 C 1452.52 42.88 1454.90 42.37 1455.80 44.26 C 1456.13 45.88 1456.35 47.53 1456.70 49.17 C 1456.19 50.77 1455.64 52.36 1455.29 54.01 C 1456.97 56.86 1460.19 58.36 1462.42 60.76 C 1465.19 58.51 1467.33 54.76 1471.31 54.76 C 1471.28 53.63 1471.23 52.51 1471.16 51.40 C 1468.96 49.75 1467.20 47.38 1466.61 44.68 C 1467.46 42.53 1470.08 42.84 1471.99 42.57 C 1473.84 42.87 1476.62 42.50 1477.36 44.73 C 1476.78 47.42 1475.00 49.76 1472.84 51.40 C 1472.74 52.52 1472.68 53.64 1472.69 54.76 C 1476.66 54.76 1478.80 58.52 1481.58 60.77 C 1483.51 58.92 1485.65 57.31 1487.66 55.54 C 1489.84 53.85 1487.56 51.24 1487.30 49.17 C 1487.89 46.96 1487.49 44.22 1489.60 42.73 C 1490.49 42.64 1492.26 42.45 1493.15 42.36 C 1494.59 43.55 1496.33 44.10 1498.22 44.17 C 1498.64 48.18 1496.47 51.86 1495.76 55.74 C 1496.47 55.87 1497.91 56.13 1498.62 56.26 C 1500.28 58.31 1502.66 59.92 1503.27 62.66 C 1505.75 58.95 1510.53 57.63 1512.99 53.99 C 1512.55 51.12 1510.39 48.29 1512.28 45.40 C 1512.98 45.24 1514.38 44.93 1515.08 44.78 C 1515.19 42.53 1512.68 41.25 1511.44 39.65 C 1511.25 37.40 1510.98 35.16 1510.83 32.91 C 1509.96 33.28 1509.10 33.65 1508.26 34.03 C 1507.93 36.44 1505.67 39.05 1503.04 38.07 C 1500.47 38.02 1500.94 34.60 1500.11 33.00 C 1500.83 32.28 1501.55 31.54 1502.28 30.80 C 1501.31 31.09 1500.35 31.39 1499.41 31.68 C 1497.60 27.92 1493.60 25.72 1490.13 23.77 C 1490.05 25.02 1490.00 26.27 1489.97 27.52 C 1488.26 28.91 1486.81 30.55 1485.51 32.30 C 1482.04 32.06 1480.68 28.29 1478.44 26.16 C 1476.84 26.39 1476.53 28.52 1475.72 29.65 C 1474.48 31.32 1473.51 33.70 1471.97 34.84 C 1469.45 32.50 1468.33 28.82 1466.06 26.21 C 1463.28 27.48 1462.20 32.23 1458.50 32.30 C 1457.17 30.57 1455.74 28.92 1454.05 27.54 C 1453.97 26.27 1453.90 25.00 1453.84 23.73 C 1450.08 25.77 1446.39 28.37 1443.99 32.00 M 1470.10 24.56 C 1470.10 25.33 1470.09 26.85 1470.08 27.61 C 1471.35 27.61 1472.64 27.61 1473.95 27.61 C 1473.95 26.91 1473.94 25.51 1473.94 24.80 C 1472.65 24.67 1471.35 24.65 1470.10 24.56 M 1511.21 28.37 C 1511.04 29.70 1510.94 31.04 1510.94 32.39 C 1513.64 32.09 1516.79 31.22 1519.09 33.21 C 1519.20 36.66 1519.38 40.22 1517.74 43.38 C 1518.42 45.67 1521.82 43.92 1522.89 46.03 C 1523.48 49.23 1520.26 51.73 1520.13 54.79 C 1523.61 57.73 1527.32 60.46 1531.00 63.19 C 1533.43 60.18 1535.63 56.98 1538.17 54.05 C 1537.08 52.04 1535.89 50.08 1535.16 47.92 C 1534.43 46.08 1536.51 45.11 1537.91 44.70 C 1538.36 43.85 1538.81 43.00 1539.28 42.14 C 1539.83 42.12 1540.94 42.08 1541.50 42.06 C 1543.10 43.47 1545.38 43.78 1546.93 45.28 C 1547.28 48.33 1545.31 51.06 1545.04 54.06 C 1547.07 56.75 1553.30 58.34 1550.95 62.45 C 1554.31 59.20 1558.12 56.57 1562.12 54.13 C 1561.78 50.54 1559.06 45.50 1562.75 42.89 C 1564.85 42.98 1566.97 43.01 1569.10 42.94 C 1570.39 43.61 1571.63 44.30 1572.92 45.04 C 1571.68 48.18 1569.61 51.17 1569.83 54.68 C 1573.03 55.61 1576.09 57.27 1578.14 59.99 C 1580.80 57.95 1583.48 55.91 1586.18 53.90 C 1586.04 51.48 1586.00 49.06 1586.29 46.65 C 1586.07 45.24 1585.95 43.82 1585.90 42.40 C 1587.28 42.04 1588.39 41.13 1589.40 40.13 C 1590.07 40.10 1591.41 40.05 1592.08 40.03 C 1592.09 37.29 1591.49 34.62 1591.07 31.93 C 1592.66 31.93 1594.26 31.94 1595.89 31.95 C 1595.23 30.13 1594.33 28.33 1592.64 27.29 C 1589.78 27.18 1586.91 26.79 1584.08 27.11 C 1584.08 27.71 1584.07 28.92 1584.07 29.52 C 1585.38 30.23 1586.70 30.99 1588.04 31.73 C 1588.02 33.40 1588.33 35.10 1587.97 36.75 C 1586.74 38.18 1584.82 37.97 1583.17 38.00 C 1581.88 36.49 1580.63 34.89 1580.00 32.99 C 1580.47 31.72 1580.99 30.47 1581.42 29.18 C 1578.83 28.82 1577.42 26.17 1575.10 25.57 C 1573.26 27.13 1572.96 29.83 1571.99 31.95 C 1573.93 31.99 1575.90 32.02 1577.88 32.06 C 1577.93 34.58 1578.44 37.16 1577.95 39.65 C 1576.52 41.28 1574.49 42.10 1572.36 42.13 C 1569.22 39.87 1569.87 36.10 1570.38 32.78 C 1569.52 33.00 1567.79 33.44 1566.93 33.66 C 1565.80 32.36 1565.95 30.69 1565.93 29.11 C 1564.26 26.95 1561.98 28.30 1560.07 29.24 C 1560.05 29.84 1560.01 31.05 1560.00 31.65 C 1561.10 32.22 1563.60 32.98 1562.90 34.67 C 1561.35 36.47 1559.52 38.34 1557.03 38.57 C 1554.68 37.93 1554.20 35.17 1552.56 33.67 C 1551.67 35.61 1550.92 37.69 1549.28 39.12 C 1548.52 39.09 1547.00 39.04 1546.24 39.01 C 1543.89 36.83 1544.13 33.33 1542.23 30.91 C 1540.14 29.11 1537.82 27.60 1535.67 25.88 C 1535.65 25.41 1535.62 24.46 1535.60 23.99 C 1535.94 26.99 1533.53 28.76 1531.58 30.55 C 1530.54 31.98 1529.43 29.95 1528.63 29.38 C 1527.39 28.93 1526.19 28.48 1525.00 27.99 C 1523.81 29.30 1522.43 30.41 1520.98 31.40 C 1518.84 29.23 1518.24 25.54 1515.91 23.93 C 1514.62 25.72 1512.99 27.13 1511.21 28.37 M 824.14 29.25 C 824.79 29.84 824.79 29.84 824.14 29.25 M 1100.28 29.21 C 1100.80 29.91 1100.80 29.91 1100.28 29.21 M 1335.39 33.32 C 1334.04 36.27 1333.16 39.45 1331.12 42.04 C 1332.84 41.69 1334.66 42.18 1335.21 44.03 C 1336.96 47.42 1333.45 51.22 1335.15 54.65 C 1337.04 56.91 1339.59 58.47 1341.99 60.13 C 1344.01 57.32 1347.13 55.72 1349.83 53.68 C 1350.31 49.97 1347.05 47.09 1347.00 43.47 C 1348.21 42.82 1349.39 42.08 1350.55 41.31 C 1349.11 39.72 1347.72 38.09 1346.69 36.22 C 1346.33 35.96 1345.59 35.45 1345.22 35.19 C 1344.04 36.41 1342.93 37.71 1341.63 38.80 C 1338.30 39.07 1337.02 35.54 1335.39 33.32 M 1602.40 38.82 C 1601.06 37.72 1599.93 36.42 1598.75 35.18 C 1598.39 35.45 1597.66 35.97 1597.30 36.24 C 1596.13 38.12 1594.72 39.85 1593.50 41.69 C 1594.66 42.27 1595.85 42.85 1597.05 43.40 C 1596.90 47.04 1593.74 49.95 1594.16 53.67 C 1596.82 55.74 1600.02 57.28 1601.99 60.15 C 1604.36 58.47 1606.93 56.93 1608.83 54.67 C 1610.57 51.20 1606.94 47.33 1608.84 43.91 C 1609.41 42.09 1611.18 41.77 1612.92 42.03 C 1610.81 39.47 1609.95 36.27 1608.61 33.32 C 1606.95 35.55 1605.73 39.01 1602.40 38.82 M 450.73 46.02 C 452.24 46.28 453.78 46.26 455.29 45.99 C 454.16 43.84 451.80 43.79 450.73 46.02 M 1469.69 45.96 C 1471.18 46.27 1472.73 46.29 1474.25 46.02 C 1473.20 43.78 1470.83 43.89 1469.69 45.96 M 231.11 54.23 C 229.59 57.24 234.39 54.43 231.11 54.23 M 674.08 54.24 C 672.56 57.29 677.35 54.36 674.08 54.24 M 949.23 54.24 C 949.85 54.84 949.85 54.84 949.23 54.24 M 975.22 54.26 C 975.86 54.84 975.86 54.84 975.22 54.26 M 1250.11 54.23 C 1248.61 57.27 1253.38 54.40 1250.11 54.23 M 1693.07 54.23 C 1691.53 57.28 1696.33 54.36 1693.07 54.23 M 1968.21 54.22 C 1968.85 54.78 1968.85 54.78 1968.21 54.22 M 1994.23 54.16 C 1994.79 54.80 1994.79 54.80 1994.23 54.16 M 2269.13 54.22 C 2267.52 57.20 2272.38 54.52 2269.13 54.22 M 9.26 60.36 C 8.54 62.36 13.22 65.80 12.69 62.39 C 11.84 61.34 10.84 59.62 9.26 60.36 M 139.21 60.59 C 138.27 61.45 138.44 63.76 139.96 63.87 C 142.13 63.58 141.31 59.48 139.21 60.59 M 184.87 61.32 C 185.76 62.25 186.66 63.18 187.56 64.11 C 188.06 63.49 188.56 62.86 189.06 62.23 C 188.29 61.40 187.52 60.56 186.76 59.73 C 186.12 60.25 185.49 60.78 184.87 61.32 M 261.22 60.51 C 260.32 61.57 260.63 63.82 262.10 64.22 C 264.16 63.91 263.09 59.92 261.22 60.51 M 360.15 60.23 C 360.38 61.75 360.62 63.28 360.70 64.83 C 361.36 63.33 361.93 61.78 362.02 60.13 C 361.56 60.15 360.62 60.20 360.15 60.23 M 545.30 64.86 C 545.39 63.23 545.60 61.60 545.80 59.98 C 542.65 59.74 544.66 63.27 545.30 64.86 M 644.34 60.39 C 642.93 60.77 642.32 62.80 643.20 63.94 C 645.12 65.18 646.22 60.76 644.34 60.39 M 716.95 62.26 C 717.44 62.88 717.94 63.50 718.45 64.11 C 719.34 63.17 720.24 62.22 721.15 61.28 C 720.49 60.76 719.83 60.26 719.18 59.75 C 718.43 60.59 717.68 61.42 716.95 62.26 M 766.16 60.36 C 764.30 60.49 764.25 63.55 766.05 63.85 C 767.75 63.79 767.85 60.55 766.16 60.36 M 895.40 60.22 C 894.03 60.82 891.71 64.20 894.63 63.87 C 895.83 63.17 898.23 59.83 895.40 60.22 M 916.35 62.56 C 917.18 62.96 918.03 63.35 918.89 63.74 C 919.71 62.59 920.00 61.25 919.99 59.84 C 918.09 59.69 917.08 61.06 916.35 62.56 M 1004.93 59.92 C 1004.96 61.30 1005.35 62.62 1006.11 63.78 C 1006.96 63.32 1007.84 62.87 1008.72 62.41 C 1007.87 60.96 1006.79 59.70 1004.93 59.92 M 1028.30 60.31 C 1028.04 62.04 1029.98 64.53 1031.83 63.66 C 1031.84 61.94 1030.14 59.74 1028.30 60.31 M 1158.23 60.57 C 1157.25 61.43 1157.42 63.72 1158.93 63.87 C 1161.12 63.63 1160.34 59.52 1158.23 60.57 M 1203.88 61.33 C 1204.76 62.26 1205.66 63.19 1206.57 64.11 C 1207.05 63.48 1207.55 62.85 1208.06 62.22 C 1207.28 61.39 1206.51 60.55 1205.75 59.72 C 1205.11 60.25 1204.49 60.79 1203.88 61.33 M 1280.18 60.53 C 1279.31 61.60 1279.62 63.78 1281.07 64.22 C 1283.16 63.95 1282.07 59.88 1280.18 60.53 M 1379.18 60.15 C 1379.37 61.70 1379.58 63.25 1379.70 64.81 C 1380.34 63.34 1380.86 61.83 1381.10 60.23 C 1380.62 60.21 1379.66 60.17 1379.18 60.15 M 1564.37 64.85 C 1564.34 63.23 1564.59 61.62 1564.82 60.02 C 1561.64 59.70 1563.61 63.30 1564.37 64.85 M 1662.88 64.23 C 1664.33 63.85 1664.64 61.62 1663.82 60.55 C 1661.92 59.86 1660.80 63.90 1662.88 64.23 M 1735.96 62.27 C 1736.43 62.88 1736.92 63.50 1737.44 64.11 C 1738.32 63.17 1739.23 62.22 1740.15 61.28 C 1739.45 60.77 1738.77 60.27 1738.10 59.78 C 1737.37 60.61 1736.66 61.44 1735.96 62.27 M 1785.10 60.37 C 1783.26 60.58 1783.28 63.61 1785.07 63.89 C 1786.73 63.73 1786.83 60.49 1785.10 60.37 M 1912.11 64.01 C 1913.92 63.91 1916.03 62.29 1915.70 60.31 C 1913.59 59.67 1912.22 62.23 1912.11 64.01 M 1935.28 62.66 C 1936.05 62.98 1936.85 63.28 1937.70 63.54 C 1939.10 62.90 1938.76 61.20 1939.09 59.95 C 1937.06 59.60 1936.05 61.12 1935.28 62.66 M 2023.98 59.88 C 2023.92 61.28 2024.30 62.60 2025.14 63.74 C 2025.95 63.36 2026.79 62.98 2027.66 62.60 C 2026.89 61.08 2025.91 59.64 2023.98 59.88 M 2047.27 60.33 C 2047.02 62.29 2049.04 64.00 2050.94 63.96 C 2050.69 62.22 2049.36 59.61 2047.27 60.33 M 2177.21 60.58 C 2176.24 61.45 2176.41 63.76 2177.95 63.87 C 2180.11 63.58 2179.29 59.47 2177.21 60.58 M 2222.85 61.29 C 2223.73 62.23 2224.63 63.17 2225.56 64.11 C 2226.04 63.50 2226.53 62.88 2227.04 62.25 C 2226.28 61.42 2225.55 60.59 2224.84 59.76 C 2224.15 60.26 2223.48 60.77 2222.85 61.29 M 2299.22 60.51 C 2298.30 61.57 2298.59 63.83 2300.10 64.23 C 2302.12 63.90 2301.07 59.89 2299.22 60.51 M 34.16 61.16 C 33.32 62.50 35.39 64.81 36.78 63.87 C 37.84 62.43 35.62 60.16 34.16 61.16 M 58.27 60.90 C 56.82 61.52 57.22 64.29 58.96 64.02 C 61.04 63.73 60.27 60.18 58.27 60.90 M 83.22 64.43 C 84.26 63.70 86.45 60.93 83.84 60.69 C 81.66 61.11 83.06 63.11 83.22 64.43 M 684.13 61.23 C 684.83 61.80 684.83 61.80 684.13 61.23 M 822.78 64.48 C 822.82 63.22 824.38 61.16 822.25 60.77 C 819.50 60.57 821.72 63.85 822.78 64.48 M 846.28 61.27 C 845.08 62.26 846.28 64.67 847.80 63.99 C 849.64 63.10 848.02 59.56 846.28 61.27 M 870.40 61.05 C 869.18 61.38 868.11 63.71 869.80 64.14 C 871.76 64.42 873.20 60.15 870.40 61.05 M 1053.19 61.16 C 1052.27 62.49 1054.41 64.83 1055.81 63.85 C 1056.82 62.41 1054.63 60.20 1053.19 61.16 M 1077.19 60.94 C 1075.79 61.64 1076.27 64.37 1078.01 64.02 C 1080.07 63.64 1079.17 60.10 1077.19 60.94 M 1102.20 64.45 C 1103.49 63.61 1103.93 62.21 1104.19 60.76 C 1101.28 60.39 1101.24 62.43 1102.20 64.45 M 1240.22 61.17 C 1240.82 61.83 1240.82 61.83 1240.22 61.17 M 1703.24 61.16 C 1703.78 61.88 1703.78 61.88 1703.24 61.16 M 1841.78 64.47 C 1841.77 63.23 1843.38 61.13 1841.25 60.77 C 1838.49 60.60 1840.71 63.81 1841.78 64.47 M 1865.30 61.22 C 1863.99 62.19 1865.18 64.52 1866.74 63.95 C 1868.68 63.21 1867.06 59.58 1865.30 61.22 M 1889.38 61.06 C 1888.14 61.40 1887.11 63.74 1888.81 64.14 C 1890.78 64.39 1892.18 60.12 1889.38 61.06 M 2072.17 61.18 C 2071.31 62.51 2073.37 64.83 2074.78 63.88 C 2075.83 62.45 2073.61 60.17 2072.17 61.18 M 2096.18 60.95 C 2094.79 61.66 2095.24 64.38 2097.01 64.00 C 2099.08 63.64 2098.13 60.04 2096.18 60.95 M 2121.17 64.45 C 2122.28 63.82 2124.45 60.63 2121.77 60.76 C 2119.65 61.12 2121.10 63.20 2121.17 64.45 M 2259.30 61.18 C 2259.84 61.89 2259.84 61.89 2259.30 61.18 Z" />
<path fill="#010101" opacity="1.00" d=" M 1831.16 18.34 C 1833.92 17.84 1837.20 17.31 1838.60 20.43 C 1839.09 20.62 1840.07 21.01 1840.56 21.20 C 1839.55 23.39 1839.66 26.82 1837.01 27.74 C 1835.61 28.35 1834.53 27.21 1833.64 26.40 C 1832.23 25.57 1830.93 24.59 1829.67 23.62 C 1830.04 21.83 1830.50 20.05 1831.16 18.34 Z" />
<path fill="#010101" opacity="1.00" d=" M 942.75 32.50 C 943.26 28.92 947.46 30.10 950.00 30.05 C 951.98 29.88 953.80 31.30 953.96 33.30 C 952.36 36.35 952.62 41.34 948.08 41.69 C 945.19 39.46 943.18 36.14 942.75 32.50 Z" />
<path fill="#010101" opacity="1.00" d=" M 971.22 33.02 C 971.01 30.45 974.09 29.89 976.02 29.99 C 978.32 29.94 981.87 29.32 982.25 32.50 C 981.82 36.14 979.81 39.45 976.94 41.69 C 972.51 41.25 972.22 36.35 971.22 33.02 Z" />
<path fill="#010101" opacity="1.00" d=" M 637.95 32.15 C 640.90 30.32 644.55 30.82 647.12 33.09 C 647.74 36.95 645.37 40.30 641.91 41.77 C 638.52 39.70 637.36 35.94 637.95 32.15 Z" />
<path fill="#010101" opacity="1.00" d=" M 652.27 33.98 C 653.44 30.65 658.20 30.38 660.90 32.14 C 661.26 33.09 661.62 34.03 661.99 34.97 C 660.98 36.83 660.18 39.17 658.10 40.06 C 654.44 41.03 653.01 36.68 652.27 33.98 Z" />
<path fill="#010101" opacity="1.00" d=" M 693.92 32.25 C 696.54 30.95 699.34 30.80 701.96 32.19 C 703.79 36.23 700.09 41.41 695.69 40.97 C 695.29 40.36 694.50 39.13 694.10 38.51 C 693.94 36.43 693.90 34.34 693.92 32.25 Z" />
<path fill="#010101" opacity="1.00" d=" M 707.80 32.24 C 708.42 31.79 709.66 30.88 710.28 30.42 C 712.63 30.67 716.07 30.03 716.86 33.02 C 717.11 36.13 715.07 39.01 713.13 41.29 C 710.29 38.97 706.85 36.43 707.80 32.24 Z" />
<path fill="#010101" opacity="1.00" d=" M 748.21 33.92 C 749.32 31.52 752.30 31.19 754.53 30.42 C 755.97 31.99 758.00 33.58 757.95 35.92 C 757.04 37.89 755.86 39.87 754.07 41.14 C 750.07 42.16 747.74 37.20 748.21 33.92 Z" />
<path fill="#010101" opacity="1.00" d=" M 808.95 32.13 C 811.75 30.69 815.95 30.22 817.90 33.26 C 818.88 36.76 816.58 42.13 812.23 40.82 C 809.21 38.92 808.60 35.42 808.95 32.13 Z" />
<path fill="#010101" opacity="1.00" d=" M 859.90 34.94 C 859.71 32.26 862.91 31.64 864.89 31.00 C 866.73 30.42 867.81 32.31 869.11 33.20 C 869.21 36.45 868.26 40.72 864.89 42.00 C 861.78 41.44 859.41 38.08 859.90 34.94 Z" />
<path fill="#010101" opacity="1.00" d=" M 1058.37 30.88 C 1060.60 31.13 1063.10 31.54 1064.71 33.27 C 1066.26 36.74 1063.86 41.31 1060.12 42.03 C 1056.78 40.73 1055.75 36.54 1055.92 33.30 C 1056.74 32.50 1057.56 31.70 1058.37 30.88 Z" />
<path fill="#010101" opacity="1.00" d=" M 1108.99 31.50 C 1111.28 30.57 1113.83 31.09 1116.03 32.09 C 1116.39 35.38 1115.79 38.91 1112.78 40.81 C 1107.69 42.51 1104.54 33.80 1108.99 31.50 Z" />
<path fill="#010101" opacity="1.00" d=" M 1167.06 35.98 C 1166.97 33.62 1168.99 31.99 1170.47 30.42 C 1172.69 31.18 1175.70 31.52 1176.80 33.95 C 1177.18 36.55 1175.87 39.24 1173.90 40.89 C 1170.38 42.58 1168.33 38.53 1167.06 35.98 Z" />
<path fill="#010101" opacity="1.00" d=" M 1209.28 31.19 C 1210.92 30.33 1212.89 30.66 1214.71 30.42 C 1215.33 30.87 1216.57 31.77 1217.19 32.22 C 1218.09 36.21 1215.04 38.99 1212.05 40.97 C 1210.09 40.37 1209.64 37.87 1208.70 36.28 C 1207.68 34.64 1207.86 32.54 1209.28 31.19 Z" />
<path fill="#010101" opacity="1.00" d=" M 1222.98 32.23 C 1225.61 30.82 1228.42 30.91 1231.06 32.25 C 1231.13 35.25 1231.42 38.46 1229.41 40.95 C 1228.44 40.92 1227.49 40.87 1226.55 40.79 C 1223.80 38.90 1221.55 35.65 1222.98 32.23 Z" />
<path fill="#010101" opacity="1.00" d=" M 1264.01 32.15 C 1266.75 30.43 1271.53 30.61 1272.73 34.00 C 1271.97 36.65 1270.59 40.98 1266.99 40.05 C 1264.19 38.75 1262.25 35.01 1264.01 32.15 Z" />
<path fill="#010101" opacity="1.00" d=" M 1277.89 33.07 C 1280.45 30.82 1284.08 30.33 1287.03 32.15 C 1287.65 35.93 1286.47 39.69 1283.10 41.77 C 1279.61 40.30 1277.25 36.94 1277.89 33.07 Z" />
<path fill="#010101" opacity="1.00" d=" M 1446.03 32.19 C 1447.40 31.96 1448.81 31.66 1450.17 31.24 C 1451.41 31.57 1452.63 31.90 1453.91 32.21 C 1454.69 34.33 1454.46 36.53 1453.88 38.66 C 1452.86 39.69 1451.86 40.73 1450.90 41.77 C 1447.62 40.07 1444.10 35.97 1446.03 32.19 Z" />
<path fill="#010101" opacity="1.00" d=" M 1490.11 32.20 C 1491.32 31.89 1492.58 31.57 1493.83 31.24 C 1495.13 31.63 1496.45 31.94 1497.83 32.23 C 1498.08 32.64 1498.59 33.45 1498.85 33.86 C 1498.19 37.28 1496.26 40.21 1493.09 41.77 C 1492.09 40.74 1491.13 39.71 1490.15 38.70 C 1489.50 36.55 1489.28 34.33 1490.11 32.20 Z" />
<path fill="#010101" opacity="1.00" d=" M 1656.96 32.16 C 1659.90 30.31 1663.54 30.83 1666.12 33.09 C 1666.72 36.95 1664.38 40.32 1660.89 41.76 C 1657.53 39.68 1656.33 35.94 1656.96 32.16 Z" />
<path fill="#010101" opacity="1.00" d=" M 1671.27 34.02 C 1672.41 30.61 1677.23 30.42 1679.98 32.14 C 1681.75 34.99 1679.78 38.83 1676.97 40.04 C 1673.38 40.97 1672.02 36.63 1671.27 34.02 Z" />
<path fill="#010101" opacity="1.00" d=" M 1712.93 32.26 C 1715.54 30.92 1718.34 30.83 1720.98 32.19 C 1722.49 35.72 1720.13 39.61 1716.71 40.82 C 1714.99 41.89 1714.07 39.51 1713.03 38.66 C 1712.94 36.52 1712.90 34.39 1712.93 32.26 Z" />
<path fill="#010101" opacity="1.00" d=" M 1726.80 32.24 C 1727.42 31.78 1728.67 30.87 1729.29 30.42 C 1731.58 30.70 1735.00 30.00 1735.80 32.92 C 1736.22 36.04 1734.06 39.00 1732.12 41.29 C 1729.29 38.95 1725.83 36.43 1726.80 32.24 Z" />
<path fill="#010101" opacity="1.00" d=" M 1767.21 33.98 C 1768.24 31.51 1771.29 31.19 1773.52 30.42 C 1775.02 31.99 1777.03 33.66 1776.94 36.06 C 1775.59 38.56 1773.62 42.55 1770.13 40.91 C 1768.14 39.27 1766.79 36.58 1767.21 33.98 Z" />
<path fill="#010101" opacity="1.00" d=" M 1828.00 32.08 C 1830.80 30.72 1834.98 30.22 1836.90 33.27 C 1837.21 35.24 1837.10 37.40 1835.92 39.08 C 1834.76 41.37 1831.01 41.72 1829.71 39.38 C 1827.58 37.52 1827.99 34.60 1828.00 32.08 Z" />
<path fill="#010101" opacity="1.00" d=" M 846.54 32.01 C 848.53 31.96 850.54 31.95 852.54 32.11 C 854.41 34.38 854.60 37.38 852.95 39.84 C 850.64 40.78 846.04 42.66 845.38 39.05 C 845.77 36.71 846.16 34.36 846.54 32.01 Z" />
<path fill="#010101" opacity="1.00" d=" M 907.87 34.26 C 909.37 31.86 912.19 32.36 914.61 32.28 C 918.70 35.28 915.90 41.52 912.02 43.41 C 908.97 41.32 907.20 38.00 907.87 34.26 Z" />
<path fill="#010101" opacity="1.00" d=" M 1010.38 32.28 C 1012.79 32.38 1015.61 31.87 1017.13 34.25 C 1017.81 37.99 1016.01 41.27 1013.04 43.40 C 1009.08 41.58 1006.30 35.30 1010.38 32.28 Z" />
<path fill="#010101" opacity="1.00" d=" M 1071.71 33.50 C 1072.83 30.80 1076.22 32.34 1078.44 31.96 C 1078.53 34.93 1080.53 38.18 1078.81 40.90 C 1076.87 41.19 1074.76 41.30 1073.07 40.18 C 1070.69 39.07 1070.04 35.47 1071.71 33.50 Z" />
<path fill="#010101" opacity="1.00" d=" M 1404.30 32.12 C 1406.75 31.70 1410.08 30.89 1411.92 33.12 C 1412.11 35.06 1412.11 37.03 1411.93 38.97 C 1410.33 40.79 1407.56 40.72 1405.35 40.98 C 1403.68 39.87 1403.85 37.64 1403.28 35.94 C 1403.61 34.67 1403.95 33.39 1404.30 32.12 Z" />
<path fill="#010101" opacity="1.00" d=" M 1414.93 31.97 C 1417.66 31.91 1420.51 31.78 1423.07 32.98 C 1423.57 36.05 1421.99 38.95 1418.96 39.88 C 1418.33 39.62 1417.05 39.09 1416.41 38.83 C 1415.01 36.78 1414.72 34.39 1414.93 31.97 Z" />
<path fill="#010101" opacity="1.00" d=" M 1460.01 33.28 C 1462.54 32.55 1465.15 31.11 1467.86 31.95 C 1467.57 34.58 1470.40 37.78 1467.79 39.81 C 1466.77 40.88 1465.38 41.42 1464.12 42.09 C 1462.66 41.05 1461.28 39.92 1459.98 38.71 C 1459.95 36.90 1459.95 35.09 1460.01 33.28 Z" />
<path fill="#010101" opacity="1.00" d=" M 1476.14 31.94 C 1478.84 31.12 1481.46 32.55 1484.01 33.30 C 1484.00 35.09 1484.20 36.91 1483.84 38.67 C 1482.79 40.09 1481.29 41.05 1479.90 42.07 C 1477.94 41.20 1475.83 40.11 1474.96 38.05 C 1475.34 36.01 1475.96 34.02 1476.14 31.94 Z" />
<path fill="#010101" opacity="1.00" d=" M 1520.92 32.99 C 1523.47 31.77 1526.30 31.92 1529.07 31.96 C 1529.24 34.38 1528.99 36.78 1527.59 38.82 C 1526.96 39.09 1525.70 39.62 1525.07 39.89 C 1521.99 38.98 1520.43 36.06 1520.92 32.99 Z" />
<path fill="#010101" opacity="1.00" d=" M 1532.09 33.09 C 1533.95 30.91 1537.23 31.69 1539.71 32.14 C 1540.02 33.40 1540.35 34.67 1540.71 35.93 C 1540.11 37.63 1540.31 39.89 1538.63 40.99 C 1536.38 40.74 1533.74 40.75 1532.07 39.03 C 1531.86 37.06 1531.86 35.06 1532.09 33.09 Z" />
</g>
</svg>
